<?xml version="1.0" encoding="UTF-8"?>
<svg width="529px" height="345px" viewBox="0 0 529 345" version="1.1" xmlns="http://www.w3.org/2000/svg" xmlns:xlink="http://www.w3.org/1999/xlink">
    <!-- Generator: Sketch 61.2 (89653) - https://sketch.com -->
    <title>3</title>
    <desc>Created with Sketch.</desc>
    <g id="Agency-2" stroke="none" stroke-width="1" fill="none" fill-rule="evenodd">
        <g id="Agency-1" transform="translate(-360.000000, -3856.000000)">
            <g id="3" transform="translate(360.000000, 3856.000000)">
                <path d="M20,0 L509,0 C520.045695,-2.02906125e-15 529,8.954305 529,20 L529,345 L529,345 L0,345 L0,20 C-1.3527075e-15,8.954305 8.954305,2.02906125e-15 20,0 Z" id="Rectangle-Copy-22" fill="#F9F9F9"></path>
                <g id="Startup_SVG" transform="translate(132.000000, 38.000000)">
                    <ellipse id="Oval" fill="#D6D8E5" fill-rule="nonzero" opacity="0.15" cx="38.5759494" cy="173.571429" rx="38.5759494" ry="22.6397516"></ellipse>
                    <ellipse id="Oval" fill="#EDEFF9" fill-rule="nonzero" opacity="0.5" cx="38.5759494" cy="171.89441" rx="21.8037975" ry="12.5776398"></ellipse>
                    <ellipse id="Oval" fill="#EDEFF9" fill-rule="nonzero" cx="38.5759494" cy="166.024845" rx="6.70886076" ry="3.35403727"></ellipse>
                    <rect id="Rectangle" fill="#EDEFF9" fill-rule="nonzero" x="31.8670886" y="120.745342" width="11.7405063" height="46.9565217"></rect>
                    <path d="M31.8670886,118.578298 C31.8670886,118.578298 32.2115978,128.358666 39.4749993,145.900621 C39.4749993,145.900621 46.2388625,131.774644 46.9393644,118.281256 C47.6398664,104.787868 31.8670886,118.578298 31.8670886,118.578298 Z" id="Path" fill="#FFBC00" fill-rule="nonzero"></path>
                    <polygon id="Path" fill="#8C50FF" fill-rule="nonzero" points="22.0984325 83.8509317 6.84515454 99.8514311 5.03164557 120.745342 23.4794092 110.77312 26.835443 85.2891788"></polygon>
                    <polygon id="Path" fill="#8C50FF" fill-rule="nonzero" points="55.0534662 83.8509317 70.301533 99.8514311 72.1202532 120.745342 53.6047435 110.082087 50.3164557 85.2891788"></polygon>
                    <ellipse id="Oval" fill="#424956" fill-rule="nonzero" cx="38.5759494" cy="116.552795" rx="8.38607595" ry="4.19254658"></ellipse>
                    <polygon id="Path" fill="#494949" fill-rule="nonzero" points="26.835443 112.180568 26.835443 107.329193 50.3164557 107.329193 50.3164557 112.360248"></polygon>
                    <ellipse id="Oval" fill="#2B303F" fill-rule="nonzero" cx="38.5759494" cy="113.198758" rx="11.7405063" ry="7.54658385"></ellipse>
                    <ellipse id="Oval" fill="#EDEFF9" fill-rule="nonzero" cx="37.7373418" cy="106.490683" rx="14.2563291" ry="7.54658385"></ellipse>
                    <path d="M55.343243,92.7293164 L55.343243,92.7293164 C55.343243,93.4169858 55.343243,94.0936524 55.343243,94.7483136 C55.343243,95.2984491 55.343243,95.8485846 55.343243,96.3987201 C55.343243,97.141403 55.3045861,97.8510778 55.2769741,98.5442485 C55.2769741,99.4079612 55.2162275,100.227663 55.1720482,101.014357 C55.1278689,101.801051 55.089212,102.57124 55.0339879,103.280915 C54.8075689,106.389181 54.8130913,108.677744 54.4265224,109.574465 C52.3224829,114.476172 45.204092,111.775007 41.691837,110.014574 C40.3940699,109.365414 39.5380958,108.831782 39.5380958,108.831782 L39.2177958,108.831782 C39.2177958,108.831782 38.2016717,109.381918 36.6995753,109.976064 C33.0161255,111.46143 26.449976,114.096579 24.6275795,109.557961 C24.3017571,108.743761 23.9759347,106.053598 23.7771279,103.236904 C23.7274261,102.532731 23.6832468,101.779045 23.6390675,100.975847 C23.5948882,100.17265 23.5727986,99.3749531 23.5396641,98.5112404 C23.5396641,97.823571 23.5010072,97.1138963 23.48444,96.3767147 C23.48444,95.8265792 23.48444,95.2764437 23.48444,94.7263082 L23.48444,94.7263082 L23.48444,92.707311 L23.48444,92.707311 C23.3850365,73.5130837 25.4283295,42.8210247 32.1767187,29.7222987 C34.1261306,25.9318652 36.4676339,23.6157947 39.2674975,23.4782609 L39.2674975,23.4782609 L39.5877975,23.4782609 L39.5877975,23.4782609 C42.3490042,23.6212961 44.7181196,25.9263638 46.6730539,29.7002933 C53.3275621,42.7495071 55.4647361,73.3205363 55.343243,92.7293164 Z" id="Path" fill="#EDEFF9" fill-rule="nonzero"></path>
                    <ellipse id="Oval" fill="#2B303F" fill-rule="nonzero" cx="40.2531646" cy="68.757764" rx="5.03164557" ry="5.0310559"></ellipse>
                    <path d="M40.2531646,75.4658385 C36.5479631,75.4658385 33.5443038,72.4625312 33.5443038,68.757764 C33.5443038,65.0529967 36.5479631,62.0496894 40.2531646,62.0496894 C43.958366,62.0496894 46.9620253,65.0529967 46.9620253,68.757764 C46.9588528,72.4612165 43.9570512,75.4626664 40.2531646,75.4658385 L40.2531646,75.4658385 Z M40.2531646,63.7640997 C38.2326585,63.7617755 36.40981,64.9769651 35.6349824,66.8427829 C34.8601547,68.7086007 35.2860198,70.8574063 36.7139106,72.2867764 C38.1418013,73.7161466 40.2903664,74.1444385 42.1572948,73.371853 C44.0242232,72.5992675 45.2416571,70.7780346 45.2416571,68.757764 C45.2384944,66.0033969 43.0078489,63.7704404 40.2531646,63.7640997 L40.2531646,63.7640997 Z" id="Shape" fill="#424956" fill-rule="nonzero"></path>
                    <ellipse id="Oval" fill="#2B303F" fill-rule="nonzero" cx="40.2531646" cy="51.9875776" rx="5.03164557" ry="5.0310559"></ellipse>
                    <path d="M40.2589012,58.6956402 C36.5544548,58.6988062 33.548542,55.6992433 33.5443083,51.9952336 C33.5400835,48.2912239 36.5391386,45.2848061 40.2435826,45.2795101 C43.9480266,45.274228 46.9556563,48.2720698 46.9620089,51.9760765 C46.9651848,55.6817719 43.9650284,58.6892937 40.2589012,58.6956402 Z M40.2589012,47.0039461 C38.2396057,47.0016213 36.4179578,48.2163906 35.6441324,50.081313 C34.8703071,51.9462355 35.2968616,54.0936478 36.72472,55.5213383 C38.1525785,56.9490289 40.3002433,57.3755332 42.1653851,56.6017988 C44.0305269,55.8280645 45.2454391,54.0066308 45.2431174,51.9875727 C45.2446396,50.664308 44.7203755,49.3946349 43.7856541,48.4578674 C42.8509327,47.5211 41.5823216,46.9939734 40.2589012,46.9924498 L40.2589012,47.0039461 Z" id="Shape" fill="#424956" fill-rule="nonzero"></path>
                    <path d="M55.3481013,102.298137 C55.3481013,103.011256 55.3481013,103.712965 55.3481013,104.39756 C54.7966721,106.280194 53.296785,108.08296 50.8594683,109.532018 C44.5400906,113.302992 34.3165948,113.302992 27.9696457,109.532018 C25.532329,108.07155 24.0379561,106.263079 23.4810127,104.39756 L23.4810127,104.39756 L23.4810127,102.303842 C24.0324418,104.220706 25.5213004,106.046291 27.9917028,107.523874 C34.3165948,111.294848 44.5621478,111.294848 50.8815254,107.523874 C53.3022992,106.029176 54.8352722,104.209296 55.3481013,102.298137 Z" id="Path" fill="#8C50FF" fill-rule="nonzero"></path>
                    <path d="M55.3481013,105.671444 C55.3481013,106.317007 55.3094611,106.9433 55.281861,107.545504 C54.6636185,109.048606 53.1952926,110.479444 50.8658432,111.645311 C44.5398976,114.834586 34.3057763,114.834586 27.9522307,111.645311 C25.6283013,110.469809 24.1599754,109.029336 23.5362129,107.516599 C23.5362129,106.914394 23.4975727,106.292919 23.4810127,105.652174 C24.0330149,107.222723 25.539981,108.71619 27.9467107,109.930234 C34.2781762,113.119508 44.5343776,113.119508 50.8603232,109.930234 C53.2780929,108.721007 54.7684989,107.232358 55.3481013,105.671444 Z" id="Path" fill="#8C50FF" fill-rule="nonzero"></path>
                    <path d="M55.3481013,98.9845161 C54.7083509,100.464779 53.3336806,101.874313 51.2346649,103.02619 C45.1755415,106.365622 35.3730852,106.365622 29.2875258,103.02619 C27.1726485,101.854104 25.7979782,100.439519 25.1582278,98.9440994 C25.2005254,99.6817048 25.2428229,100.373841 25.2904077,101.020509 C25.9724556,102.414887 27.3048283,103.72843 29.2875258,104.824734 C31.8735944,106.171245 34.7268416,106.98365 37.6624399,107.209322 C39.2443408,107.356308 40.8368116,107.368143 42.4209138,107.244686 C45.5010641,107.058531 48.5016618,106.232689 51.2135161,104.824734 C53.180352,103.738535 54.5074375,102.440147 55.1947727,101.060926 L55.3481013,98.9845161 Z" id="Path" fill="#8C50FF" fill-rule="nonzero"></path>
                    <path d="M45.2848101,30.8716939 C40.3663997,32.1939074 35.1082838,32.1939074 30.1898734,30.8716939 C32.219783,27.4015534 34.6579747,25.2811917 37.5734539,25.1552795 L37.5734539,25.1552795 L37.9069801,25.1552795 L37.9069801,25.1552795 C40.8109584,25.3063742 43.2491501,27.4166628 45.2848101,30.8716939 Z" id="Path" fill="#8C50FF" fill-rule="nonzero"></path>
                    <rect id="Rectangle" fill="#8C50FF" fill-rule="nonzero" x="36.8987342" y="83.8509317" width="3.35443038" height="36.8944099"></rect>
                    <g id="monitor" transform="translate(100.632911, 0.000000)">
                        <path d="M68.1180328,207.945985 L36.8613405,189.771469 C34.603314,188.458172 34.8889355,186.168042 37.4918635,184.653951 L57.7440444,172.883116 L97.1652002,195.800698 L76.9130193,207.57696 C74.3047022,209.09105 70.3706703,209.253856 68.1180328,207.945985 Z" id="Path" fill="#D6D8E5" fill-rule="nonzero" opacity="0.4"></path>
                        <path d="M70.3976157,206.5947 L39.1409234,188.414757 C36.888286,187.106887 37.1685184,184.816757 39.7714464,183.302666 L60.0290164,171.531831 L99.4501722,194.449413 L79.2195476,206.220248 C76.5896742,207.739765 72.6502532,207.902571 70.3976157,206.5947 Z" id="Path" fill="#B1B4C4" fill-rule="nonzero"></path>
                        <polygon id="Path" fill="#B1B4C4" fill-rule="nonzero" points="99.4447832 194.449413 99.4447832 193.250079 97.6232725 194.308315"></polygon>
                        <polygon id="Path" fill="#B1B4C4" fill-rule="nonzero" points="37.6158124 186.249445 37.6158124 185.028404 39.4858249 185.80987"></polygon>
                        <path d="M70.3976157,205.38994 L39.1409234,187.215424 C36.888286,185.902126 37.1685184,183.617423 39.7714464,182.103332 L60.0290164,170.327071 L99.4501722,193.250079 L79.2195476,205.020914 C76.5896742,206.535005 72.6502532,206.703237 70.3976157,205.38994 Z" id="Path" fill="#D6D8E5" fill-rule="nonzero"></path>
                        <polygon id="Path" fill="#9EA1AF" fill-rule="nonzero" points="60.1260199 170.381339 55.2488981 154.079086 95.1011807 177.099778 99.4447832 193.250079"></polygon>
                        <polygon id="Path" fill="#9EA1AF" fill-rule="nonzero" points="98.291519 193.917582 99.4447832 193.250079 97.7256651 191.866233"></polygon>
                        <polygon id="Path" fill="#B1B4C4" fill-rule="nonzero" points="58.8703631 170.994573 53.9932413 154.69232 93.845524 177.713012 98.2861299 193.917582"></polygon>
                        <path d="M160.055821,221.415424 L5.7717099,131.704189 C3.61607595,130.44516 1.8538452,127.06966 1.8538452,124.166296 L1.8538452,3.99958743 C1.8538452,1.09079657 3.61068686,-0.244208188 5.7717099,1.01482069 L160.055821,90.7043478 C162.211455,91.9633767 163.973685,95.3388765 163.973685,98.2422406 L163.973685,218.40895 C163.957518,221.312314 162.211455,222.647318 160.055821,221.415424 Z" id="Path" fill="#C4C7D6" fill-rule="nonzero"></path>
                        <polygon id="Path" fill="#C4C7D6" fill-rule="nonzero" points="160.831849 222.631038 162.540189 221.637924 161.801884 216.536687"></polygon>
                        <path d="M1.57900187,1.75829895 L3.26039635,0.776039353 L5.68009546,2.17073945 C5.68009546,2.17073945 3.10411289,2.5668994 3.03944387,2.55061885 C2.97477485,2.53433831 1.57900187,1.75829895 1.57900187,1.75829895 Z" id="Path" fill="#B1B4C4" fill-rule="nonzero"></path>
                        <path d="M158.622324,222.21317 L4.35976966,132.523643 C2.20413571,131.264614 0.44190496,127.894541 0.44190496,124.985751 L0.44190496,4.81904157 C0.44190496,1.91567756 2.19335754,0.580672802 4.35976966,1.83970168 L158.622324,91.5292288 C160.777958,92.7882577 162.540189,96.1637575 162.540189,99.0671215 L162.540189,219.244684 C162.540189,222.137195 160.788736,223.472199 158.622324,222.21317 Z" id="Path" fill="#E4E7F2" fill-rule="nonzero"></path>
                        <path d="M158.35287,222.370549 L4.08492633,132.681022 C1.92929238,131.421993 0.167061631,128.046493 0.167061631,125.143129 L0.167061631,4.97642018 C0.167061631,2.07305617 1.9239033,0.738051412 4.08492633,1.99708029 L158.35287,91.7137417 C160.508504,92.9673437 162.270735,96.3428435 162.270735,99.2516344 L162.270735,219.385782 C162.270735,222.294573 160.513893,223.629578 158.35287,222.370549 Z" id="Path" fill="#D6D8E5" fill-rule="nonzero"></path>
                        <path d="M160.147435,215.060584 L2.15563395,123.189464 L2.2095248,5.45940971 C2.2095248,4.25464932 3.05022204,3.76623294 4.08492633,4.37403999 L158.35287,94.0581403 C159.455544,94.7824681 160.151469,95.9907468 160.228271,97.3142494 L160.147435,215.060584 Z" id="Path" fill="#FFFFFF" fill-rule="nonzero"></path>
                        <path d="M64.5181241,55.9399556 L13.903839,26.5155824 C13.4300743,26.1717187 13.1461787,25.6220948 13.1385889,25.0340527 L13.1385889,21.4794668 C13.1385889,20.936782 13.4781013,20.649159 13.903839,20.8933672 L64.5181241,50.3177404 C64.9899017,50.6633305 65.2732399,51.2118752 65.2833741,51.7992701 L65.2833741,55.3538559 C65.2833741,55.923675 64.9384727,56.1895906 64.5181241,55.9399556 Z" id="Path" fill="#E9EAF2" fill-rule="nonzero"></path>
                        <path d="M51.5196514,56.7919708 L14.1355696,35.0574421 C13.6599392,34.7170461 13.373751,34.1688734 13.3649305,33.5813393 L13.3649305,31.8121866 C13.3649305,31.2695017 13.7098319,30.9764519 14.1355696,31.226087 L51.5196514,52.9606157 C51.9884977,53.3050742 52.268207,53.8523175 52.2741233,54.4367185 L52.2741233,56.2058712 C52.2741233,56.7756903 51.94,57.0416058 51.5196514,56.7919708 Z" id="Path" fill="#E9EAF2" fill-rule="nonzero"></path>
                        <path d="M51.5196514,63.4941288 L14.1355696,41.7867344 C13.6599392,41.4463384 13.373751,40.8981657 13.3649305,40.3106315 L13.3649305,38.5306252 C13.3649305,37.9879403 13.7098319,37.6948905 14.1355696,37.9445255 L51.5196514,59.6953348 C51.9925719,60.0374833 52.2764702,60.5850992 52.2849014,61.1714376 L52.2849014,62.9405903 C52.2741233,63.4941288 51.94,63.7491907 51.5196514,63.4941288 Z" id="Path" fill="#E9EAF2" fill-rule="nonzero"></path>
                        <path d="M44.4653393,66.1098699 L14.1355696,48.4726119 C13.6599392,48.1322159 13.373751,47.5840432 13.3649305,46.996509 L13.3649305,45.2273564 C13.3649305,44.6846715 13.7098319,44.3916217 14.1355696,44.6412567 L44.4653393,62.2730879 C44.9404754,62.616375 45.2262783,63.1658223 45.2359784,63.7546176 L45.2359784,65.5237702 C45.2359784,66.0935893 44.891077,66.3540781 44.4653393,66.1098699 Z" id="Path" fill="#8C50FF" fill-rule="nonzero"></path>
                        <path d="M64.5181241,126.358743 L13.903839,96.93437 C13.4300743,96.5905064 13.1461787,96.0408825 13.1385889,95.4528404 L13.1385889,91.8982545 C13.1385889,91.3284354 13.4781013,91.0679467 13.903839,91.3121549 L64.5181241,120.736528 C64.9899017,121.082118 65.2732399,121.630663 65.2833741,122.218058 L65.2833741,125.772644 C65.2833741,126.342463 64.9384727,126.602951 64.5181241,126.358743 Z" id="Path" fill="#E9EAF2" fill-rule="nonzero"></path>
                        <path d="M51.5196514,127.210758 L14.1355696,105.503364 C13.6604335,105.160077 13.3746306,104.61063 13.3649305,104.021834 L13.3649305,102.252682 C13.3649305,101.682863 13.7098319,101.422374 14.1355696,101.672009 L51.5196514,123.379403 C51.991429,123.724993 52.2747671,124.273538 52.2849014,124.860933 L52.2849014,126.630086 C52.2741233,127.194478 51.94,127.454967 51.5196514,127.210758 Z" id="Path" fill="#E9EAF2" fill-rule="nonzero"></path>
                        <path d="M51.5196514,133.918343 L14.1355696,112.183815 C13.6612764,111.842243 13.3754707,111.294803 13.3649305,110.707712 L13.3649305,108.938559 C13.3649305,108.395874 13.7098319,108.108251 14.1355696,108.357886 L51.5196514,130.065281 C51.991429,130.410871 52.2747671,130.959416 52.2849014,131.546811 L52.2849014,133.315963 C52.2741233,133.902063 51.94,134.162552 51.5196514,133.918343 Z" id="Path" fill="#E9EAF2" fill-rule="nonzero"></path>
                        <path d="M44.4653393,136.523231 L14.1355696,118.8914 C13.6597663,118.548697 13.3737737,117.998885 13.3649305,117.40987 L13.3649305,115.640717 C13.3649305,115.070898 13.7098319,114.810409 14.1355696,115.060044 L44.4653393,132.691876 C44.9404754,133.035163 45.2262783,133.58461 45.2359784,134.173405 L45.2359784,135.942558 C45.2359784,136.512377 44.891077,136.756585 44.4653393,136.523231 Z" id="Path" fill="#8C50FF" fill-rule="nonzero"></path>
                        <path d="M78.0608944,135.09597 C78.0608944,135.09597 83.6439863,139.817328 91.7060573,133.370232 C97.4615999,128.616312 102.608176,131.329737 105.475169,132.957791 C108.342162,134.585846 112.480979,135.584386 120.365211,149.92212 C120.365211,149.92212 122.930415,154.415551 127.166236,156.87934 C131.402056,159.343129 133.439131,158.138369 136.769585,153.080546 C140.100039,148.022723 142.282619,142.422215 148.404619,146.079911 L148.404619,196.924056 L77.5112077,155.750555 L77.5112077,134.764932 L78.0608944,135.09597 Z" id="Path" fill="#F5F6FF" fill-rule="nonzero"></path>
                        <path d="M62.6535007,113.540527 L14.1517369,85.320914 C13.6766008,84.9776269 13.3907978,84.4281796 13.3810977,83.8393843 L13.3810977,55.6577594 C13.3810977,55.1150746 13.7259992,54.8274516 14.1517369,55.0716598 L62.6535007,83.2912726 C63.1286368,83.6345597 63.4144398,84.184007 63.4241399,84.7728023 L63.4241399,112.965281 C63.4241399,113.524246 63.0792384,113.784735 62.6535007,113.540527 Z" id="Path" fill="#E9EAF2" fill-rule="nonzero"></path>
                        <polyline id="Path" stroke="#E9EAF2" stroke-width="0.31" points="77.5112077 133.912917 77.5112077 155.739702 148.404619 196.95119 148.404619 146.107045"></polyline>
                        <line x1="105.372777" y1="133.212853" x2="105.372777" y2="171.884576" id="Path" stroke="#E9EAF2" stroke-width="0.31"></line>
                        <line x1="127.063843" y1="157.67166" x2="127.063843" y2="184.491146" id="Path" stroke="#E9EAF2" stroke-width="0.31"></line>
                        <path d="M77.5112077,134.764932 C90.0893318,142.617582 91.8677298,124.86636 105.572173,132.832974 C119.276615,140.799587 117.385047,151.181149 127.500359,157.063853 C137.615671,162.946557 137.852791,139.96928 148.404619,146.107045" id="Path" stroke="#E9EAF2" stroke-width="1.53"></path>
                        <ellipse id="Oval" fill="#8C50FF" fill-rule="nonzero" transform="translate(105.369353, 133.219490) rotate(-30.000000) translate(-105.369353, -133.219490) " cx="105.369353" cy="133.21949" rx="1.36582657" ry="2.37824186"></ellipse>
                        <ellipse id="Oval" fill="#8C50FF" fill-rule="nonzero" transform="translate(149.393840, 146.693199) rotate(-29.886527) translate(-149.393840, -146.693199) " cx="149.39384" cy="146.693199" rx="1.37051415" ry="2.38646119"></ellipse>
                        <ellipse id="Oval" fill="#8C50FF" fill-rule="nonzero" transform="translate(127.963066, 157.825891) rotate(-29.886527) translate(-127.963066, -157.825891) " cx="127.963066" cy="157.825891" rx="1.37051415" ry="2.38646119"></ellipse>
                        <ellipse id="Oval" fill="#8C50FF" fill-rule="nonzero" transform="translate(77.511280, 134.769850) rotate(-30.000000) translate(-77.511280, -134.769850) " cx="77.5112797" cy="134.76985" rx="1.36582657" ry="2.37824186"></ellipse>
                        <path d="M79.5105582,97.2654078 L76.6058415,95.5776579 C76.1307054,95.2343708 75.8449024,94.6849235 75.8352023,94.0961282 L75.8352023,79.9863218 C75.8352023,79.4165027 76.1801038,79.156014 76.6058415,79.4002222 L79.5105582,81.0933989 C79.9848101,81.4246432 80.2763546,81.9615463 80.2973646,82.5423675 L80.2973646,96.6793082 C80.2973646,97.2491273 79.9362959,97.509616 79.5105582,97.2654078 Z" id="Path" fill="#E9EAF2" fill-rule="nonzero"></path>
                        <path d="M86.225358,101.156458 L83.3206412,99.4632815 C82.8450108,99.1228855 82.5588226,98.5747128 82.5500021,97.9871787 L82.5500021,69.224881 C82.5500021,68.6821961 82.8949035,68.3891463 83.3206412,68.6387813 L86.225358,70.3319581 C86.700494,70.6752452 86.986297,71.2246925 86.9959971,71.8134878 L86.9959971,100.575785 C86.9744408,101.140178 86.6295393,101.400666 86.225358,101.156458 Z" id="Path" fill="#8C50FF" fill-rule="nonzero"></path>
                        <path d="M99.5848994,108.933132 L96.6801826,107.245382 C96.2030319,106.903862 95.9166539,106.35331 95.9095435,105.763853 L95.9095435,79.8018089 C95.9095435,79.2319898 96.2544449,78.9715011 96.6801826,79.2157093 L99.5848994,80.9034592 C100.060035,81.2467463 100.345838,81.7961936 100.355538,82.3849889 L100.355538,108.35246 C100.355538,108.922279 100.010637,109.182767 99.5848994,108.933132 Z" id="Path" fill="#E9EAF2" fill-rule="nonzero"></path>
                        <path d="M106.278143,112.824183 L103.373426,111.136433 C102.89829,110.793146 102.612487,110.243699 102.602787,109.654903 L102.602787,88.1428753 C102.602787,87.6001904 102.947688,87.3125674 103.373426,87.5567756 L106.278143,89.2499524 C106.753773,89.5903484 107.039961,90.1385211 107.048782,90.7260552 L107.048782,112.238083 C107.048782,112.813329 106.70388,113.073818 106.278143,112.824183 Z" id="Path" fill="#8C50FF" fill-rule="nonzero"></path>
                        <path d="M119.60535,120.573723 L116.695244,118.885973 C116.221479,118.542109 115.937584,117.992485 115.929994,117.404443 L115.929994,106.773247 C115.929994,106.198001 116.269506,105.937512 116.695244,106.187147 L119.60535,107.874897 C120.077127,108.220487 120.360465,108.769032 120.3706,109.356427 L120.3706,119.987623 C120.3706,120.557442 120.025698,120.817931 119.60535,120.573723 Z" id="Path" fill="#E9EAF2" fill-rule="nonzero"></path>
                        <path d="M126.293204,124.464773 L123.410044,122.771596 C122.934413,122.4312 122.648225,121.883028 122.639404,121.295493 L122.639404,85.1364011 C122.639404,84.5611552 122.984306,84.3006665 123.410044,84.5503015 L126.31476,86.2380514 C126.790564,86.5807542 127.076556,87.1305662 127.085399,87.7195811 L127.085399,123.878673 C127.063843,124.448493 126.718942,124.708981 126.293204,124.464773 Z" id="Path" fill="#8C50FF" fill-rule="nonzero"></path>
                        <path d="M142.616742,133.956331 L139.712025,132.263155 C139.236395,131.922759 138.950207,131.374586 138.941386,130.787052 L138.941386,120.150428 C138.941386,119.580609 139.286288,119.320121 139.712025,119.564329 L142.616742,121.257506 C143.093893,121.599026 143.380271,122.149578 143.387381,122.739035 L143.387381,133.370232 C143.387381,133.940051 143.04248,134.20054 142.616742,133.956331 Z" id="Path" fill="#E9EAF2" fill-rule="nonzero"></path>
                        <path d="M149.309985,137.841955 L146.405269,136.148778 C145.928118,135.807258 145.64174,135.256705 145.63463,134.667248 L145.63463,120.557442 C145.63463,119.987623 145.979531,119.727134 146.405269,119.971342 L149.309985,121.659092 C149.785122,122.002379 150.070925,122.551827 150.080625,123.140622 L150.080625,137.277563 C150.080625,137.841955 149.735723,138.09159 149.309985,137.841955 Z" id="Path" fill="#8C50FF" fill-rule="nonzero"></path>
                    </g>
                    <path d="M55.5645851,268.892269 L31.994247,254.776297 C29.3225196,253.169467 29.6551655,250.389048 32.7440203,248.524467 L44.7087126,241.345832 C47.7922872,239.497703 52.4440498,239.278341 55.1316174,240.923559 L78.7019555,255.061468 C81.3736829,256.662813 81.041037,259.448716 77.9521822,261.307813 L65.98749,268.486448 C62.9039153,270.307156 58.2521528,270.537487 55.5645851,268.892269 Z" id="Path" fill="#D6D8E5" fill-rule="nonzero" opacity="0.4"></path>
                    <path d="M92.2468354,251.435635 L92.2468354,218.630522 L41.93165,212.981366 L41.93165,245.991808 L41.93165,245.991808 C41.8999787,247.002654 42.4595055,247.966117 43.7263587,248.682133 L67.2898278,262.254847 C69.9607766,263.792175 74.6270192,263.597377 77.7096952,261.823131 L89.6709006,254.931478 C91.4075452,253.931161 92.2732282,252.64128 92.2204427,251.435635 L92.2468354,251.435635 Z" id="Path" fill="#D6D8E5" fill-rule="nonzero"></path>
                    <path d="M92.2441711,222.295515 L92.2441711,218.567996 L88.3727584,218.567996 L66.8713653,205.680647 C64.1988758,204.074525 59.5299415,204.277345 56.4454872,206.12466 L44.4773819,213.327543 C44.2645255,213.453122 44.058252,213.590356 43.8594347,213.738666 L41.9316508,212.713598 C41.9316508,212.713598 41.9316508,216.654902 41.9316508,216.786461 L41.9316508,216.786461 C41.8999612,217.827974 42.4598108,218.831115 43.7273947,219.576619 L67.3044565,233.70282 C69.9769461,235.303461 74.6458803,235.10064 77.7303347,233.253325 L89.6984399,226.083332 C91.4889023,224.987003 92.3392399,223.616592 92.2388895,222.322923 L92.2441711,222.295515 Z" id="Path" fill="#EDF0F9" fill-rule="nonzero"></path>
                    <path d="M67.3050914,230.345922 L43.7347534,216.206464 C41.063026,214.604322 41.3956719,211.817032 44.4845267,209.951524 L56.4492189,202.774803 C59.5327936,200.920268 64.2003964,200.722743 66.8721238,202.324886 L90.4424618,216.464343 C93.1141892,218.066486 92.7815433,220.853775 89.6926885,222.719284 L77.7279963,229.896005 C74.6444216,231.75054 69.9768188,231.948064 67.3050914,230.345922 Z" id="Path" fill="#E2E5F2" fill-rule="nonzero"></path>
                    <path d="M62.056962,210.462646 L62.056962,208.879057 L61.309347,208.879057 L61.0781766,208.687494 C59.5866294,207.704583 57.8233524,207.704583 56.3318052,208.687494 C56.1912281,208.793795 56.0579389,208.915565 55.9334051,209.051464 L55.3481013,208.879057 L55.3481013,210.462646 C55.4040629,211.243575 55.780106,211.924607 56.3318052,212.244183 C57.8233524,213.227094 59.5866294,213.227094 61.0781766,212.244183 C61.6300242,211.926101 62.0049901,211.243606 62.056962,210.462646 L62.056962,210.462646 Z" id="Path" fill="#6E48E5" fill-rule="nonzero"></path>
                    <ellipse id="Oval" fill="#8C50FF" fill-rule="nonzero" cx="58.7025316" cy="208.78882" rx="3.35443038" ry="2.51552795"></ellipse>
                    <path d="M70.3599346,214.369353 C70.1769204,214.90173 69.8592472,215.336838 69.4596253,215.602481 C67.9682944,216.579711 66.2083437,216.579711 64.7170128,215.602481 C64.3173909,215.336838 63.9997177,214.90173 63.8167035,214.369353 C63.5707174,213.551527 63.8757402,212.676197 64.7170128,212.037271 C66.2083437,211.06004 67.9682944,211.06004 69.4596253,212.037271 C70.3058176,212.644251 70.6059207,213.51958 70.3599346,214.369353 Z" id="Path" fill="#5E42D3" fill-rule="nonzero"></path>
                    <path d="M70.443038,214.661106 C70.2549783,215.11448 69.9285473,215.48502 69.5179084,215.711243 C67.9854634,216.543457 66.1769931,216.543457 64.6445482,215.711243 C64.1315306,215.671523 63.7341772,215.211978 63.7341772,214.658385 C63.7341772,214.104792 64.1315306,213.645247 64.6445482,213.605527 C66.1769931,212.773313 67.9854634,212.773313 69.5179084,213.605527 C69.9293956,213.833122 70.2559314,214.205701 70.443038,214.661106 L70.443038,214.661106 Z" id="Path" fill="#8C50FF" fill-rule="nonzero"></path>
                    <path d="M80.5063291,220.524758 L80.5063291,218.941169 L79.7587141,218.941169 L79.5275437,218.749606 C78.0359965,217.766694 76.2727195,217.766694 74.7811723,218.749606 C74.6418244,218.856011 74.508668,218.975525 74.3827722,219.107191 L73.7974684,218.941169 L73.7974684,220.524758 C73.85343,221.305686 74.2294731,221.986719 74.7811723,222.306295 C76.2727195,223.289206 78.0359965,223.289206 79.5275437,222.306295 C80.0793913,221.988213 80.4543572,221.305718 80.5063291,220.524758 Z" id="Path" fill="#6E48E5" fill-rule="nonzero"></path>
                    <ellipse id="Oval" fill="#8C50FF" fill-rule="nonzero" cx="77.1518987" cy="218.850932" rx="3.35443038" ry="2.51552795"></ellipse>
                    <g id="Men_2" transform="translate(33.544304, 186.149068)" fill-rule="nonzero">
                        <path d="M1.75708258,17.9517857 C1.61332128,19.2 0.15973478,24.5892857 0.447257384,26.4375 C0.734779988,28.2857143 5.82499498,31.3714286 5.82499498,31.3714286 L6.52782801,28.2107143 L3.72714487,25.4464286 L4.48322282,20.2125 L1.75708258,17.9517857 Z" id="_Контур_" fill="#FFCEA9"></path>
                        <path d="M5.67058469,12.6428571 C4.65296623,12.1655786 3.4413834,12.5319737 2.85392807,13.4946429 C2.1084991,14.7375 1.33644766,18.9910714 1.25658027,19.7196429 C1.25658027,19.7196429 2.3214788,21.1714286 3.87090617,20.9303571 L5.67058469,12.6428571 Z" id="_Контур_2" fill="#EDEDED"></path>
                        <path d="M11.4476592,72.7285714 C12.5491904,73.0335667 13.7258273,72.8891945 14.7222222,72.3267857 C15.5102471,72.3535714 19.7964637,70.5053571 20.3768334,72.0535714 C20.9092827,73.4142857 19.0297368,74.6678571 18.0393812,74.9089286 C15.8776371,75.4446429 14.2802893,76.5160714 13.4070725,76.7089286 C12.7628089,76.8428571 11.9215391,76.9339286 11.4103878,76.4196429 C10.7874221,75.8089286 10.8406671,73.5375 11.4476592,72.7285714 Z" id="Path" fill="#38226D"></path>
                        <path d="M13.4070725,76.3285714 C14.2802893,76.1464286 15.8776371,75.0589286 18.0393812,74.5339286 C18.870002,74.3303571 20.3022905,73.4196429 20.4460518,72.3267857 C20.6377336,73.575 18.9658429,74.6839286 18.0393812,74.9089286 C15.8776371,75.4446429 14.2802893,76.5160714 13.4070725,76.7089286 C12.7628089,76.8428571 11.9215391,76.9339286 11.4103878,76.4196429 C11.270368,76.2689094 11.1713399,76.0843995 11.1228652,75.8839286 C11.7706617,76.3891911 12.618716,76.554273 13.4070725,76.3285714 Z" id="Path" fill="#9C73FF"></path>
                        <path d="M4.5045208,69.5892857 C5.60535804,69.8959039 6.78195924,69.753461 7.77908379,69.1928571 C8.5671087,69.1928571 12.8480008,67.3714286 13.433695,68.9196429 C13.9661443,70.275 12.0865984,71.5285714 11.0962427,71.775 C8.93449869,72.3107143 7.3318264,73.3821429 6.4639341,73.5696429 C5.81434599,73.7035714 4.97840064,73.7946429 4.46192485,73.2857143 C3.84428371,72.6696429 3.89752863,70.3982143 4.5045208,69.5892857 Z" id="Path" fill="#38226D"></path>
                        <path d="M6.4639341,73.1946429 C7.3318264,73.0071429 8.93449869,71.925 11.0962427,71.3946429 C11.9268636,71.1964286 13.3591521,70.2803571 13.5029134,69.1928571 C13.6945951,70.4410714 12.0227044,71.5446429 11.0962427,71.775 C8.93449869,72.3107143 7.3318264,73.3821429 6.4639341,73.5696429 C5.81434599,73.7035714 4.97840064,73.7946429 4.46192485,73.2857143 C4.32692736,73.1322123 4.23019414,72.9485776 4.17972674,72.75 C4.8293124,73.2512743 5.67539598,73.4159726 6.4639341,73.1946429 L6.4639341,73.1946429 Z" id="Path" fill="#9C73FF"></path>
                        <path d="M4.41932891,57.8839286 C4.60381052,56.2837626 4.93353069,54.7039532 5.40436006,53.1642857 C5.40436006,53.1642857 5.11151296,49.0928571 4.96242716,45.2303571 C4.79736789,40.8482143 3.28521198,36.9910714 4.47789833,33.4982143 L17.9115933,36.5035714 C17.9115933,36.5035714 17.1022704,53.9732143 16.9212377,56.0839286 C16.8237574,57.7307742 16.6228,59.3697633 16.31957,60.9910714 C15.7072534,64.3821429 14.7222222,72.45 14.7222222,72.45 C13.3059072,73.2803571 11.4370102,72.8196429 11.4370102,72.8196429 C11.4370102,72.8196429 11.5435001,62.6410714 11.6340165,60.1767857 C11.7458308,57.1928571 11.8363472,57.4178571 11.8363472,57.4178571 L11.3890898,49.9875 L11.1015672,46.2910714 C11.1015672,46.2910714 10.7288527,49.0017857 10.4839261,51.4285714 C10.2762708,53.5392857 9.77044404,55.4517857 9.20072333,59.3839286 C8.71087,62.7964286 7.9121961,69.6535714 7.9121961,69.6535714 C6.49055656,70.4839286 4.56309021,69.7928571 4.56309021,69.7928571 C4.56309021,69.7928571 4.03596544,60.8410714 4.41932891,57.8839286 Z" id="_Контур_3" fill="#8C50FF"></path>
                        <path d="M6.3893912,12.7125 C7.41701828,12.7660714 8.17842074,13.0285714 8.30620856,12.7125 C8.41286672,12.1816068 8.48930886,11.6450192 8.53516174,11.1053571 C8.41802291,10.8053571 8.31685754,10.4839286 8.31685754,10.4839286 C7.03365481,9.69107143 6.62899337,8.29285714 6.4586096,6.66428571 C6.171087,3.88392857 7.66194495,1.45178571 10.4253566,1.1625 C13.0237091,0.889285714 14.9405264,2.72678571 15.4463532,5.25 C15.7232268,6.49285714 16.2716496,8.85 15.5315451,10.8964286 C15.1162347,12.0428571 14.5837854,12.9535714 14.0513361,13.1303571 C13.536189,13.1135034 13.0224227,13.0669988 12.5125578,12.9910714 L12.5125578,12.9910714 C12.5125578,12.9910714 12.374121,13.7625 12.2782801,14.2553571 C12.1824392,14.7482143 12.2197107,15.0160714 13.1994173,15.6214286 C14.179124,16.2267857 11.7138839,17.4964286 10.1165361,17.3732143 C8.51918827,17.25 6.69821177,16.275 6.19770946,15.2303571 C5.62798875,14.0571429 5.67590918,12.6803571 6.3893912,12.7125 Z" id="_Контур_4" fill="#FFCEA9"></path>
                        <path d="M7.85895118,12.8571429 C7.57675306,13.5696429 8.29555957,14.4642857 10.2177014,15.0428571 C12.1398433,15.6214286 12.3155515,14.8714286 12.3155515,14.8714286 C13.5923802,15.446526 14.8366575,16.0921525 16.0426964,16.8053571 C17.1981113,17.6196429 17.7092626,19.9660714 17.8636729,23.9303571 C18.0447056,28.5160714 18.0606791,35.3196429 17.9062688,36.4928571 C17.9062688,36.4928571 15.7764718,38.6357143 12.9917621,38.4267857 C10.2070524,38.2178571 5.59604179,35.7482143 4.47257384,33.8464286 C4.5045208,29.8232143 4.97307615,29.1696429 4.32348805,26.8553571 C2.84327908,21.5517857 2.06590315,19.3553571 2.78470966,15.8571429 C3.37572835,12.9482143 4.20634921,12.5892857 5.35111513,12.6160714 C6.19082433,12.6500595 7.02803674,12.7305385 7.85895118,12.8571429 L7.85895118,12.8571429 Z" id="_Контур_5" fill="#F4F4F4"></path>
                        <path d="M22.2084589,27.7339286 C19.940225,28.3071429 19.4131003,26.8714286 19.1149287,25.6821429 C18.3907977,22.8 18.0074342,20.2017857 17.4696604,18.5678571 C16.8360458,16.6392857 16.1704842,16.3339286 15.2440225,15.9589286 C14.179124,15.5142857 13.2100663,16.4464286 13.5721318,18.9 C14.018921,21.7469408 14.7137838,24.5488138 15.6486839,27.2732143 C15.9308821,28.1678571 16.5591722,29.7589286 17.5069319,30.5303571 C18.6729958,31.4785714 20.4354029,31.4410714 23.0976492,30.7767857 C24.2317661,30.4875 25.4776974,29.8071429 27.623468,28.8 C28.1985132,28.5321429 28.6457705,28.35 29.753265,27.8303571 C30.8653361,27.3308155 31.8394861,26.565841 32.5912196,25.6017857 C33.1715893,24.7553571 33.2461322,24.3589286 33.1236689,24.1660714 C33.0012055,23.9732143 32.7136829,23.9785714 32.4048624,24.3375 C31.9566738,24.9372125 31.4047595,25.450773 30.7755676,25.8535714 C30.7755676,25.8535714 31.4890496,25.1089286 31.8777376,24.6267857 C32.2250029,24.1979555 32.5133377,23.7240607 32.7349809,23.2178571 C32.9373116,22.725 32.5166767,22.0553571 32.2025316,22.4089286 C31.8883866,22.7625 31.7286518,23.1160714 31.1376331,23.8232143 C30.8242415,24.2008206 30.4666887,24.5389812 30.0727346,24.8303571 C30.4362814,24.3365448 30.758624,23.8133337 31.0364678,23.2660714 C31.2872083,22.8386053 31.4110042,22.347821 31.3932088,21.8517857 C31.3932088,21.5946429 31.0151698,21.2892857 30.6744023,21.7767857 C30.3454487,22.4465683 29.9378797,23.0742606 29.4604179,23.6464286 C28.9279687,24.1821429 28.5020092,24.4928571 28.4913603,24.3428571 C28.4807113,24.1928571 28.8001808,23.8982143 28.9865381,23.2714286 C29.1728953,22.6446429 28.9865381,21.975 28.6404461,21.9053571 C28.294354,21.8357143 28.3635724,21.8517857 28.1079968,22.4410714 C27.7265327,23.0455139 27.38331,23.6735444 27.0803697,24.3214286 C26.9022237,24.9245109 26.5826584,25.4756964 26.1485835,25.9285714 C25.5895118,26.5285714 24.3595539,27.1875 22.2084589,27.7339286 Z" id="_Контур_6" fill="#FFCEA9"></path>
                        <path d="M14.4027527,15.5625 C15.9149086,15.3375 16.9851316,16.0232143 17.6506932,18.3267857 C18.3162548,20.6303571 18.7848101,22.5 18.7848101,22.5 C18.1875259,23.3684991 17.2826307,23.974184 16.2556761,24.1928571 C14.4453486,24.6375 13.7957605,23.7642857 13.7957605,23.7642857 C13.7957605,23.7642857 13.2952582,21.3535714 12.9811131,19.7089286 C12.6669681,18.0642857 12.5338557,15.8410714 14.4027527,15.5625 Z" id="_Контур_7" fill="#EDEDED"></path>
                        <path d="M15.3505124,4.89107143 C15.3505124,4.89107143 17.7358851,1.2375 12.5604782,0.492857143 C8.83333333,-0.0428571429 6.43198714,2.36785714 6.171087,4.9875 C5.90486237,7.48928571 7.43831625,10.0875 8.54048624,11.1160714 C9.62692834,11.3942351 10.7774218,11.2547944 11.7671288,10.725 C11.8305307,10.0448316 11.8554185,9.36158463 11.8416717,8.67857143 C11.8416717,8.67857143 10.0047217,4.82142857 15.3505124,4.89107143 Z" id="Path" fill="#3A2C6D"></path>
                    </g>
                    <ellipse id="Oval" fill="#D6D8E5" fill-rule="nonzero" opacity="0.4" cx="206.297468" cy="254.068323" rx="13.4177215" ry="7.54658385"></ellipse>
                    <g id="Girl_14" transform="translate(189.525316, 179.440994)" fill-rule="nonzero">
                        <path d="M17.5380802,1.2608867 C18.0971519,0.393694581 22.4579114,-0.1808867 23.889135,3.32512315 C24.4482068,4.65517241 24.3475738,8.05477833 24.8004219,10.1881773 C25.25327,12.3215764 26.321097,13.5345813 26.7068565,15.2636453 C27.092616,16.9927094 26.4664557,19.8975369 22.0777426,20.4135961 C17.6890295,20.9296552 14.317827,19.4612808 13.2835443,18.1312315 C12.2492616,16.8011823 12.2268987,13.9708374 13.2835443,12.4492611 C14.3401899,10.9276847 15.1787975,9.69871921 15.1508439,7.71960591 L17.5380802,1.2608867 Z" id="_Контур_8" fill="#3A2C6D"></path>
                        <path d="M20.4117089,0.659704433 C20.4117089,0.659704433 17.1355485,-0.239408867 15.1508439,1.4417734 C13.8181618,2.61361232 13.2796598,4.39282227 13.7531646,6.05970443 C14.0159283,7.04394089 14.5470464,8.38463054 15.3688819,8.4591133 C16.1907173,8.53359606 20.4117089,0.659704433 20.4117089,0.659704433 Z" id="_Контур_9" fill="#3A2C6D"></path>
                        <path d="M21.6640295,9.15605911 C21.6640295,9.15605911 21.4459916,12.6248276 21.5130802,12.880197 C21.5801688,13.1355665 22.9443038,13.4122167 23.3300633,13.688867 C23.7158228,13.9655172 21.3453586,17.5140887 20.1433544,18.035468 C18.9413502,18.5568473 15.2123418,17.2214778 14.9495781,15.4604926 C14.7147679,13.8325123 16.0174051,12.5716256 16.5205696,12.1300493 C16.8624525,12.0992469 17.2061254,12.0903599 17.5492616,12.1034483 L17.6610759,10.422266 C19.2935654,9.92748768 21.6640295,9.15605911 21.6640295,9.15605911 Z" id="_Контур_10" fill="#FFCEA9"></path>
                        <path d="M12.8586498,15.7158621 C12.8586498,15.6147783 12.2995781,15.8967488 12.2995781,15.902069 C12.2995781,15.9073892 12.0368143,24.813399 11.5783755,25.622069 L11.5783755,25.622069 C10.4099156,27.5107389 7.31824895,30.7134975 7.2399789,31.0699507 C7.01075949,32.1339901 7.67046414,31.1816749 8.73270042,31.0699507 C9.33090717,31.0007882 12.8474684,27.6171429 13.6357595,26.8457143 L13.6860759,26.8723153 L13.6860759,26.7871921 L13.7867089,26.6861084 C13.8066407,26.445299 13.8066407,26.2033709 13.7867089,25.9625616 C15.2682489,16.2851232 13.468038,15.6413793 12.8586498,15.7158621 Z" id="Path" fill="#FFCEA9"></path>
                        <path d="M22.1616034,13.2206897 C23.1902954,13.3696552 24.3587553,13.8910345 24.5208861,14.4230542 C24.9441476,16.3481047 24.8440837,18.3441042 24.2301688,20.222069 C23.3412447,22.4565517 22.743038,23.8770443 22.228692,24.84 C22.228692,24.84 17.7952532,26.648867 14.2171941,24.5367488 C14.2171941,24.5367488 13.9712025,22.1426601 13.9544304,20.8604926 C10.6559072,18.1205911 13.4792194,14.742266 16.2745781,12.1194089 C16.6093209,12.0902406 16.9461643,12.0902406 17.2809072,12.1194089 C17.2809072,12.1194089 14.7874473,14.9284729 16.5205696,16.524532 C20.2383966,15.4285714 20.9763713,13.8325123 22.1616034,13.2206897 Z" id="_Контур_11" fill="#F4F4F4"></path>
                        <path d="M14.8489451,4.8520197 L14.8489451,4.8520197 C15.2123418,2.62285714 16.9063291,0.93635468 19.321519,1.06935961 C21.3174209,1.17187886 23.0207058,2.47773237 23.5507025,4.311738 C24.0806992,6.14574363 23.3185984,8.09677247 21.6584388,9.15605911 C21.5751046,9.49372413 21.4493397,9.82060974 21.2838608,10.1296552 C20.428481,11.0766502 18.1530591,11.6778325 17.403903,11.6884729 C16.7553797,11.6884729 16.196308,11.1192118 15.5869198,10.1615764 C14.3234177,8.16650246 14.6476793,5.95330049 14.8489451,4.8520197 Z" id="_Контур_12" fill="#FFCEA9"></path>
                        <path d="M20.0762658,1.11192118 C21.753481,1.42581281 23.1623418,1.88334975 23.6263713,3.46344828 C23.9394515,4.55940887 24.3531646,6.6555665 23.9618143,7.51211823 L23.7158228,8.14522167 L21.6640295,9.15605911 C21.6640295,9.15605911 20.7024262,8.39527094 21.0043249,6.16610837 C20.9926163,5.86543626 20.8918363,5.57403709 20.7136076,5.32551724 C20.585278,5.11434745 20.4892682,4.88683293 20.428481,4.64985222 C20.184894,4.04771916 19.708974,3.55676955 19.0978903,3.27724138 C17.5716245,2.46325123 15.3353376,3.16551724 15.0222574,3.46344828 C15.9131204,1.64325783 18.0196117,0.663150345 20.0762658,1.11192118 L20.0762658,1.11192118 Z" id="Path" fill="#3A2C6D"></path>
                        <path d="M23.1623418,71.657734 C22.3013713,72.3227586 20.9651899,71.8652217 20.9260549,71.9237438 C19.9240656,72.7411002 18.8751208,73.5048391 17.7840717,74.2114286 C17.225,74.6104433 16.414346,75.1477833 16.5652954,75.9138916 C16.8336498,77.2918227 19.1482068,76.8715271 20.0203586,76.4459113 C20.8925105,76.0202956 21.6081224,75.32867 22.4355485,74.8498522 C23.0225738,74.5040394 23.6040084,74.3178325 23.6990506,73.6155665 C23.7270042,73.1739901 23.3132911,71.6417734 23.1623418,71.657734 Z" id="Path" fill="#38226D"></path>
                        <path d="M23.6655063,73.3176355 C23.5481013,73.9986207 22.9778481,74.1848276 22.3908228,74.5306404 C21.5522152,75.0254187 20.8142405,75.7436453 19.9420886,76.1639409 C19.0699367,76.5842365 17.1187764,76.9353695 16.5541139,75.9564532 C16.8616034,77.2811823 19.1370253,76.8662069 19.9979958,76.4459113 C20.8589662,76.0256158 21.5857595,75.32867 22.4131857,74.8498522 C23.000211,74.5040394 23.5816456,74.3178325 23.6766878,73.6155665 C23.6811007,73.5161305 23.6773622,73.4165185 23.6655063,73.3176355 L23.6655063,73.3176355 Z" id="Path" fill="#9C73FF"></path>
                        <path d="M17.1411392,70.5138916 C16.3528481,71.1257143 15.167616,70.7799015 15.1117089,70.8384236 C14.1931546,71.5813381 13.2339376,72.2774836 12.2380802,72.9239409 C11.746097,73.2910345 10.9801688,73.7804926 11.1199367,74.4827586 C11.3659283,75.7436453 13.4848101,75.3552709 14.2898734,74.9722167 C15.0949367,74.5891626 15.7378692,73.9454187 16.4982068,73.4985222 C17.0572785,73.1793103 17.5660338,73.0143842 17.6498945,72.3653202 C17.7058017,71.9716256 17.2809072,70.497931 17.1411392,70.5138916 Z" id="Path" fill="#38226D"></path>
                        <path d="M17.6443038,72.1046305 C17.5380802,72.7270936 17.0125527,72.8973399 16.4758439,73.2112315 C15.7099156,73.6687685 15.0334388,74.3231527 14.239557,74.7115271 C13.4456751,75.0999015 11.6566456,75.4191133 11.1367089,74.52 C11.4162447,75.7330049 13.5015823,75.3552709 14.2954641,74.9722167 C15.089346,74.5891626 15.7434599,73.9454187 16.5037975,73.4985222 C17.0628692,73.1793103 17.5716245,73.0143842 17.6554852,72.3653202 C17.6626795,72.27831 17.6589257,72.1907934 17.6443038,72.1046305 L17.6443038,72.1046305 Z" id="Path" fill="#9C73FF"></path>
                        <path d="M12.5120253,32.5276847 C12.8921941,29.7079803 13.982384,25.6114286 13.982384,25.6114286 C15.0130604,26.0695207 16.1278599,26.3315723 17.264135,26.3828571 C18.9303252,26.3773414 20.5923546,26.2241677 22.228692,25.9253202 C22.7622105,26.813369 23.3463816,27.6729785 23.9785865,28.5002956 C24.8339662,29.6281773 26.4944093,32.0967488 26.0918776,36.4114286 C25.8291139,39.231133 24.1686709,51.2068966 24.1686709,51.2068966 C24.8153615,53.2202534 25.1598011,55.3104784 25.1917722,57.4155665 C25.0349868,59.918998 24.6874492,62.4082975 24.1518987,64.8638424 L23.1623418,71.657734 C23.1623418,71.657734 21.8429325,72.5674877 20.9260549,71.9237438 L21.0434599,65.2734975 C20.9316456,63.6455172 20.7583333,61.2461084 20.6521097,59.7138916 C20.4732068,57.213399 20.0035865,53.2498522 19.8694093,52.2656158 C19.7352321,51.2813793 19.399789,49.5416749 19.2376582,47.6051232 C19.0755274,45.6685714 18.3151899,35.8102463 18.3151899,35.8102463 L18.2089662,37.6563547 C18.2089662,37.6563547 18.1027426,40.6516256 17.6498945,44.3491626 C17.1970464,48.0466995 17.0405063,49.6693596 17.0405063,49.6693596 C17.4696852,50.4150265 17.769838,51.2216144 17.9294304,52.0581281 C18.0077004,52.8561576 18.9637131,59.1765517 18.3934599,62.3899507 L17.2138186,70.5670936 C16.6203972,70.9591572 15.8645001,71.054274 15.1843882,70.8224631 L14.4911392,62.5814778 C14.0271097,59.4478818 13.0431435,52.8029557 12.8921941,51.9410837 C12.5567406,50.2001714 12.3586489,48.4378129 12.2995781,46.6687685 C12.0535865,43.0935961 12.1318565,35.342069 12.5120253,32.5276847 Z" id="Path" fill="#FFCEA9"></path>
                        <path d="M22.228692,24.84 L24.7780591,29.7079803 C24.7780591,29.7079803 28.6915612,35.1239409 24.6382911,49.0468966 L25.393038,53.3456158 C25.393038,53.3456158 17.7672996,58.0007882 12.6629747,53.3456158 C12.6629747,53.3456158 10.896308,40.4760591 11.8355485,34.5440394 C12.3611196,31.135056 13.155378,27.7685167 14.2116034,24.4729064 C14.2116034,24.4729064 15.4639241,25.7869951 21.8932489,24.919803" id="Path" fill="#8C50FF"></path>
                        <path d="M16.2745781,12.1194089 C16.2745781,12.1194089 14.2507384,11.528867 12.0983122,15.8009852 L12.9033755,16.2585222 C12.9033755,16.2585222 15.0222574,13.2153695 16.2745781,12.1194089 Z" id="Path" fill="#EDEDED"></path>
                        <polygon id="Path" fill="#F4F4F4" points="0.469620253 35.2675862 9.17995781 30.4528079 15.4303797 33.884335 6.72004219 38.7044335"></polygon>
                        <path d="M8.05622363,30.8039409 C7.50991352,30.856061 6.98176726,31.0193576 6.50759494,31.2827586 C6.33342411,31.4273983 6.1463618,31.5573462 5.94852321,31.671133 C5.86466245,31.7083744 5.78080169,31.7615764 5.69135021,31.7988177 C5.55813975,31.8452793 5.43772096,31.9198551 5.33913502,32.0169458 C5.24185552,32.153645 5.18932762,32.3147117 5.18818565,32.479803 C5.14358307,32.6772375 5.13226022,32.8801661 5.15464135,33.0809852 C5.23291139,33.3789163 5.557173,33.3523153 5.71371308,33.1448276 C5.79868355,33.0409917 5.84753771,32.9145383 5.85348101,32.7830542 C5.86302465,32.5280151 6.00017083,32.2927015 6.22246835,32.1499507 L8.30221519,30.9209852 C8.25293611,30.8379205 8.1556218,30.7916177 8.05622363,30.8039409 L8.05622363,30.8039409 Z" id="Path" fill="#FFCEA9"></path>
                        <path d="M24.6271097,15.9605911 C24.3419831,14.8327094 23.4139241,15.1944828 22.6144515,14.5347783 C20.7639241,17.0299507 21.9938819,23.7759606 22.2454641,24.4941872 L15.1340717,28.808867 L15.1340717,28.808867 L14.65327,29.0908374 C13.8438662,29.5968826 12.9495168,29.9675407 12.0088608,30.186798 C11.2988397,30.266601 10.9298523,31.2189163 10.1695148,31.3040394 C10.0508812,31.3081114 9.94625241,31.3791682 9.90363775,31.4846051 C9.8610231,31.590042 9.88864918,31.7095047 9.97383966,31.7881773 C10.2757384,32.0648276 11.0919831,31.8360591 11.6510549,31.2189163 C11.6483214,31.2329842 11.6483214,31.2474099 11.6510549,31.2614778 C11.6602695,31.4621946 11.7789838,31.6437535 11.964135,31.7402956 C12.0049459,31.7638679 12.0508009,31.7784133 12.0983122,31.7828571 C12.0981094,31.8281243 12.1117032,31.8724764 12.1374473,31.9105419 C12.2192307,32.0691699 12.3784368,32.1788099 12.5623418,32.2031527 L12.5623418,32.2031527 C12.6442714,32.4273495 12.8723618,32.5727755 13.1214135,32.5596059 C13.2845555,32.5518301 13.4384709,32.4852538 13.5518987,32.373399 C14.1583338,32.1532683 14.6940113,31.7865363 15.1061181,31.3093596 C15.4703412,30.9493188 15.8548009,30.6083262 16.2578059,30.2878818 C18.1866034,29.4951724 23.9729958,27.1436453 24.2301688,26.8084729 C24.6327004,26.3030542 25.0408228,17.5566502 24.6271097,15.9605911 Z" id="Path" fill="#FFCEA9"></path>
                        <path d="M25.2756329,18.9877833 C25.2756329,18.9877833 23.000211,19.9560591 21.1105485,19.0516256 L21.3844937,15.6626601 C21.3844937,15.6626601 21.4124473,13.8431527 23.117616,13.662266 C24.8227848,13.4813793 25.7172996,15.5615764 25.2756329,18.9877833 Z" id="Path" fill="#EDEDED"></path>
                    </g>
                </g>
            </g>
        </g>
    </g>
</svg>