<?xml version="1.0" encoding="UTF-8"?>
<svg width="37px" height="37px" viewBox="0 0 37 37" version="1.1" xmlns="http://www.w3.org/2000/svg" xmlns:xlink="http://www.w3.org/1999/xlink">
    <!-- Generator: Sketch 61.2 (89653) - https://sketch.com -->
    <title>dots-bg</title>
    <desc>Created with Sketch.</desc>
    <g id="Personal-1-mixed" stroke="none" stroke-width="1" fill="none" fill-rule="evenodd" opacity="0.100000001">
        <g transform="translate(-350.000000, -990.000000)" fill="#454360" id="about">
            <g transform="translate(350.000000, 990.000000)">
                <g id="section-title">
                    <g id="dots-bg">
                        <rect id="Rectangle" x="0" y="0" width="4" height="4" rx="2"></rect>
                        <rect id="Rectangle-Copy" x="11" y="0" width="4" height="4" rx="2"></rect>
                        <rect id="Rectangle-Copy-2" x="22" y="0" width="4" height="4" rx="2"></rect>
                        <rect id="Rectangle-Copy-3" x="33" y="0" width="4" height="4" rx="2"></rect>
                        <rect id="Rectangle-Copy-7" x="0" y="11" width="4" height="4" rx="2"></rect>
                        <rect id="Rectangle-Copy-6" x="11" y="11" width="4" height="4" rx="2"></rect>
                        <rect id="Rectangle-Copy-5" x="22" y="11" width="4" height="4" rx="2"></rect>
                        <rect id="Rectangle-Copy-4" x="33" y="11" width="4" height="4" rx="2"></rect>
                        <rect id="Rectangle-Copy-15" x="0" y="22" width="4" height="4" rx="2"></rect>
                        <rect id="Rectangle-Copy-14" x="11" y="22" width="4" height="4" rx="2"></rect>
                        <rect id="Rectangle-Copy-13" x="22" y="22" width="4" height="4" rx="2"></rect>
                        <rect id="Rectangle-Copy-12" x="33" y="22" width="4" height="4" rx="2"></rect>
                        <rect id="Rectangle-Copy-11" x="0" y="33" width="4" height="4" rx="2"></rect>
                        <rect id="Rectangle-Copy-10" x="11" y="33" width="4" height="4" rx="2"></rect>
                        <rect id="Rectangle-Copy-9" x="22" y="33" width="4" height="4" rx="2"></rect>
                        <rect id="Rectangle-Copy-8" x="33" y="33" width="4" height="4" rx="2"></rect>
                    </g>
                </g>
            </g>
        </g>
    </g>
</svg>