<svg version="1.2" xmlns="http://www.w3.org/2000/svg" viewBox="0 0 3000 3000" width="3000" height="3000">
	<title>vecteezy_alphabet-letters-initials-monogram-logo-sg-gs-s-and-g_7731788-ai</title>
	<style>
		.s0 { fill: #ffffff } 
		.s1 { fill: #ffa500 } 
	</style>
	<g id="Layer 1">
		<path id="&lt;Path&gt;" class="s0" d="m869.7 1668q-98.8-116.6-153.6-283.3-73.8-223.7-34.5-419c26.2-130.1 77.8-244 154.8-341.6 76.9-97.6 171.7-175.7 284.5-234.5 112.6-58.7 231.2-91.2 355.9-97.6 124.5-6.3 247.5 17.1 368.9 70.2 121.5 53.2 229 142.5 322.6 267.9l-235.7 173.7q-80.9-107.1-186.9-159.5-105.9-52.3-216.6-57.1c-73.8-3.1-146 8.8-216.6 35.7q-106 40.5-185.7 116.7-79.8 76.2-125 185.7c-30.1 73-41.3 153.9-33.3 242.8 3.3 37.9 9.8 73.6 18.9 107.4-27.5 45.9-49.8 96.7-66.2 152-24.1 80.7-27.5 161.1-10.3 238.7 5.2 23.4 12.5 46.1 21.5 68.2-21.7-20.7-42.6-42.7-62.7-66.4z"/>
		<path id="&lt;Path&gt;" class="s1" d="m1980.2 1368h-535.7-42.3c-39.1 9.5-71.2 22.8-95.9 39.8-23.8 17.5-40.9 37.3-51.2 59.5q-15.5 33.4-17.8 66.7c0 42.8 13.4 80.1 40.4 111.9 12.7 14.2 29 27 48.8 38 19.8 11.2 45.6 20.7 77.4 28.6 31.7 8 67.8 15.9 108.3 23.8 40.5 8 83.7 15.9 129.8 23.8 46 9.5 91.6 20.7 136.8 33.3 45.3 12.8 87.7 28.6 127.4 47.7q121.4 61.9 188.1 157.1c42.8 68.2 68.2 140.4 76.1 216.6q7.2 109.5-38 214.3-21.5 47.6-53.6 89.2c-21.4 27.8-50.4 52.8-86.9 75q-54.8 33.4-127.4 58.3-72.6 25-134.5 39.3c-39.6 8-74.2 13.1-103.5 15.5-29.4 2.4-59.9 2.8-91.7 1.2-31.7-1.6-65.1-3.6-100-6q-52.4-3.5-104.7-10.7c-33.3-4.7-67.1-11.5-101.2-20.2-34.1-8.7-72.6-22.6-115.4-41.7q-42.9-19-94.1-44-51.2-25-113-63.1l116.6-269c82.5 52.4 159.9 89.7 232.1 111.9q108.3 33.3 210.7 40.5c77.7 7.9 150 5.9 216.6-6 66.7-11.9 116.7-33.7 150-65.5q52.3-47.5 42.9-114.2c-6.4-44.5-39-81-97.6-109.5q-42.9-21.4-104.8-34.6-61.9-13-132.1-25-70.2-11.8-141.7-27.3-71.4-15.5-135.7-39.3c-85.7-31.7-155.5-76.2-209.5-133.3q-80.9-85.7-104.7-192.9c-15.9-71.4-12.7-144.4 9.5-219 22.2-74.6 54.8-139.6 97.6-195.2 42.9-55.5 94.4-97.6 154.8-126.1 55.3-26.3 194.2-42.2 194.2-42.2h924.9c0 8 0.4 47.3 1.2 117.9q1.2 105.9-56 247.6-57.1 141.6-153.5 246.3c-49.3 53.6-104.5 99.2-165.5 136.9-10.8-6.3-21.8-12.4-33.2-18.2-41.5-19.9-86.5-36.7-133.8-50-46.1-12.9-93-24.3-139.5-34l-1.3-0.2c-45.9-7.9-89.2-15.9-128.8-23.7-40-7.8-75.8-15.6-106.4-23.3-28.2-7.1-51-15.4-67.8-24.8-13.3-7.4-24.4-15.7-33.1-24.3 27.9 10.4 56.8 18.7 86.9 24.8q111.8 22.6 220.2 0c72.2-15.1 140-45.7 203.5-91.7q95.2-69 157.1-190.5z"/>
	</g>
</svg>