<?xml version="1.0" encoding="UTF-8"?>
<svg width="70px" height="81px" viewBox="0 0 70 81" version="1.1" xmlns="http://www.w3.org/2000/svg" xmlns:xlink="http://www.w3.org/1999/xlink">
    <!-- Generator: Sketch 61.2 (89653) - https://sketch.com -->
    <title>idea</title>
    <desc>Created with Sketch.</desc>
    <g id="Personal-1-mixed" stroke="none" stroke-width="1" fill="none" fill-rule="evenodd">
        <g transform="translate(-490.000000, -3881.000000)" fill-rule="nonzero" id="price">
            <g transform="translate(350.000000, 3692.000000)">
                <g id="1" transform="translate(10.000000, 159.000000)">
                    <g id="idea" transform="translate(130.000000, 30.000000)">
                        <path d="M44.301373,61.5151515 C45.3157239,58.1376863 47.3444258,55.0979202 50.0494145,52.7335521 C55.1211692,48.5116018 58.3333333,42.0943705 58.3333333,35.0015828 C58.3333333,21.8292628 47.3445843,11.0211525 33.8197994,11.6967089 C21.8165409,12.2033366 12.0110956,22.3358905 11.6730314,34.3260264 C11.5039201,41.7566715 14.7160843,48.3428315 19.9569503,52.7335521 C22.8308918,55.0977619 24.8595937,58.137528 25.8739446,61.5151515 L44.301373,61.5151515 L44.301373,61.5151515 Z" id="Path" fill="#FFD15C"></path>
                        <path d="M33.2340982,61.5151515 L34.7311964,61.5151515 L28.0773748,36.763376 C28.243771,36.763376 28.4100113,36.763376 28.5764075,36.763376 C29.4080767,36.763376 30.2399019,36.4311886 30.9051749,35.7666581 C31.2378114,35.4344708 31.5706038,35.2682992 32.0696365,35.2682992 C32.5686693,35.2682992 32.9013058,35.4344708 33.2340982,35.7666581 C34.3985599,37.0955634 36.3946907,37.0955634 37.5589965,35.7666581 C37.891633,35.4344708 38.2244254,35.2682992 38.7234581,35.2682992 C39.0560946,35.2682992 39.5551273,35.4344708 39.8879198,35.7666581 C40.5533487,36.4311886 41.2186217,36.763376 42.2166872,36.763376 C42.3830834,36.763376 42.5493237,36.763376 42.7157199,36.763376 L36.2282945,61.5151515 L37.7253927,61.5151515 L44.5454545,35.6004866 C44.5454545,35.2682992 44.5454545,34.9359561 44.212818,34.7699403 C43.8801816,34.6037687 43.5473891,34.7699403 43.3811488,34.9361118 C43.0485123,35.2682992 42.7157199,35.4344708 42.3830834,35.4344708 C41.8840507,35.4344708 41.5514142,35.2682992 41.0523815,34.9361118 C40.3869525,34.2715813 39.7216795,33.9393939 38.8898543,33.9393939 C38.0580292,33.9393939 37.3927562,34.2715813 36.7273272,34.9361118 C36.0618983,35.6006423 35.0638329,35.6006423 34.3985599,34.9361118 C33.8995271,34.2715813 33.0678579,33.9393939 32.2360328,33.9393939 L32.2360328,33.9393939 C31.4043635,33.9393939 30.5725384,34.2715813 30.0735057,34.9361118 C29.7408692,35.2682992 29.2418364,35.4344708 28.7428037,35.4344708 C28.4101672,35.4344708 27.9111345,35.2682992 27.7447383,34.9361118 C27.5783421,34.7699403 27.2457056,34.6039244 26.9130691,34.7699403 C26.5804326,34.9361118 26.4140363,35.2682992 26.5804326,35.6004866 L33.2340982,61.5151515 Z" id="Path" fill="#FFFFFF"></path>
                        <g id="Group" transform="translate(26.515152, 61.515152)" fill="#344A5E">
                            <path d="M3.84230381,15.585693 C4.6643007,17.5886736 6.63684667,19.0909091 8.93809894,19.0909091 C11.2393512,19.0909091 13.2118972,17.5886736 14.0338941,15.585693 L3.84230381,15.585693 Z" id="Path"></path>
                            <path d="M15.0201671,15.7526602 L3.02046102,15.7526602 C1.37662134,15.7526602 0.0616420616,14.417392 0.0616420616,12.7481893 L0.0616420616,0.0625931446 L17.978986,0.0625931446 L17.978986,12.7481893 C17.978986,14.4172355 16.6638526,15.7526602 15.0201671,15.7526602 Z" id="Path"></path>
                        </g>
                        <g id="Group" transform="translate(24.393939, 64.696970)" fill="#415A6B">
                            <path d="M20.3,3.68469941 L1.97272727,3.68469941 C0.954545455,3.68469941 0.106113636,2.86363636 0.106113636,1.87829912 L0.106113636,1.87829912 C0.106113636,0.892961877 0.954545455,0.071898827 1.97272727,0.071898827 L20.3,0.071898827 C21.3181818,0.071898827 22.1666136,0.892961877 22.1666136,1.87829912 L22.1666136,1.87829912 C22.1666136,2.86363636 21.3181818,3.68469941 20.3,3.68469941 Z" id="Path"></path>
                            <path d="M20.3,9.43260264 L1.97272727,9.43260264 C0.954545455,9.43260264 0.106113636,8.61153959 0.106113636,7.62620235 L0.106113636,7.62620235 C0.106113636,6.6408651 0.954545455,5.81980205 1.97272727,5.81980205 L20.3,5.81980205 C21.3181818,5.81980205 22.1666136,6.6408651 22.1666136,7.62620235 L22.1666136,7.62620235 C22.1666136,8.61138563 21.3181818,9.43260264 20.3,9.43260264 Z" id="Path"></path>
                        </g>
                        <g id="Group" fill="#FFD15C">
                            <path d="M35,0 C34.1629821,0 33.3258072,0.67176965 33.3258072,1.67934541 L33.3258072,7.38899384 C33.3258072,8.22858783 33.9955157,9.06833925 35,9.06833925 C36.0044843,9.06833925 36.6741928,8.3965696 36.6741928,7.38899384 L36.6741928,1.67934541 C36.6741928,0.67176965 35.8370179,0 35,0 Z" id="Path"></path>
                            <path d="M12.5665695,10.2437393 C11.896861,9.5719697 10.8923767,9.5719697 10.2228251,10.2437393 C9.55327354,10.915509 9.55311659,11.9230848 10.2228251,12.594697 L14.2407623,16.625 C14.9104709,17.2967696 15.9149552,17.2967696 16.5845067,16.625 C17.2540583,15.9532304 17.2542152,14.9456546 16.5845067,14.2740424 L12.5665695,10.2437393 Z" id="Path"></path>
                            <path d="M7.37668161,33.4179818 L1.68455157,33.4179818 C0.847533632,33.4179818 0.0103587444,34.0897514 0.0103587444,35.0973272 L0.0103587444,35.0973272 C0.0103587444,35.9369212 0.680067265,36.7766726 1.68455157,36.7766726 L7.37668161,36.7766726 C8.21369955,36.7766726 9.05087444,36.1049029 9.05087444,35.0973272 L9.05087444,35.0973272 C9.05087444,34.2575758 8.21369955,33.4179818 7.37668161,33.4179818 Z" id="Path"></path>
                            <path d="M14.2406054,53.5694969 L10.2226682,57.5998 C9.55295964,58.2715696 9.55295964,59.2791454 10.2226682,59.9507576 C10.8923767,60.6223698 11.896861,60.6225272 12.5664126,59.9507576 L16.5843498,55.9204545 C17.2540583,55.2486849 17.2540583,54.2411091 16.5843498,53.5694969 C15.9146413,52.8978847 14.9103139,52.8977273 14.2406054,53.5694969 Z" id="Path"></path>
                            <path d="M55.7593946,53.5694969 C55.0896861,52.8977273 54.0852018,52.8977273 53.4154933,53.5694969 C52.7457848,54.2412666 52.7457848,55.2488423 53.4154933,55.9204545 L57.4334305,59.9507576 C58.103139,60.6225272 59.1076233,60.6225272 59.7771749,59.9507576 C60.4467265,59.2789879 60.4468834,58.2714122 59.7771749,57.5998 L55.7593946,53.5694969 Z" id="Path"></path>
                            <path d="M68.3154484,33.4179818 L62.6233184,33.4179818 C61.7863004,33.4179818 60.9491256,34.0897514 60.9491256,35.0973272 L60.9491256,35.0973272 C60.9491256,35.9369212 61.6188341,36.7766726 62.6233184,36.7766726 L68.3154484,36.7766726 C69.1524664,36.7766726 69.9896413,36.1049029 69.9896413,35.0973272 L69.9896413,35.0973272 C69.9894843,34.2575758 69.3199327,33.4179818 68.3154484,33.4179818 Z" id="Path"></path>
                            <path d="M57.4334305,10.2437393 L53.4154933,14.2740424 C52.7457848,14.945812 52.7457848,15.9533878 53.4154933,16.625 C54.0852018,17.2967696 55.0896861,17.2967696 55.7592377,16.625 L59.7771749,12.594697 C60.4468834,11.9229273 60.4468834,10.9153516 59.7771749,10.2437393 C59.1074664,9.57212713 58.103139,9.5719697 57.4334305,10.2437393 Z" id="Path"></path>
                        </g>
                    </g>
                </g>
            </g>
        </g>
    </g>
</svg>