<?xml version="1.0" encoding="iso-8859-1"?>
<!-- Generator: Adobe Illustrator 19.0.0, SVG Export Plug-In . SVG Version: 6.00 Build 0)  -->
<svg version="1.1" id="Layer_1" xmlns="http://www.w3.org/2000/svg" xmlns:xlink="http://www.w3.org/1999/xlink" x="0px" y="0px"
	 viewBox="0 0 511.6 511.6" style="enable-background:new 0 0 511.6 511.6;" xml:space="preserve">
<polygon style="fill:#CCD1D9;" points="378.875,479.625 170.523,479.625 191.787,373.146 357.58,373.114 "/>
<path style="fill:#F5F7FA;" d="M511.6,383.7c0,5.901-4.777,10.679-10.663,10.679H10.648c-5.87,0-10.647-4.777-10.647-10.679V42.638
	c0-5.886,4.777-10.664,10.647-10.664h490.289c5.886,0,10.663,4.777,10.663,10.664V383.7z"/>
<path style="fill:#E6E9ED;" d="M10.648,394.379h490.289c5.886,0,10.663-4.777,10.663-10.679V330.43H0V383.7
	C0,389.602,4.778,394.379,10.648,394.379z"/>
<g>
	<rect x="42.623" y="245.14" style="fill:#A0D468;" width="213.18" height="86.29"/>
	<rect x="277.11" y="245.14" style="fill:#A0D468;" width="213.16" height="86.29"/>
</g>
<path style="fill:#434A54;" d="M266.447,362.404c0,5.87-4.762,10.647-10.647,10.647c-5.885,0-10.663-4.777-10.663-10.647
	c0-5.902,4.777-10.68,10.663-10.68C261.686,351.724,266.447,356.502,266.447,362.404z"/>
<rect x="42.623" y="74.61" style="fill:#48CFAD;" width="426.34" height="149.21"/>
<path style="fill:#E6E9ED;" d="M170.523,458.329c-5.886,0-10.647,4.746-10.647,10.647c0,5.871,4.762,10.648,10.647,10.648h197.705
	v-21.296L170.523,458.329L170.523,458.329z"/>
<path style="fill:#434A54;" d="M394.348,159.875H117.237c-5.886,0-10.664-4.778-10.664-10.664s4.778-10.647,10.664-10.647h277.111
	c5.887,0,10.664,4.762,10.664,10.647C405.012,155.097,400.235,159.875,394.348,159.875z"/>
<rect x="347.06" y="191.85" style="fill:#48CFAD;" width="147.67" height="170.56"/>
<rect x="347.06" y="362.4" style="fill:#A0D468;" width="147.67" height="88.02"/>
<g>
	<path style="fill:#434A54;" d="M490.274,170.538H351.725c-11.771,0-21.327,9.54-21.327,21.312v266.479
		c0,11.772,9.556,21.296,21.327,21.296h138.549c11.787,0,21.326-9.523,21.326-21.296V191.85
		C511.6,180.078,502.061,170.538,490.274,170.538z M490.274,458.329H351.725V191.85h138.549V458.329z"/>
	<rect x="346.59" y="437" style="fill:#434A54;" width="149.07" height="26.886"/>
</g>
<path style="fill:#E6E9ED;" d="M431.584,458.329c0,5.87-4.777,10.647-10.663,10.647s-10.647-4.777-10.647-10.647
	c0-5.901,4.762-10.679,10.647-10.679S431.584,452.428,431.584,458.329z"/>
<path style="fill:#434A54;" d="M458.267,287.776h-74.692c-5.885,0-10.663-4.778-10.663-10.648c0-5.901,4.778-10.648,10.663-10.648
	h74.692c5.886,0,10.663,4.747,10.663,10.648C468.93,282.997,464.153,287.776,458.267,287.776z"/>
<g>
</g>
<g>
</g>
<g>
</g>
<g>
</g>
<g>
</g>
<g>
</g>
<g>
</g>
<g>
</g>
<g>
</g>
<g>
</g>
<g>
</g>
<g>
</g>
<g>
</g>
<g>
</g>
<g>
</g>
</svg>
