<?xml version="1.0" encoding="UTF-8"?>
<svg width="80px" height="80px" viewBox="0 0 80 80" version="1.1" xmlns="http://www.w3.org/2000/svg" xmlns:xlink="http://www.w3.org/1999/xlink">
    <!-- Generator: Sketch 61.2 (89653) - https://sketch.com -->
    <title>paint-palette</title>
    <desc>Created with Sketch.</desc>
    <g id="Personal-1-mixed" stroke="none" stroke-width="1" fill="none" fill-rule="evenodd">
        <g transform="translate(-478.000000, -1701.000000)" fill-rule="nonzero" id="services">
            <g transform="translate(350.000000, 1552.000000)">
                <g id="1" transform="translate(10.000000, 109.000000)">
                    <g id="paint-palette" transform="translate(118.000000, 40.000000)">
                        <path d="M40.0000852,0 C17.9086491,0 0,17.9086109 0,40 C0,62.0913891 17.9086491,80 40.0000852,80 C62.0915214,80 80,62.0913891 80,40 C80,17.9086109 62.0915214,0 40.0000852,0 Z M65.3714101,42.9127231 C59.3465194,48.9376009 48.1306024,47.490103 40.3201991,39.6797164 C32.5099663,31.8691593 31.0622948,20.6534366 37.0873559,14.6287292 C43.1122465,8.60385141 54.3281636,10.0511789 62.1383964,17.8615655 C69.9487997,25.6719522 71.3963007,36.8878453 65.3714101,42.9127231 L65.3714101,42.9127231 Z" id="Shape" fill="#FCE8C3"></path>
                        <path d="M71.7686652,41 C68.4888597,41.0035883 65.62229,43.2343029 64.7861648,46.4341951 C61.1910129,60.0723965 47.3183127,68.1878919 33.8005889,64.5606525 C32.5502117,64.2250628 31.3272707,63.7934438 30.1422661,63.2693839 C26.4905483,61.6454305 22.225243,63.3156899 20.6156555,67 C19.0081002,70.6795258 20.656979,74.9774319 24.3010757,76.6061697 C28.1560243,78.3220515 32.2582369,79.4041745 36.4520727,79.8117007 L36.4522421,79.8117007 C36.4732426,79.8137511 36.4939044,79.8158016 36.5147355,79.8176812 L36.5149049,79.8176812 C36.7240632,79.8378439 36.9328828,79.856127 37.1428879,79.8728723 L37.1439041,79.8728723 L37.17405,79.8752645 L37.1755742,79.8754354 L37.2041959,79.8776567 L37.2079218,79.8779984 L37.235866,79.8802198 L37.2395919,79.8805615 L37.2661812,79.882612 L37.2722782,79.8831246 L37.2983594,79.885175 L37.3036096,79.8855168 L37.3298602,79.8875672 L37.3357878,79.8880798 L37.361869,79.8899594 L37.3676272,79.890472 L37.3933698,79.8923516 L37.3996361,79.8928642 L37.4253787,79.8947438 L37.4313062,79.8950855 L37.4568794,79.8969651 L37.4636538,79.8974777 L37.4893963,79.8993573 L37.4941384,79.899699 L37.5210665,79.9015786 L37.5259779,79.9019203 L37.5535834,79.9037999 L37.5549383,79.9039708 L37.5852535,79.9060212 L37.586439,79.9061921 C37.6904254,79.9133686 37.7933957,79.9200326 37.8977208,79.9263548 L37.9028015,79.9266965 L37.9307458,79.9284053 L37.934133,79.9285761 L37.9607223,79.930114 L37.9668192,79.9304557 L37.9915456,79.9318227 L37.9991668,79.9323353 L38.0220303,79.9337022 L38.0320224,79.9342148 L38.0543778,79.9354109 L38.0636926,79.9359236 L38.086556,79.9372905 L38.0958708,79.9378031 L38.1189036,79.9391701 L38.1275409,79.9396827 L38.1504043,79.9408788 L38.1602272,79.9413914 L38.1825825,79.9425875 L38.1918973,79.9431001 L38.214422,79.9442962 L38.2245836,79.9448088 L38.2464309,79.9460049 L38.2567618,79.9465175 L38.278101,79.9475428 L38.2901255,79.9482262 L38.3104486,79.9492515 L38.3214569,79.9497641 L38.3431348,79.9507893 L38.3527883,79.9513019 L38.3756518,79.952498 L38.3839503,79.9528397 L38.4074912,79.9540358 L38.4166366,79.9545484 L38.4400082,79.9557445 L38.4466132,79.9560863 L38.4725251,79.9572824 L38.4765897,79.9574532 L38.5045339,79.9588202 L38.507413,79.9589911 C38.5577126,79.9612124 38.6110607,79.9636046 38.6613603,79.965655 L38.6640701,79.9658259 L38.6893045,79.9668511 L38.6964176,79.9671929 L38.7202972,79.9682181 L38.7285958,79.9685598 L38.7506125,79.9694142 L38.7614515,79.9699268 L38.7807584,79.9706103 L38.7941377,79.9711229 L38.8134447,79.9718064 L38.8263159,79.972319 L38.8459616,79.9730025 L38.8586635,79.9735151 L38.8783091,79.9741986 L38.8913498,79.9747112 L38.9104873,79.9753946 L38.923528,79.9759073 L38.943343,79.9765907 L38.9557062,79.9769325 L38.9755212,79.977616 L38.9880537,79.9779577 L39.0078687,79.9786412 L39.0210787,79.9791538 L39.0393695,79.9798373 L39.0541037,79.9803499 L39.0717171,79.9808625 L39.0864513,79.9813751 L39.104234,79.9818877 L39.1186295,79.9824003 L39.1369203,79.9829129 L39.1513158,79.9832547 L39.1689291,79.9837673 L39.183494,79.984109 L39.2019541,79.9846217 L39.2153335,79.9849634 L39.2341323,79.985476 L39.2478504,79.9858177 L39.2668186,79.9863304 L39.2812141,79.9866721 L39.2986581,79.9871847 L39.3149165,79.9875265 L39.3316831,79.9878682 L39.3462479,79.9882099 L39.3642,79.9887225 L39.3782568,79.9890643 L39.3967169,79.9895769 L39.4136528,79.9899186 L39.4288951,79.9902604 L39.4492182,79.990773 L39.4827513,79.9914565 L39.4934209,79.9916273 L39.5139133,79.9919691 L39.5259378,79.99214 L39.5443979,79.9924817 L39.5587934,79.9928234 L39.5757293,79.9931652 L39.5914797,79.9935069 L39.6084156,79.9938487 L39.6239966,79.9941904 L39.6409325,79.9945321 L39.6565135,79.9948739 L39.6732801,79.9952156 L39.6895385,79.9953865 L39.7061357,79.9957282 L39.7217167,79.9958991 L39.738822,79.99607 L39.7547417,79.9962408 L39.7715083,79.9964117 L39.7870893,79.9965826 L39.8041946,79.9967535 L39.8201143,79.9969243 L39.8367115,79.9970952 L39.8531393,79.9972661 L39.8688897,79.9974369 L39.8861643,79.9976078 L39.9017453,79.9977787 L39.9183425,79.9979496 L39.9346009,79.9981204 L39.9515368,79.9982913 L39.9669485,79.9984622 L39.9845618,79.998633 L39.9996348,79.9988039 L40.0174175,79.9989748 L40.0326598,79.9991456 L40.0499344,79.9993165 L40.0655154,79.9994874 L40.0831288,80 L40.0982017,80 L40.115815,80 L40.1312267,80 L40.1476545,80 L40.1642517,80 L40.1805102,80 L40.1965993,80 L40.2157368,80 L40.2292855,80 L40.2484231,80 L40.2623105,80 L40.2795851,80 L40.2951662,80 L40.3275137,80 L40.357829,80 L40.3654501,80 L40.3876362,80 L40.3979671,80 L40.4181208,80 L40.4284517,80 L40.4487747,80 L40.4589363,80 L40.4877273,80 L40.488066,80 L40.5185506,80 L40.5261718,80 L40.5485272,79.9994874 L40.5591968,79.9994874 L40.578165,79.9993165 L40.5900201,79.9993165 L40.6086496,79.9991456 L40.6199966,79.9991456 L40.6415052,79.9989748 L40.6498038,79.9989748 L40.6791029,79.9988039 L40.6877402,79.9988039 L40.7090795,79.998633 L40.7197491,79.9984622 L40.7395641,79.9982913 L40.749895,79.9981204 L40.7700487,79.9979496 L40.7805489,79.9977787 L40.8017188,79.9976078 L40.8103561,79.9974369 L40.8399939,79.9970952 L40.8455828,79.9970952 L40.8699705,79.9967535 L40.880132,79.9965826 L40.8996083,79.9962408 L40.9109553,79.99607 L40.930601,79.9957282 L40.9409319,79.9955574 L40.9619324,79.9952156 L40.9709084,79.9950448 C40.9895379,79.994703 41.0120626,79.9943613 41.0306921,79.9940195 L41.0401762,79.9938487 L41.0601606,79.9935069 L41.0720157,79.993336 L41.0901371,79.9929943 L41.1021616,79.9928234 L41.1206217,79.9924817 L41.1319688,79.9923108 L41.155679,79.9917982 L41.1614372,79.9916273 L41.1912444,79.9909439 L41.1997123,79.990773 L41.2203741,79.9902604 L41.2323986,79.9899186 L41.25052,79.9895769 L41.2620364,79.9892352 L41.2816821,79.9887225 L41.2918436,79.9885517 L41.3140296,79.9880391 L41.3219895,79.9878682 L41.3511193,79.9871847 L41.3600953,79.9870138 L41.3809264,79.9865012 L41.391596,79.9861595 L41.4110723,79.9856469 L41.42225,79.9853051 L41.4418957,79.9847925 L41.4520572,79.9844508 L41.4732271,79.9837673 L41.4822031,79.9835964 L41.5118409,79.9827421 L41.5148894,79.9825712 L41.54114,79.9817169 L41.5514709,79.9813751 L41.5712859,79.9806916 L41.5822942,79.9803499 L41.6017705,79.9796664 L41.611932,79.9793247 L41.6339487,79.9786412 L41.6419086,79.9784703 C41.6632478,79.9777868 41.6808611,79.9771034 41.7022004,79.9764199 L41.7088054,79.976249 L41.7316688,79.9753946 L41.741661,79.9750529 L41.7616454,79.9743694 L41.7719763,79.9740277 L41.7928074,79.9733442 L41.8019528,79.9730025 C41.8219372,79.972319 41.8414134,79.9714646 41.8613978,79.9707811 L41.8696964,79.9704394 L41.8915437,79.969585 L41.9011971,79.9692433 L41.9215202,79.968389 L41.931343,79.9680472 L41.9526823,79.9671929 L41.9613196,79.9668511 L41.9858766,79.9658259 L41.9911268,79.965655 L42.0216114,79.9644589 L42.0248292,79.9642881 L42.0515879,79.963092 L42.0593784,79.9627502 L42.0810564,79.961725 L42.0910485,79.9612124 L42.1110329,79.960358 L42.1217025,79.9598454 L42.1442272,79.9588202 L42.1508322,79.9584785 L42.1809781,79.9571115 L42.1843653,79.9569406 L42.2107853,79.9557445 L42.219592,79.9554028 L42.2400844,79.9543776 L42.250754,79.953865 L42.2712465,79.9528397 L42.2805612,79.9523271 L42.3019004,79.9513019 L42.3107071,79.9507893 L42.3372965,79.9494223 L42.3425466,79.9490806 L42.369644,79.9477136 L42.3799749,79.947201 L42.3996206,79.9461758 L42.4102902,79.9456632 L42.4294277,79.944638 L42.4406054,79.9441253 L42.4610979,79.9431001 L42.4695658,79.9425875 L42.4961552,79.9412205 L42.4995423,79.9410497 L42.5296882,79.939341 L42.5354464,79.9389992 L42.5589873,79.9376323 L42.5686408,79.9371196 L42.5887945,79.9359236 L42.5994641,79.9352401 L42.6180936,79.9342148 L42.6294407,79.9335314 L42.6524735,79.9321644 L42.658401,79.9318227 L42.6888857,79.930114 L42.690918,79.9299431 L42.7183541,79.9282344 L42.7261446,79.9277218 L42.7478226,79.9263548 L42.7576454,79.9256713 L42.779154,79.9243044 L42.7869445,79.9237917 L42.8120096,79.9222539 L42.816921,79.9219122 C42.836736,79.9207161 42.8573978,79.9193491 42.8770435,79.918153 L42.8843259,79.9176404 L42.9073587,79.9161026 L42.9154879,79.91559 L42.9375046,79.914223 L42.9458032,79.9137104 L42.9693441,79.9121726 L42.9757797,79.9118308 C42.9969496,79.9104638 43.0149016,79.9092678 43.0359022,79.9077299 L43.0418297,79.9073882 L43.0657093,79.9056795 L43.0740079,79.9051669 L43.0963633,79.903629 L43.1039845,79.9031164 L43.127356,79.9014077 L43.1342997,79.9008951 C43.1541147,79.8995281 43.1746071,79.8979903 43.1942528,79.8966233 L43.1993335,79.8962816 L43.2243987,79.894402 L43.2315117,79.8938894 L43.2536978,79.8921807 L43.2626738,79.8914972 L43.2850292,79.8897885 L43.292481,79.8892759 L43.3211026,79.8870546 L43.3216107,79.8870546 L43.3527728,79.8846624 L43.3548051,79.8844915 L43.3819025,79.8824411 L43.3907092,79.8817576 L43.4122178,79.8800489 L43.4201776,79.8793654 L43.4428717,79.8776567 L43.4506622,79.8769732 L43.4765742,79.8749228 L43.479792,79.8747519 C43.5007925,79.8730432 43.5200994,79.8715054 43.5410999,79.8697967 L43.5453339,79.8694549 L43.5698909,79.8674045 L43.5785282,79.866721 L43.6002062,79.8650123 L43.6085048,79.8643288 L43.6320457,79.8624492 L43.6381426,79.8619366 C43.6591431,79.8602279 43.6776032,79.8586901 43.6986037,79.8568105 L43.7030071,79.8564688 L43.7285803,79.8542474 L43.7348466,79.8537348 L43.7588955,79.8516844 L43.7656699,79.8511718 L43.7915818,79.8489505 L43.7951384,79.8486087 C43.8161389,79.8467291 43.8359539,79.8450204 43.8569544,79.8431409 L43.8574624,79.8431409 L43.8857454,79.8405778 L43.8933665,79.8398943 L43.9158913,79.8378439 L43.9235124,79.8371604 L43.9475614,79.8349391 L43.9528115,79.8344265 C43.9843123,79.8315217 44.0122565,79.8289586 44.0435879,79.8260538 L44.0493461,79.8255412 L44.0739032,79.823149 L44.0803388,79.8224655 L44.1048959,79.8200733 L44.1103154,79.8195607 L44.1372434,79.8169977 L44.1404613,79.8166559 C44.1612924,79.8146055 44.1799219,79.8128968 44.2009224,79.8108463 L44.2066806,79.8103337 L44.2308989,79.8079415 L44.2381814,79.8072581 L44.2605368,79.8050367 L44.2684966,79.8041824 L44.2922069,79.8017902 L44.2983038,79.8011067 C44.319135,79.7990563 44.337087,79.7971767 44.3580875,79.7951262 L44.3636764,79.7946136 L44.387556,79.7922214 L44.3960239,79.7913671 L44.4177019,79.7891458 L44.4256617,79.7882914 L44.4488639,79.7858992 L44.4554689,79.7852158 C44.4763001,79.7829944 44.4947602,79.7811149 44.5155914,79.7788935 L44.517793,79.7787227 L44.5455679,79.7758179 L44.5506487,79.7753053 L44.5755444,79.7725713 L44.5813026,79.7718879 L44.6068758,79.7691539 L44.6116179,79.7686413 L44.6397315,79.7655656 L44.6415944,79.7653948 C44.6624256,79.7631735 44.6817325,79.7609521 44.7025636,79.7587308 L44.7066283,79.7582182 L44.7320321,79.7553134 L44.7382984,79.7546299 L44.7625167,79.751896 L44.7684443,79.7512125 C44.7984208,79.7477951 44.8287361,79.7443777 44.8587126,79.7409603 L44.863624,79.7404477 L44.8880117,79.7377138 L44.8951248,79.7368594 L44.9191737,79.7341255 L44.9247626,79.733442 L44.9510132,79.7303663 L44.9545698,79.7300246 C44.9754009,79.7276324 44.9952159,79.7252402 45.0158777,79.722848 C45.0170632,79.7226771 45.0153696,79.722848 45.0163858,79.722848 L45.0451768,79.7194306 L45.0500882,79.718918 L45.0751533,79.7158423 L45.0810809,79.7151588 L45.1071622,79.7120832 L45.1105494,79.7117414 C45.1313805,79.7091784 45.1508568,79.7067862 45.1716879,79.7042231 L45.1725347,79.7040523 L45.2016645,79.700464 L45.2053904,79.6999514 L45.2318104,79.6967048 L45.2365524,79.6961922 L45.2619563,79.6929457 L45.2668677,79.6922622 C45.2980297,79.6883322 45.3263127,79.6847439 45.3574747,79.6808139 L45.3610313,79.6803013 L45.3866045,79.6770547 L45.3928707,79.6762004 L45.4181052,79.6729538 L45.4220005,79.6724412 C45.4531625,79.6685112 45.4819536,79.6645812 45.5129462,79.6606511 L45.5158253,79.6603094 L45.5430921,79.6567211 L45.5469874,79.6562085 L45.5735768,79.6526202 L45.5773026,79.6521076 L45.6067711,79.6481776 L45.6067711,79.6481776 C45.6274329,79.6454437 45.647756,79.6427097 45.6684178,79.6398049 L45.6701114,79.6396341 L45.6977169,79.6358749 L45.7033057,79.6351914 L45.7280321,79.631774 L45.7331129,79.6310905 L45.7590248,79.6275023 L45.7632588,79.6269897 C45.7942515,79.6227179 45.8230425,79.6187879 45.8540352,79.6143452 L45.8567449,79.6140035 L45.8831649,79.6102443 L45.8885844,79.60939 L45.9150044,79.6056308 L45.9178835,79.6052891 C45.9488762,79.6008465 45.9780059,79.5967456 46.0089986,79.5923029 L46.0113697,79.5919612 L46.0391445,79.5878603 L46.0420236,79.5873477 L46.0696291,79.5832468 L46.0725082,79.5829051 C46.1136625,79.5769246 46.1527844,79.571115 46.1939386,79.5649637 L46.1963096,79.5646219 L46.2245926,79.5603502 L46.2266249,79.5600084 C46.2677791,79.5538571 46.306901,79.5478766 46.3480553,79.5415544 L46.3512731,79.5410418 L46.377185,79.5371118 L46.3827738,79.5362574 L46.4097019,79.5321565 L46.4113955,79.5319856 C46.4422188,79.5272013 46.4713486,79.5225878 46.5021719,79.5178034 L46.5053897,79.5172908 L46.5326565,79.513019 L46.5355356,79.5125064 L46.5638186,79.5080638 L46.5655122,79.507722 C46.6066664,79.501229 46.6464657,79.4947359 46.6872812,79.4880719 L46.6888055,79.4879011 C46.7401212,79.4795284 46.7897434,79.4713266 46.8410592,79.462954 L46.8427528,79.4626122 L46.8715438,79.4578278 L46.8732374,79.4574861 C47.026846,79.4318555 47.179269,79.4053706 47.3323695,79.3778604 L47.362346,79.3723926 L47.3633622,79.3722217 C47.4653163,79.3537677 47.5664236,79.3351428 47.668039,79.3160053 L47.668547,79.3160053 C47.7193547,79.3064366 47.7699931,79.2968678 47.8206314,79.2869573 L47.8206314,79.2869573 C47.8714391,79.2772177 47.9220774,79.2673072 47.9727157,79.2573967 L47.9730544,79.2573967 C48.1353003,79.2254439 48.2970381,79.1926368 48.4584372,79.1588044 L48.4587759,79.1588044 C63.1862308,76.042297 74.9126449,64.8123447 78.7643756,50.1357632 C79.7718921,46.2361562 77.4554003,42.2509431 73.5902902,41.2344344 C72.9953321,41.0796257 72.3832689,41 71.7686652,41 L71.7686652,41 Z" id="Path" fill="#F9D797"></path>
                        <g id="Group" transform="translate(4.000000, 36.000000)" fill="#FFCF06">
                            <path d="M35.8438202,43.886251 L35.8082966,43.886251 C21.0839371,43.891876 7.5429573,35.8316899 0.544467416,22.8953488 C-0.412791011,21.1269922 0.246957303,18.9184651 2.0178427,17.9627442 C3.78770337,17.0075349 5.99802247,17.6648062 6.95613483,19.4312868 C12.6803865,30.0178915 23.759991,36.6148217 35.8084674,36.609876 C37.8206742,36.5999845 39.4598831,38.2209922 39.4698308,40.2303256 C39.4793528,42.2396589 37.856027,43.8765271 35.8438202,43.886251 L35.8438202,43.886251 Z" id="Path"></path>
                            <path d="M53.1004315,39.5357068 C51.0878831,39.5374109 49.455164,37.9097519 49.4534547,35.9000775 C49.4522607,34.5626822 50.1859596,33.3323876 51.3642157,32.6962636 C61.9837213,26.9846202 68.6039191,15.9104341 68.5994787,3.86568992 C68.5994787,1.85652713 70.2291236,0.152806202 72.2428674,0.152806202 C74.2566112,0.152806202 75.8862595,1.70542636 75.8862595,3.71458915 L75.8862595,3.86551938 C75.8922337,18.5835194 67.8046382,32.1162481 54.8296449,39.0986047 C54.2984989,39.3852868 53.7041618,39.5357068 53.1004315,39.5357068 Z" id="Path"></path>
                        </g>
                        <path d="M3.73111503,44 C1.6889979,44.0177828 0.0185404873,42.4308555 0,40.4554864 C0,40.4461814 0,40.4368764 0,40.4277406 L0,40.351947 C-0.0036716466,25.7804697 8.24577497,12.3780402 21.490678,5.43700987 C23.301754,4.48705288 25.5661674,5.13721934 26.5482235,6.88909905 C27.5302797,8.64097876 26.858144,10.8313782 25.047068,11.7813352 C14.2094706,17.4617903 7.45960535,28.4285065 7.46240373,40.351947 C7.4660766,42.3530318 5.79981676,43.9820854 3.73111503,44 Z" id="Path" fill="#F9D695"></path>
                        <path d="M33,47 L43.8461502,47 L44.5535226,46.59581 C60.4516062,37.5111096 73.3176824,22.509135 79.7470769,5.36436017 L79.7470769,5.36436017 C80.2937907,3.90656454 79.9379014,2.26387527 78.8370171,1.16298705 C77.7361329,0.062098837 76.0934495,-0.29379175 74.6356592,0.252923981 L74.6356592,0.252923981 C57.4909461,6.68217218 42.4888562,19.5482948 33.4041886,35.4464358 L33,36.1538107 L33,47 Z" id="Path" fill="#4141B8"></path>
                        <path d="M72,1 C55.5534309,7.89154983 41.2189758,20.6891668 32.4091835,36.4311497 L32,37.1620319 L32,44 C53.2218054,40.6450163 69.8254625,23.023472 72,1 L72,1 Z" id="Path" fill="#5353C0"></path>
                        <path d="M28.7999663,44 C16.8707285,44 7.20003375,53.670526 7.20003375,65.5997638 C7.20003375,65.5997638 7.20003375,65.5997638 7.20003375,65.5999325 L7.20003375,72.7999663 C7.20003375,74.7881725 5.58830754,76.3998988 3.60010125,76.3998988 L1.80005062,76.3998988 C0.805947481,76.3998988 0,77.2058462 0,78.1999494 C0,79.1940525 0.805947481,80 1.80005062,80 L7.20003375,80 C23.1058528,80 36,67.1058528 36,51.2000337 L28.7999663,44 Z" id="Path" fill="#F7B236"></path>
                        <polygon id="Path" fill="#FF4C60" points="32.499959 37 29 43.999918 36.000082 51 43 47.500041"></polygon>
                        <path d="M62.2401644,17.6829197 C67.754784,23.1173278 70.033135,30.1892807 68.8459266,36 L80,36 C78.1518044,15.8189131 60.9599726,0 40,0 L40,12.4101737 C46.3134552,9.10167156 55.5205274,11.0608529 62.2401644,17.6829197 Z" id="Path" fill="#FCE8C3"></path>
                        <circle id="Oval" fill="#FF4C60" cx="49" cy="63" r="9"></circle>
                        <circle id="Oval" fill="#F9D797" cx="18" cy="29" r="11"></circle>
                        <circle id="Oval" fill="#5353C0" cx="18" cy="25" r="11"></circle>
                        <circle id="Oval" fill="#F7B236" cx="67" cy="52" r="6"></circle>
                        <circle id="Oval" fill="#6C6CE5" cx="15" cy="22" r="4"></circle>
                        <circle id="Oval" fill="#FFA1AC" cx="48" cy="62" r="4"></circle>
                        <g id="Group" transform="translate(11.000000, 44.000000)" fill="#FBDEA9">
                            <ellipse id="Oval" cx="56.0495134" cy="9.19271186" rx="1.8358635" ry="1.8079661"></ellipse>
                            <ellipse id="Oval" transform="translate(10.182446, 10.973822) rotate(-135.000000) translate(-10.182446, -10.973822) " cx="10.1824457" cy="10.9738221" rx="5.15342943" ry="8.97549915"></ellipse>
                        </g>
                        <ellipse id="Oval" fill="#6C6CE5" transform="translate(50.847230, 25.408564) rotate(-135.000000) translate(-50.847230, -25.408564) " cx="50.8472301" cy="25.4085641" rx="3.6186887" ry="9.64109903"></ellipse>
                        <path d="M1.07190063,80 L7.36001151,80 C9.45216723,79.9891485 11.5394292,79.791754 13.5980038,79.410228 C26.4199248,76.4372535 36,64.7542904 36,50.7666692 L35.2488962,50 C32.3173807,63.0612796 20.8852802,72.8142207 7.20003703,72.8142207 C7.20003703,74.8436289 5.588311,76.4887552 3.60010494,76.4887552 L1.80005452,76.4887552 C0.807976482,76.4866882 0.00202909188,77.3058926 0,78.3185297 C-0.00151464664,79.0464434 0.419177741,79.706492 1.07190063,80 L1.07190063,80 Z" id="Path" fill="#FFCF06"></path>
                        <path d="M36.3938048,51 L33.1815792,47.8192911 C31.9538419,46.6035997 31.6495371,44.7464357 32.4258977,43.2087723 C33.4222421,41.2358114 35.8450934,40.4360005 37.8377822,41.4225692 C38.2255168,41.6146227 38.5795587,41.8672224 38.886181,42.1708363 L44,47.2341282 L36.3938048,51 Z" id="Path" fill="#D93144"></path>
                    </g>
                </g>
            </g>
        </g>
    </g>
</svg>