<?xml version="1.0" encoding="iso-8859-1"?>
<!-- Generator: Adobe Illustrator 19.0.0, SVG Export Plug-In . SVG Version: 6.00 Build 0)  -->
<svg version="1.1" id="Layer_1" xmlns="http://www.w3.org/2000/svg" xmlns:xlink="http://www.w3.org/1999/xlink" x="0px" y="0px"
	 viewBox="0 0 511.6 511.6" style="enable-background:new 0 0 511.6 511.6;" xml:space="preserve">
<path style="fill:#E6E9ED;" d="M468.977,127.901V74.614c0-11.772-9.555-21.327-21.326-21.327H21.32C9.547,53.287,0,62.842,0,74.614
	v53.287H468.977z"/>
<polygon style="fill:#656D78;" points="468.977,415.676 395.878,415.676 0,415.676 0,95.926 468.977,95.926 468.977,319.079 "/>
<path style="fill:#ED5564;" d="M42.631,74.614c0,5.886-4.771,10.648-10.656,10.648S21.32,80.5,21.32,74.614
	S26.09,63.95,31.975,63.95S42.631,68.729,42.631,74.614z"/>
<path style="fill:#FFCE54;" d="M74.606,74.614c0,5.886-4.77,10.648-10.655,10.648c-5.887,0-10.656-4.762-10.656-10.648
	s4.769-10.663,10.655-10.663S74.606,68.729,74.606,74.614z"/>
<path style="fill:#A0D468;" d="M106.58,74.614c0,5.886-4.77,10.648-10.655,10.648S85.27,80.5,85.27,74.614S90.04,63.95,95.925,63.95
	S106.58,68.729,106.58,74.614z"/>
<path style="fill:#FC6E51;" d="M373.052,138.565H53.294c-5.886,0-10.663,4.762-10.663,10.647c0,5.886,4.777,10.664,10.663,10.664
	h319.758c5.87,0,10.647-4.778,10.647-10.664C383.699,143.326,378.922,138.565,373.052,138.565z"/>
<path style="fill:#AC92EB;" d="M53.294,202.514h170.531c5.886,0,10.655-4.777,10.655-10.664c0-5.886-4.77-10.663-10.655-10.663
	H53.294c-5.886,0-10.663,4.777-10.663,10.663C42.631,197.737,47.408,202.514,53.294,202.514z"/>
<path style="fill:#48CFAD;" d="M287.776,223.826H53.294c-5.886,0-10.663,4.778-10.663,10.664s4.777,10.648,10.663,10.648h234.481
	c5.885,0,10.647-4.762,10.647-10.648S293.66,223.826,287.776,223.826z"/>
<path style="fill:#5D9CEC;" d="M53.294,287.777h149.212c5.886,0,10.663-4.778,10.663-10.664s-4.777-10.648-10.663-10.648H53.294
	c-5.886,0-10.663,4.763-10.663,10.648S47.408,287.777,53.294,287.777z"/>
<path style="fill:#FFCE54;" d="M223.825,309.087H53.294c-5.886,0-10.663,4.777-10.663,10.664c0,5.886,4.777,10.663,10.663,10.663
	h170.531c5.886,0,10.655-4.777,10.655-10.663C234.481,313.863,229.711,309.087,223.825,309.087z"/>
<path style="fill:#ED5564;" d="M138.556,351.725H53.294c-5.886,0-10.663,4.777-10.663,10.664c0,5.886,4.777,10.647,10.663,10.647
	h85.262c5.886,0,10.663-4.762,10.663-10.647C149.219,356.503,144.442,351.725,138.556,351.725z"/>
<path style="fill:#FFCE54;" d="M511.6,373.036v-63.95h-26.791c-1.125-3.2-2.42-6.338-3.872-9.367l18.923-18.938l-45.215-45.23
	l-18.923,18.938c-3.06-1.452-6.183-2.748-9.399-3.888v-26.776h-63.949v26.776c-3.201,1.14-6.34,2.436-9.368,3.888l-18.938-18.938
	l-45.23,45.23l18.955,18.938c-1.469,3.029-2.748,6.167-3.889,9.367h-26.775v63.95h26.775c1.141,3.217,2.42,6.339,3.889,9.384
	l-18.955,18.938l45.23,45.214l18.938-18.938c3.028,1.467,6.167,2.763,9.368,3.887v26.792h63.949v-26.792
	c3.217-1.124,6.34-2.42,9.399-3.887l18.923,18.938l45.23-45.214l-18.938-18.938c1.452-3.045,2.747-6.167,3.872-9.384H511.6z
	 M394.348,373.036c-17.643,0-31.975-14.316-31.975-31.975s14.332-31.976,31.975-31.976c17.674,0,31.975,14.317,31.975,31.976
	S412.022,373.036,394.348,373.036z"/>
<path style="fill:#F6BB42;" d="M394.348,287.777c-29.383,0-53.271,23.902-53.271,53.286c0,29.383,23.889,53.302,53.271,53.302
	c29.398,0,53.303-23.919,53.303-53.302C447.651,311.678,423.746,287.777,394.348,287.777z M394.348,373.036
	c-17.643,0-31.975-14.316-31.975-31.975s14.332-31.976,31.975-31.976c17.674,0,31.975,14.317,31.975,31.976
	S412.022,373.036,394.348,373.036z"/>
<g>
</g>
<g>
</g>
<g>
</g>
<g>
</g>
<g>
</g>
<g>
</g>
<g>
</g>
<g>
</g>
<g>
</g>
<g>
</g>
<g>
</g>
<g>
</g>
<g>
</g>
<g>
</g>
<g>
</g>
</svg>
