<?xml version="1.0" encoding="UTF-8"?>
<svg width="560px" height="454px" viewBox="0 0 560 454" version="1.1" xmlns="http://www.w3.org/2000/svg" xmlns:xlink="http://www.w3.org/1999/xlink">
    <!-- Generator: Sketch 61.2 (89653) - https://sketch.com -->
    <title>3</title>
    <desc>Created with Sketch.</desc>
    <g id="Agency-2" stroke="none" stroke-width="1" fill="none" fill-rule="evenodd">
        <g id="Agency-1" transform="translate(-172.000000, -1602.000000)">
            <g id="3" transform="translate(172.000000, 1602.000000)">
                <rect id="Rectangle-Copy-16" fill="#FFFFFF" x="0" y="0" width="560" height="454"></rect>
                <g id="undraw_drag_5i9w" transform="translate(71.000000, 106.000000)" fill-rule="nonzero">
                    <path d="M216.202543,205.751825 C215.118254,205.751825 214.0229,205.734637 212.947771,205.701021 L212.972197,204.919457 C214.516001,204.96759 216.091481,204.98096 217.642535,204.959567 L217.65322,205.741893 C217.170423,205.748386 216.686864,205.751697 216.202543,205.751825 Z M222.355996,205.570376 L222.3102,204.789579 C223.856291,204.698282 225.422231,204.569933 226.964507,204.408348 L227.046188,205.186089 C225.492074,205.349201 223.914304,205.478699 222.355996,205.570376 L222.355996,205.570376 Z M208.249192,205.448521 C206.690122,205.328958 205.114642,205.17234 203.566261,204.982106 L203.661675,204.205889 C205.198226,204.394215 206.761493,204.55007 208.308729,204.668487 L208.249192,205.448521 Z M231.713462,204.588267 L231.596296,203.81511 C233.132463,203.58171 234.680465,203.310877 236.196025,203.009482 L236.348307,203.776529 C234.820913,204.080213 233.261464,204.353342 231.713462,204.588267 L231.713462,204.588267 Z M198.910235,204.302155 C197.370061,204.040858 195.81538,203.74062 194.289514,203.409047 L194.455346,202.644292 C195.969569,202.973573 197.512228,203.27153 199.040764,203.530523 L198.910235,204.302155 Z M240.941928,202.752397 L240.754156,201.992993 C242.262079,201.619781 243.778405,201.207229 245.261141,200.76717 L245.483265,201.517421 C243.989079,201.960902 242.461306,202.376513 240.941928,202.752397 L240.941928,202.752397 Z M189.715165,202.303937 C188.204376,201.901696 186.684045,201.459345 185.196346,200.988345 L185.431829,200.242691 C186.908268,200.709869 188.416957,201.148781 189.915915,201.547584 L189.715165,202.303937 Z M249.962787,200.073849 L249.706314,199.335067 C251.169587,198.82587 252.641254,198.275406 254.081246,197.698601 L254.371306,198.425155 C252.920614,199.006169 251.437495,199.560827 249.962787,200.073849 Z M180.731354,199.461127 C179.264072,198.921369 177.787633,198.338825 176.343444,197.729925 L176.646862,197.008718 C178.079987,197.613034 179.544971,198.190993 181.001186,198.726933 L180.731354,199.461127 Z M258.689374,196.578974 L258.365727,195.866932 C259.77099,195.227854 261.183516,194.545611 262.563955,193.839303 L262.91966,194.536062 C261.528509,195.247721 260.105307,195.934913 258.689362,196.578974 L258.689374,196.578974 Z M172.041216,195.798936 C170.630801,195.126245 169.215044,194.410769 167.833827,193.671987 L168.202129,192.982104 C169.57304,193.715144 170.977729,194.425285 172.377455,195.093012 L172.041216,195.798936 Z M267.052239,192.300244 L266.66524,191.621056 C268.01287,190.851337 269.358214,190.04227 270.663096,189.216013 L271.080629,189.876867 C269.765808,190.709614 268.410546,191.525174 267.052227,192.300244 L267.052239,192.300244 Z M163.729669,191.354412 C162.388143,190.555656 161.044711,189.713361 159.736964,188.851198 L160.167093,188.197983 C161.464725,189.053652 162.797852,189.889459 164.129263,190.6821 L163.729669,191.354412 Z M274.994894,187.270895 L274.547592,186.629923 C275.816602,185.742546 277.082938,184.81315 278.31149,183.868096 L278.787798,184.488458 C277.550085,185.440756 276.273826,186.377025 274.994894,187.270895 L274.994894,187.270895 Z M155.863907,186.169208 C154.602351,185.252036 153.342111,184.291319 152.117928,183.313028 L152.605687,182.701836 C153.820502,183.672487 155.07119,184.625948 156.323027,185.53586 L155.863907,186.169208 Z M282.450563,181.535618 L281.946773,180.9374 C283.129529,179.938483 284.30656,178.897547 285.445807,177.843237 L285.976309,178.417758 C284.828668,179.480098 283.642476,180.529061 282.450563,181.535618 L282.450563,181.535618 Z M148.506719,180.289536 C147.331787,179.259678 146.164488,178.188564 145.037439,177.105605 L145.57863,176.541016 C146.697265,177.615952 147.855595,178.679043 149.021558,179.701262 L148.506719,180.289536 Z M289.357421,175.141399 L288.800964,174.592077 C289.891343,173.4862 290.969919,172.341742 292.006119,171.190792 L292.587002,171.714125 C291.542775,172.874256 290.456198,174.02712 289.357409,175.141399 L289.357421,175.141399 Z M141.717411,173.767743 C140.639422,172.633218 139.57479,171.460491 138.553093,170.282417 L139.143516,169.769782 C140.157388,170.939067 141.213813,172.102624 142.283791,173.228365 L141.717411,173.767743 Z M295.657418,168.142864 L295.053638,167.646271 C296.038695,166.446421 297.008503,165.208374 297.937056,163.965746 L298.562973,164.43407 C297.627533,165.686266 296.650109,166.934229 295.657418,168.142864 L295.657418,168.142864 Z M135.551183,166.657665 C134.583106,165.433371 133.629928,164.169347 132.717949,162.900742 L133.352245,162.443863 C134.257345,163.702536 135.203282,164.957012 136.164101,166.172521 L135.551183,166.657665 Z M301.296412,160.595782 L300.649887,160.156505 C301.521593,158.871855 302.375343,157.549771 303.187144,156.226157 L303.853514,156.635658 C303.034851,157.969184 302.174597,159.301583 301.2964,160.595782 L301.296412,160.595782 Z M130.059699,159.019672 C129.208032,157.712866 128.374498,156.368243 127.58198,155.022094 L128.255224,154.624817 C129.041817,155.960639 129.869059,157.295346 130.714243,158.591837 L130.059699,159.019672 Z M306.226647,152.561279 L305.542718,152.183106 C306.293055,150.823967 307.022022,149.428144 307.710148,148.034254 L308.410883,148.381106 C307.717781,149.785315 306.98271,151.191824 306.226647,152.561279 L306.226647,152.561279 Z M125.289941,150.916406 C124.560974,149.537404 123.854147,148.122496 123.18911,146.711402 L123.895937,146.377541 C124.556026,147.777936 125.257308,149.182149 125.980737,150.550469 L125.289941,150.916406 Z M310.400828,144.103909 L309.684852,143.789906 C310.307716,142.366213 310.905763,140.908137 311.462611,139.456554 L312.19234,139.73694 C311.631291,141.199972 311.028273,142.669126 310.400828,144.103909 L310.400828,144.103909 Z M121.283686,142.415872 C120.684486,140.976512 120.110662,139.50392 119.578252,138.038588 L120.312941,137.771192 C120.841157,139.225447 121.410589,140.686578 122.005017,142.11486 L121.283686,142.415872 Z M313.780783,135.290514 L313.038841,135.044507 C313.5266,133.573445 313.986877,132.069911 314.4067,130.575163 L315.159327,130.786783 C314.736072,132.292988 314.271977,133.808365 313.780783,135.290514 L313.780783,135.290514 Z M118.072615,133.576112 C117.607566,132.085182 117.170571,130.562169 116.773837,129.048704 L117.529899,128.850063 C117.923577,130.352071 118.357333,131.863627 118.818754,133.343092 L118.072615,133.576112 Z M316.328346,126.224228 L315.566937,126.046984 C315.916917,124.53925 316.236746,122.999432 316.518029,121.471064 L317.286683,121.612399 C317.003493,123.152987 316.680995,124.70427 316.328346,126.224228 L316.328346,126.224228 Z M115.68535,124.466274 C115.359409,122.938293 115.064397,121.381663 114.808685,119.838787 L115.57963,119.710434 C115.833626,121.241838 116.126355,122.786643 116.449811,124.30278 L115.68535,124.466274 Z M318.031678,116.962372 L317.256915,116.856168 C317.467209,115.323982 317.644679,113.761621 317.784748,112.212247 L318.563329,112.282536 C318.422115,113.844145 318.243117,115.418346 318.031678,116.962372 L318.031678,116.962372 Z M114.144977,115.176149 C113.960636,113.627534 113.809308,112.050282 113.695002,110.488305 L114.474728,110.431004 C114.587889,111.981524 114.73826,113.54656 114.921264,115.08371 L114.144977,115.176149 Z M318.881622,107.584005 L318.100751,107.548851 C318.170214,105.998715 318.205708,104.426423 318.205708,102.875903 L318.987342,102.875903 C318.987342,104.438275 318.951856,106.022411 318.88163,107.584005 L318.881622,107.584005 Z M113.458175,105.784033 C113.431459,104.824842 113.417921,103.846171 113.417722,102.875903 C113.417722,102.273879 113.422874,101.673 113.433178,101.073266 L114.214812,101.08702 C114.204505,101.682167 114.199352,102.278461 114.199355,102.875903 C114.199543,103.838911 114.213092,104.810326 114.239429,105.76264 L113.458175,105.784033 Z M318.199975,101.784542 C318.183951,100.233451 318.132039,98.6613504 318.046165,97.1115933 L318.826274,97.0680451 C318.912911,98.6296427 318.965198,100.213588 318.981608,101.77614 L318.199975,101.784542 Z M114.400313,96.4165667 L113.620204,96.3676713 C113.717716,94.8045442 113.852443,93.2257589 114.020181,91.6750512 L114.797234,91.7592804 C114.630641,93.2983392 114.497251,94.8650924 114.400313,96.4165667 Z M317.680556,92.4522181 C317.524456,90.9099126 317.330193,89.3494611 317.103488,87.8138406 L317.876727,87.6996209 C318.104964,89.2468942 318.300763,90.8191862 318.458371,92.3731406 L317.680556,92.4522181 Z M115.405787,87.1252956 L114.633314,87.0057288 C114.872803,85.4580761 115.151029,83.8981996 115.460364,82.3688807 L116.226365,82.5239691 C115.919496,84.0416391 115.643368,85.5896751 115.405787,87.1252956 Z M316.314605,83.207558 C316.016529,81.6814897 315.680289,80.1452942 315.314665,78.6417608 L316.074159,78.4568736 C316.44246,79.9718485 316.781373,81.5199041 317.081735,83.0574335 L316.314605,83.207558 Z M117.257207,77.9654319 L116.499022,77.7751975 C116.878584,76.2600114 117.298977,74.732222 117.748569,73.2340358 L118.496983,73.4590328 C118.051053,74.9457579 117.6339,76.4618985 117.257207,77.9654319 Z M314.105587,74.1267601 C313.669733,72.6371677 313.193421,71.1387938 312.690022,69.6726947 L313.428908,69.4182861 C313.936512,70.8956507 314.416634,72.405869 314.855924,73.9067308 L314.105587,74.1267601 Z M119.947886,69.0024679 L119.210525,68.7430955 C119.729959,67.2641975 120.290805,65.7782391 120.877413,64.3264723 L121.602179,64.6198446 C121.019959,66.0603577 120.463311,67.5350506 119.947886,69.0024679 Z M311.070254,65.2885185 C310.500052,63.8487799 309.889409,62.4038819 309.255094,60.9937465 L309.96803,60.6724881 C310.607304,62.0935095 311.222552,63.5494931 311.796931,65.0001139 L311.070254,65.2885185 Z M123.456077,60.3197333 L122.745814,59.993112 C123.398638,58.5701817 124.093444,57.1432381 124.81096,55.7520115 L125.505574,56.1107082 C124.793405,57.4914398 124.103941,58.9074934 123.456077,60.3197333 Z M307.244908,56.7853199 C306.545346,55.4042166 305.804151,54.0202462 305.041984,52.6723762 L305.722095,52.2869436 C306.49037,53.6453202 307.236901,55.0397934 307.941813,56.431591 L307.244908,56.7853199 Z M127.746092,52.001594 L127.068654,51.6111936 C127.848376,50.2560675 128.670658,48.8995997 129.512783,47.5798074 L130.171524,48.0007654 C129.335887,49.3106261 128.519713,50.6567789 127.746092,52.001594 Z M302.652812,48.6629538 C301.826906,47.3469793 300.962072,46.0359725 300.082351,44.7662216 L300.724299,44.3204326 C301.610886,45.5999272 302.482584,46.9208657 303.314605,48.2469635 L302.652812,48.6629538 Z M132.777095,44.1162767 L132.138204,43.6655198 C133.039294,42.3864163 133.981413,41.1115021 134.938992,39.8761267 L135.556514,40.3555324 C134.606376,41.5817194 133.671128,42.8468857 132.777095,44.1162767 Z M297.335961,40.9900264 C296.39403,39.755226 295.41317,38.5276856 294.419717,37.341589 L295.018918,36.8390734 C296.019623,38.0343389 297.008116,39.2710482 297.957297,40.5152247 L297.335961,40.9900264 Z M138.503858,36.726747 L137.908855,36.2194592 C138.920055,35.0306909 139.974001,33.8474458 141.041306,32.7026208 L141.612645,33.2362651 C140.553547,34.3725119 139.507616,35.5469559 138.503858,36.726747 Z M291.3405,33.8289321 C290.290559,32.6850458 289.201309,31.5512868 288.103665,30.4595426 L288.654779,29.9045055 C289.760818,31.0048475 290.858083,32.1470087 291.916036,33.2994888 L291.3405,33.8289321 Z M144.876004,29.8922817 L144.32947,29.333024 C145.447152,28.2386082 146.603766,27.1565922 147.766864,26.1171974 L148.287432,26.7008832 C147.133123,27.7322866 145.985291,28.8060764 144.876004,29.8922817 L144.876004,29.8922817 Z M284.717222,27.240262 C283.566525,26.195696 282.378427,25.1654544 281.186131,24.1781898 L281.684574,23.5754074 C282.885652,24.5701353 284.082907,25.6081963 285.242383,26.6607851 L284.717222,27.240262 Z M151.839718,23.6682422 L151.346233,23.0616146 C152.555131,22.0762746 153.804471,21.104465 155.059774,20.1731602 L155.525393,20.8015404 C154.279458,21.7259841 153.039451,22.6903343 151.839718,23.6682422 L151.839718,23.6682422 Z M277.519171,21.2794166 C276.27764,20.3437191 275.000236,19.4255927 273.722449,18.550635 L274.163642,17.9050633 C275.451356,18.7865142 276.7383,19.7115173 277.989375,20.6544748 L277.519171,21.2794166 Z M159.336416,18.1069621 L158.900182,17.4579364 C160.193996,16.5866048 161.525982,15.7334193 162.8593,14.9214897 L163.265382,15.5899876 C161.94237,16.3956233 160.620514,17.2425072 159.336416,18.1069621 L159.336416,18.1069621 Z M269.804359,15.9981429 C268.483441,15.1799078 267.127033,14.3823026 265.772916,13.6270957 L266.153044,12.9437062 C267.51785,13.7046437 268.884564,14.5085505 270.215783,15.3327039 L269.804359,15.9981429 Z M167.304262,13.2560031 L166.929078,12.5695587 C168.297891,11.8198945 169.701435,11.0925735 171.10059,10.4074669 L171.444083,11.1103362 C170.055632,11.7900957 168.662777,12.5118778 167.304262,13.2560031 Z M261.635749,11.4434351 C260.244993,10.7499029 258.820266,10.079903 257.40125,9.45209392 L257.71726,8.73661739 C259.147329,9.36920254 260.583119,10.0443775 261.984569,10.7432374 L261.635749,11.4434351 Z M175.676292,9.15738769 L175.365624,8.43960329 C176.796072,7.81905424 178.259345,7.2239034 179.714605,6.67058356 L179.992085,7.4021056 C178.547881,7.95104442 177.095867,8.54161082 175.676296,9.15738769 L175.676292,9.15738769 Z M253.078238,7.65748038 C251.630993,7.09577009 250.149782,6.55981789 248.675441,6.06475397 L248.924282,5.32291696 C250.40969,5.82199421 251.902352,6.36194409 253.360662,6.92825055 L253.078238,7.65748038 Z M184.394863,5.84376635 L184.151384,5.10040379 C185.636796,4.61297929 187.152356,4.15401192 188.655699,3.73668385 L188.864657,4.49035747 C187.372746,4.90463446 185.86884,5.35997184 184.394867,5.84376635 L184.394863,5.84376635 Z M244.214655,4.68059185 C242.7239,4.25524103 241.20338,3.8591101 239.695453,3.50328462 L239.874838,2.74196768 C241.394595,3.10046871 242.926566,3.49965072 244.429151,3.92806043 L244.214655,4.68059185 Z M193.392238,3.34455843 L193.218204,2.58190763 C194.741017,2.23371765 196.292259,1.91646869 197.828622,1.63914183 L197.967542,2.40886096 C196.442633,2.68427502 194.903409,2.99904793 193.392238,3.34455843 Z M235.126621,2.53606722 C233.604574,2.25012695 232.054282,1.99573399 230.518501,1.7799058 L230.62689,1.00522282 C232.174525,1.22276821 233.73701,1.47908569 235.270891,1.76711086 L235.126621,2.53606722 Z M202.581204,1.68479448 L202.477774,0.909340904 C204.025018,0.702681585 205.598583,0.528872147 207.1546,0.393263704 L207.222536,1.17253503 C205.678352,1.30738071 204.116993,1.47966461 202.581204,1.68479448 L202.581204,1.68479448 Z M225.880217,1.23594649 C224.340614,1.09078976 222.773529,0.978862332 221.222096,0.903802034 L221.260259,0.122258045 C222.823136,0.198085023 224.402063,0.310771305 225.953496,0.457093708 L225.880217,1.23594649 Z M211.88333,0.8724816 L211.850502,0.0909141411 C213.287062,0.0309410058 214.751097,0.000383339894 216.202539,0 L216.556334,0.000575009842 L216.554044,0.782901325 L216.202539,0.782326315 C214.762169,0.782713567 213.308819,0.813079563 211.88333,0.8724816 L211.88333,0.8724816 Z" id="Shape" fill="#3F3D56"></path>
                    <path d="M315.443038,186.240876 C313.485573,186.240876 311.898734,184.652631 311.898734,182.693431 C311.898734,180.734231 313.485573,179.145985 315.443038,179.145985 C317.400503,179.145985 318.987342,180.734231 318.987342,182.693431 C318.985104,184.651702 317.399575,186.238636 315.443038,186.240876 L315.443038,186.240876 Z M315.443038,179.737226 C313.811817,179.737226 312.489451,181.060764 312.489451,182.693431 C312.489451,184.326097 313.811817,185.649635 315.443038,185.649635 C317.074259,185.649635 318.396624,184.326097 318.396624,182.693431 C318.394811,181.061516 317.073507,179.739041 315.443038,179.737226 L315.443038,179.737226 Z" id="Shape" fill="#2F2E41"></path>
                    <path d="M191.392405,69.7251289 L191.392405,95.2526816 C191.391095,95.7436952 190.993603,96.1414144 190.502869,96.1427257 L189.869753,96.1427257 L189.869753,229.12464 C189.869324,236.787624 183.660896,243 176.00229,243 L92.9569773,243 C89.2795673,243 85.7529311,241.537551 83.1529712,238.935381 C80.5530114,236.333211 79.0927284,232.804152 79.0934022,229.12464 L79.0934022,100.806712 L78.6350195,100.806712 C78.2887803,100.807228 78.0073696,100.527394 78.0057411,100.180961 L78.0057411,85.6526428 C78.0057112,85.4856432 78.0720004,85.3254749 78.1900195,85.2073883 C78.3080385,85.0893018 78.4681153,85.0229747 78.6350195,85.0230046 L79.0934022,85.0230046 L79.0934022,79.5505938 L78.6311312,79.5505938 C78.2676403,79.5491946 77.9746835,79.2535629 77.9746835,78.8898624 L77.9746835,64.5597639 C77.9746835,64.1973905 78.2689649,63.9038547 78.6311312,63.9029191 L79.0934022,63.9029191 L79.0934022,56.4327674 L78.6233546,56.4327674 C78.4687589,56.4329741 78.3204357,56.3716176 78.21112,56.2622394 C78.1018042,56.1528612 78.0404828,56.0044532 78.0406893,55.8497691 L78.0406893,48.0298185 C78.0399579,47.7069043 78.3006272,47.4443473 78.6233546,47.4429335 L79.0934022,47.4429335 L79.0934022,31.6086994 C79.093694,23.9478066 85.3004615,17.7372263 92.9569773,17.7372263 L176.002274,17.7372263 C183.659549,17.7372263 189.867612,23.9470475 189.869738,31.6086994 L189.869738,68.8350848 L190.502854,68.8350848 C190.993598,68.8363769 191.391105,69.2341048 191.392405,69.7251289 Z" id="Path" fill="#3F3D56"></path>
                    <rect id="Rectangle" fill="#E6E8EC" x="124.050633" y="21.2846715" width="17.721519" height="3.54744526" rx="1.77372263"></rect>
                    <ellipse id="Oval" fill="#E6E8EC" cx="141.772152" cy="23.0583942" rx="1.7721519" ry="1.77372263"></ellipse>
                    <path d="M182.531646,31.9068285 L182.531646,228.834291 C182.529391,233.719579 178.575681,237.678832 173.699246,237.678832 L93.8956973,237.678832 C91.5526262,237.682909 89.3042896,236.752516 87.6471198,235.093071 C85.9899501,233.433625 85.0602505,231.181618 85.0632911,228.834291 L85.0632911,31.9068285 C85.0632911,29.5600481 85.9937238,27.3093577 87.6501409,25.6499333 C89.3065581,23.990509 91.5531697,23.0583942 93.8956973,23.0583942 L105.839908,23.0583942 L105.839908,24.5936858 C105.839945,28.6175049 109.095974,31.8794457 113.112501,31.8794824 L153.69864,31.8794824 C157.715173,31.8794586 160.97121,28.6175103 160.971234,24.5936858 L160.971234,23.0583942 L173.699246,23.0583942 C176.041977,23.0583942 178.288973,23.9896324 179.945534,25.6492006 C181.602095,27.3087688 182.531646,29.5598447 182.531646,31.9068285 Z" id="Path" fill="#FFD15C"></path>
                    <rect id="Rectangle" fill="#000000" opacity="0.2" x="90.3797468" y="86.9124088" width="90.3797468" height="44.3430657"></rect>
                    <rect id="Rectangle" fill="#F2F2F2" x="232.151899" y="37.2481752" width="90.3797468" height="44.3430657"></rect>
                    <rect id="Rectangle" fill="#3F3D56" x="90.3797468" y="156.087591" width="90.3797468" height="44.3430657"></rect>
                    <ellipse id="Oval" fill="#FFFFFF" cx="170.126582" cy="47.8905109" rx="8.86075949" ry="8.86861314"></ellipse>
                    <polygon id="Path" fill="#3F3D56" points="173.670886 47.6370657 170.379409 47.6370657 170.379409 44.3430657 169.873361 44.3430657 169.873361 47.6370657 166.582278 47.6370657 166.582278 48.1439562 169.873361 48.1439562 169.873361 51.4379562 170.379409 51.4379562 170.379409 48.1439562 173.670886 48.1439562"></polygon>
                    <rect id="Rectangle" fill="#3F3D56" x="221.518987" y="31.9270073" width="90.3797468" height="44.3430657"></rect>
                    <path d="M263.012447,61.9934582 C265.442923,70.8098341 273.767856,76.270073 273.767856,76.270073 C273.767856,76.270073 278.152205,67.4360839 275.72173,58.6196844 C273.291254,49.8032849 264.966321,44.3430657 264.966321,44.3430657 C264.966321,44.3430657 260.581972,53.1770587 263.012447,61.9934582 Z" id="Path" fill="#FFFFFF"></path>
                    <path d="M265.772591,60.1144975 C272.13435,66.481895 272.911392,76.270073 272.911392,76.270073 C272.911392,76.270073 263.373985,75.734652 257.012223,69.3672544 C250.650461,62.9998568 249.873418,53.2116788 249.873418,53.2116788 C249.873418,53.2116788 259.410829,53.7470959 265.772591,60.1144975 Z" id="Path" fill="#FFD15C"></path>
                    <path d="M126.556751,184.38032 C128.987231,193.196695 137.31216,198.656934 137.31216,198.656934 C137.31216,198.656934 141.696509,189.822941 139.266034,181.006565 C136.835558,172.190189 128.510625,166.729927 128.510625,166.729927 C128.510625,166.729927 124.126276,175.56392 126.556751,184.38032 Z" id="Path" fill="#FFFFFF"></path>
                    <path d="M129.316891,184.275081 C135.678649,190.642479 136.455696,200.430657 136.455696,200.430657 C136.455696,200.430657 126.918285,199.895236 120.556523,193.527838 C114.194761,187.160441 113.417722,177.372263 113.417722,177.372263 C113.417722,177.372263 122.955129,177.90768 129.316891,184.275081 Z" id="Path" fill="#FFD15C"></path>
                    <path d="M146.354641,184.38032 C143.924162,193.196695 135.599233,198.656934 135.599233,198.656934 C135.599233,198.656934 131.214883,189.822941 133.645359,181.006565 C136.075834,172.190189 144.400767,166.729927 144.400767,166.729927 C144.400767,166.729927 148.785117,175.56392 146.354641,184.38032 Z" id="Path" fill="#FFFFFF"></path>
                    <path d="M143.594499,184.275081 C137.232739,190.642479 136.455696,200.430657 136.455696,200.430657 C136.455696,200.430657 145.993105,199.895236 152.354868,193.527838 C158.716632,187.160441 159.493671,177.372263 159.493671,177.372263 C159.493671,177.372263 149.956262,177.90768 143.594499,184.275081 Z" id="Path" fill="#FFD15C"></path>
                    <path d="M241.012658,133.029197 L233.924051,133.029197 L233.924051,125.934307 L241.012658,125.934307 L241.012658,133.029197 Z M234.469328,132.483435 L240.467381,132.483435 L240.467381,126.480072 L234.469328,126.480072 L234.469328,132.483435 Z" id="Shape" fill="#3F3D56"></path>
                    <path d="M36.1749088,177.372263 L31.8987342,172.783618 L36.483319,168.50365 L40.7594937,173.092285 L36.1749088,177.372263 Z M32.580324,172.807362 L36.1986317,176.690063 L40.077888,173.068551 L36.4595802,169.185849 L32.580324,172.807362 Z" id="Shape" fill="#2F2E41"></path>
                    <ellipse id="Oval" fill="#3F3D56" cx="42.5316456" cy="53.2116788" rx="3.5443038" ry="3.54744526"></ellipse>
                    <path d="M43.4178899,65.6277372 C38.7589625,65.6277372 34.5587831,62.8187796 32.7758888,58.5106769 C30.9929944,54.2025742 31.9784957,49.2437334 35.2728548,45.9464544 C38.567214,42.6491753 43.5216634,41.6628005 47.8259511,43.4472751 C52.1302387,45.2317497 54.9367089,49.4356519 54.9367089,54.0987086 C54.9295925,60.4630627 49.7766079,65.6206145 43.4178899,65.6277372 Z M43.4178899,43.4565394 C37.5455847,43.4565394 32.7851409,48.2212026 32.7851409,54.0987126 C32.7851409,59.9762226 37.5455847,64.7408858 43.4178899,64.7408858 C49.290195,64.7408858 54.0506389,59.9762226 54.0506389,54.0987126 C54.0439262,48.2239878 49.2874122,43.463258 43.4178899,43.4565394 L43.4178899,43.4565394 Z" id="Shape" fill="#2F2E41"></path>
                    <rect id="Rectangle" fill="#3F3D56" x="0" y="241.226277" width="409.367089" height="1.77372263"></rect>
                    <rect id="Rectangle" fill="#3F3D56" x="108.101266" y="81.5912409" width="90.3797468" height="44.3430657"></rect>
                    <rect id="Rectangle" fill="#FFFFFF" x="154.177215" y="97.5547445" width="1.7721519" height="30.1532847"></rect>
                    <ellipse id="Oval" fill="#FFD15C" cx="154.177215" cy="97.5547445" rx="3.5443038" ry="3.54744526"></ellipse>
                    <path d="M155.949367,113.518248 C155.949367,113.518248 155.289962,101.60292 141.772152,102.987935" id="Path" fill="#FFFFFF"></path>
                    <path d="M280,202.503177 L229.305209,218.167883 L166.242636,178.863441 L166.2398,178.86064 L166.03306,178.734761 L165.999044,178.712397 L165.497755,178.401885 L159.493671,174.670338 C159.505012,174.56964 159.519185,174.471729 159.538972,174.37663 C159.630997,173.915496 159.843901,173.486278 160.156423,173.131842 C160.265236,173.004765 160.384587,172.88687 160.513236,172.779383 L160.516073,172.779383 C160.572735,172.731834 160.632198,172.684269 160.694497,172.639521 C160.756792,172.591973 160.821921,172.547219 160.889884,172.505258 C162.051077,171.73601 163.801303,171.408717 165.625166,171.310816 C169.563909,171.126092 173.482795,171.965234 176.990463,173.744443 C184.079244,177.285777 199.315949,184.253784 201.692127,179.985148 C204.80745,174.390613 169.406061,112.011535 169.406061,112.011535 C166.491802,104.612759 168.624395,102.195914 169.961145,101.435066 C170.000833,101.412683 170.040451,101.390299 170.077306,101.370716 C170.218905,101.298788 170.365596,101.23709 170.516226,101.186106 C170.594941,101.157911 170.675348,101.134555 170.756985,101.116173 C170.778388,101.110211 170.800139,101.105541 170.822117,101.10219 L175.517777,107.267363 L175.588582,107.359676 L175.840607,107.692553 L175.91708,107.79325 L204.382633,145.159168 C247.997143,121.941845 263.007333,184.041195 263.007333,184.041195 L280,202.503177 Z" id="Path" fill="#FBBEBE"></path>
                    <path d="M175.443038,105.762532 C175.252761,106.177016 174.850091,106.435406 174.413897,106.422925 C174.272458,106.422404 174.131684,106.402467 173.995118,106.363617 C173.045154,106.09405 171.944501,104.994332 171.12222,103.49296 C170.320328,102.026628 169.990956,100.552201 170.177371,99.5737463 C170.30505,99.5044359 170.437319,99.444983 170.57314,99.395855 C170.644117,99.3686855 170.716619,99.3461799 170.79023,99.3284672 C170.460794,100.01041 170.657432,101.5603 171.566559,103.223412 C172.309659,104.584617 173.315797,105.614267 174.125359,105.840695 C174.325679,105.928999 174.55358,105.913465 174.741476,105.798698 C174.929372,105.683931 175.055691,105.483109 175.082973,105.255785 L175.146817,105.344738 L175.374066,105.6655 L175.443038,105.762532 Z" id="Path" fill="#3F3D56"></path>
                    <path d="M164.782973,175.59854 L164.752358,175.579016 L164.301168,175.307938 C164.303717,174.611959 163.753143,173.471546 162.537238,172.326236 C161.509956,171.366519 160.317012,170.736473 159.493671,170.70717 C159.591609,170.596232 159.699032,170.493309 159.814824,170.399472 L159.817376,170.399472 C159.868376,170.357962 159.921896,170.316437 159.977969,170.277372 C161.087884,170.591051 162.093074,171.176925 162.89408,171.977027 C164.229786,173.234662 164.963949,174.66813 164.782973,175.59854 Z" id="Path" fill="#3F3D56"></path>
                    <path d="M372.956477,177.596962 C384.325862,210.413563 380.332923,241.226277 380.332923,241.226277 C380.332923,241.226277 357.906569,218.832777 346.537192,186.016176 C335.167815,153.199576 339.160746,122.386861 339.160746,122.386861 C339.160746,122.386861 361.587091,144.780366 372.956477,177.596962 Z" id="Path" fill="#FFD15C"></path>
                    <path d="M385.524538,177.596962 C374.155154,210.413563 378.148088,241.226277 378.148088,241.226277 C378.148088,241.226277 400.57444,218.832777 411.94382,186.016176 C423.313201,153.199576 419.320266,122.386861 419.320266,122.386861 C419.320266,122.386861 396.893922,144.780366 385.524538,177.596962 Z" id="Path" fill="#FFD15C"></path>
                    <path d="M389.843358,177.08444 C390.569545,212.350041 377.897156,241.226277 377.897156,241.226277 C377.897156,241.226277 364.047385,212.925683 363.321199,177.660086 C362.595012,142.394488 375.267401,113.518248 375.267401,113.518248 C375.267401,113.518248 389.117172,141.818842 389.843358,177.08444 Z" id="Path" fill="#3F3D56"></path>
                    <ellipse id="Oval" fill="#000000" cx="375.696203" cy="145.445255" rx="3.5443038" ry="3.54744526"></ellipse>
                    <ellipse id="Oval" fill="#000000" cx="369.493671" cy="174.711679" rx="2.65822785" ry="2.66058394"></ellipse>
                    <ellipse id="Oval" fill="#3F3D56" cx="346.455696" cy="155.20073" rx="2.65822785" ry="2.66058394"></ellipse>
                    <ellipse id="Oval" fill="#3F3D56" cx="413.797468" cy="137.463504" rx="2.65822785" ry="2.66058394"></ellipse>
                    <ellipse id="Oval" fill="#3F3D56" cx="357.088608" cy="174.711679" rx="2.65822785" ry="2.66058394"></ellipse>
                    <ellipse id="Oval" fill="#3F3D56" cx="397.848101" cy="162.29562" rx="2.65822785" ry="2.66058394"></ellipse>
                    <ellipse id="Oval" fill="#3F3D56" cx="358.860759" cy="203.091241" rx="2.65822785" ry="2.66058394"></ellipse>
                    <ellipse id="Oval" fill="#3F3D56" cx="397.848101" cy="188.90146" rx="2.65822785" ry="2.66058394"></ellipse>
                    <ellipse id="Oval" fill="#000000" cx="381.898734" cy="190.675182" rx="2.65822785" ry="2.66058394"></ellipse>
                </g>
            </g>
        </g>
    </g>
</svg>