<?xml version="1.0" encoding="UTF-8"?>
<svg width="560px" height="454px" viewBox="0 0 560 454" version="1.1" xmlns="http://www.w3.org/2000/svg" xmlns:xlink="http://www.w3.org/1999/xlink">
    <!-- Generator: Sketch 61.2 (89653) - https://sketch.com -->
    <title>4</title>
    <desc>Created with Sketch.</desc>
    <g id="Agency-2" stroke="none" stroke-width="1" fill="none" fill-rule="evenodd">
        <g id="Agency-1" transform="translate(-172.000000, -1602.000000)">
            <g id="4" transform="translate(172.000000, 1602.000000)">
                <rect id="Rectangle-Copy-16" fill="#FFFFFF" x="0" y="0" width="560" height="454"></rect>
                <g id="undraw_connected_world_wuay" transform="translate(94.000000, 89.000000)">
                    <path d="M344.553271,67.3347768 C302.105001,8.4375068 212.435047,-15.4537789 124.247528,10.2777036 C77.6254355,23.8811688 32.6731398,51.1377291 10.3958727,103.915218 C-29.4271349,198.260685 54.1862983,228.392329 108.860388,237.995648 C135.297819,242.639293 160.197393,250.439595 182.950844,261.059719 C223.886364,280.166277 296.34504,297.096711 350.983679,217.509029 C390.585832,159.823775 372.828013,106.566177 344.553271,67.3347768 Z" id="Path" fill="#FFF7E2" fill-rule="nonzero"></path>
                    <path d="M98.6400521,80.471596 C98.5231793,79.5359714 98.286813,78.6196762 97.9368825,77.7456957 C97.8466563,77.4115206 97.6218482,77.1311488 97.3173984,76.9730993 C97.1161254,76.920108 96.9051142,76.9177154 96.7027198,76.9661298 L93.5468646,77.4551068 C93.2827241,77.4673224 93.0298099,77.5668318 92.8268196,77.7384093 C92.4157845,78.1761253 92.8205312,78.8809587 92.8079482,79.484835 C92.7937977,80.1638874 92.1979624,80.7150771 91.5518356,80.8974353 C90.8922925,81.0323774 90.2119576,81.0238358 89.5559213,80.8723766 L85.1431026,80.1779754 C86.4427342,79.7578296 87.5995287,78.9761465 88.481443,77.9221519 C89.062158,77.2255458 89.3711054,75.925 88.5318439,75.5951187 C88.2824819,75.5258255 88.0224666,75.504685 87.7653806,75.5328015 C85.7660655,75.5485432 84.1927713,73.8582097 82.3210792,73.1462959 C79.863716,72.2720338 77.1298221,73.0972948 75.5463183,75.1913444 L77.897079,75.3061107 C78.1182367,75.2937514 78.337541,75.3529768 78.5232487,75.475214 C79.0384269,75.9038253 78.3979284,76.7270934 78.4705045,77.3982511 C78.564799,78.2702301 79.7081774,78.4564088 80.5700739,78.5445831 C81.4319705,78.6327573 82.5253859,79.3418579 82.1107968,80.1120688 C77.7788073,81.623003 73.3705375,77.1585209 68.8210324,77.7080855 C67.6695792,77.8471786 66.5822926,78.3052267 65.4580985,78.5932463 C58.5907013,80.3526829 51.4910312,75.658304 44.4756036,76.6524907 C42.9159911,76.9217187 41.3831599,77.3310778 39.8952792,77.8757157 C38.9404679,78.1931722 37.944538,78.5362386 37.2507791,79.2724761 C36.5570202,80.0087136 36.29298,81.2678159 36.95021,82.0376561 C35.1387143,82.1887083 33.3151189,82.0131803 31.5641715,81.5192296 C32.5286354,82.0621043 33.1235476,83.0947691 33.115519,84.2121006 C30.2870853,84.6791382 27.5335445,85.5293104 24.9289628,86.739749 C25.4150765,87.5583074 25.9828576,88.3241945 26.623385,89.0253768 L23.042654,91.3547891 C24.2523952,91.6634291 24.877861,93.3338012 24.1743535,94.3770377 C25.4287172,93.8119754 26.2061117,92.3502019 27.5474459,92.0538378 C28.426199,91.8596789 29.3203509,92.2236919 30.1539811,92.5656432 C30.9876112,92.9075945 31.9038537,93.2391738 32.766839,92.9825329 C33.6298243,92.7258921 34.2663527,91.592796 33.7179868,90.8708745 C37.4066065,89.7810962 41.2187168,89.1780079 45.0598258,89.0765586 C45.3561639,89.038901 45.6566899,89.0966524 45.9188003,89.241626 C46.4188207,89.5929006 46.287262,90.3516244 46.2603284,90.9672602 C46.2333947,91.582896 46.7072448,92.3920001 47.2506237,92.1145077 C46.611336,92.6758444 47.1578435,93.7325986 47.7711736,94.3228843 C48.3845038,94.91317 49.1237425,95.7276723 48.7482477,96.4955167 C48.6502459,96.6959197 48.4840261,96.8562636 48.3897316,97.0584818 C48.1114002,97.6553791 48.5533203,98.3512565 49.0745711,98.7476463 C49.5958218,99.1440361 50.2342993,99.4210692 50.596385,99.9699684 C50.9584708,100.518868 50.7940405,101.479661 50.1465716,101.55631 L48.3062463,99.1902473 C47.6774872,99.8504466 47.2464329,100.677607 47.0630734,101.575803 C49.0145843,103.191226 49.3081204,106.479268 47.6743294,108.422878 C46.8394197,109.416111 45.6521165,110.019642 44.6158596,110.794364 C43.5796028,111.569086 42.6207337,112.672286 42.6233398,113.976595 C42.6278418,116.230008 42.4460105,118.32352 43.2799096,120.412746 C44.8176273,124.265053 46.5929769,128.015668 48.5954556,131.642402 C49.1213147,132.594746 49.8009357,133.638562 50.8662193,133.80254 C49.5199107,130.483724 48.307966,127.113275 47.2303851,123.691192 C47.9322407,123.693973 48.743314,123.750401 49.1547558,124.326181 C49.4954548,124.802961 49.4222686,125.451196 49.5281325,126.029871 C49.6627807,126.59051 49.887309,127.124996 50.1927803,127.612056 L56.6217926,139.208373 C57.1547472,140.169689 57.7660783,141.201565 58.7846588,141.590871 C59.4358914,141.839772 60.1893368,141.792883 60.7887449,142.151229 C61.2585779,142.432111 61.5750213,142.930703 62.0539897,143.195286 C63.4082917,143.943397 65.2915877,142.508633 66.5572235,143.401838 C66.9191059,143.657234 67.1493265,144.062966 67.4827735,144.35537 C68.6516934,145.380406 70.5692125,144.694682 71.9186059,145.459333 C72.7882675,145.95214 73.2389757,146.937723 73.7028363,147.83088 C74.8647576,150.068136 76.7448092,152.259972 79.2349155,152.43812 C80.017106,152.494079 80.8160843,152.343905 81.5806704,152.520073 C82.3452566,152.696241 83.0979105,153.371922 82.9751775,154.156161 C82.7647669,155.50065 83.4207799,156.972846 83.2445956,158.322365 C82.9236722,160.780556 79.4802907,161.860801 79.1845177,164.322223 C79.1197567,164.861152 79.2211217,165.41743 79.0943967,165.944951 C78.9390767,166.591488 78.459564,167.117888 78.2891738,167.760518 C77.9662731,168.978354 78.8279319,170.190355 79.774512,171.009676 C80.7210921,171.828997 81.8501918,172.5355 82.3676977,173.682421 C82.9146901,174.894694 82.6460103,176.308197 82.8239027,177.628768 C83.2122621,180.511749 85.6713737,182.648986 88.2021355,184.027042 C88.9732071,184.446907 89.8011182,184.85339 90.3001875,185.581764 C90.9515797,186.532445 90.8866873,187.785725 91.1041997,188.921672 C91.6369009,191.703646 93.9496997,193.995876 94.015368,196.828882 C94.0620428,198.842488 92.9566669,200.669222 92.2963615,202.569165 C91.0436734,206.252713 91.4378105,210.306106 93.3759144,213.671525 C93.8698685,214.516107 94.4606512,215.312397 94.8100758,216.228002 C95.4336269,217.861898 95.2313005,219.719256 95.8062309,221.371337 C96.5663401,223.555529 98.654969,225.359609 98.4550672,227.666585 C99.4032992,229.660528 101.497172,230.640253 103.602666,231.233726 L107.376191,232.297373 C108.098726,232.501036 108.853746,232.706315 109.589477,232.558849 C110.325209,232.411382 111.027358,231.792759 111.008365,231.033544 C109.157881,230.610959 107.248049,230.161585 105.722631,229.019748 C104.197213,227.877911 103.152274,225.844578 103.731043,224.015297 C103.999413,223.167069 104.570364,222.187559 104.027548,221.486686 C103.716749,221.085392 103.148426,220.980548 102.797869,220.614403 C102.251077,220.043328 102.438934,219.083954 102.832027,218.395299 C103.225119,217.706645 103.793295,217.091231 103.95185,216.312184 C104.115777,215.419632 103.71459,214.517931 102.945759,214.050909 C103.645452,213.783425 104.281795,213.369977 104.813503,212.837387 C105.304685,212.269398 105.53157,211.393741 105.145188,210.74806 C106.292593,210.895412 107.647221,210.967578 108.400428,210.078793 C109.001895,209.369062 108.960582,208.30799 108.722925,207.404249 C108.485268,206.500508 108.083572,205.622716 108.071058,204.687571 C110.717914,204.814605 113.370589,204.723523 116.002869,204.415226 C115.62223,203.117124 114.75725,202.020186 113.591339,201.357009 C114.783501,201.152753 115.869583,199.707517 116.246226,198.544094 C116.622869,197.38067 116.526813,196.113407 116.294014,194.911968 C116.204606,194.602646 116.192352,194.275699 116.258349,193.960404 C116.392598,193.52718 116.812878,193.262816 117.201713,193.036704 L123.119173,189.595425 C123.472288,189.416271 123.792369,189.176995 124.065437,188.888047 C124.685412,188.150638 124.593574,187.037478 124.276126,186.123935 C123.958679,185.210392 123.450189,184.351348 123.327913,183.39085 C122.962186,180.518266 125.99895,178.4572 127.023806,175.753143 C127.426,174.691972 127.507968,173.5385 127.5858,172.404593 C127.669395,171.186734 127.675608,169.772138 126.752148,168.987323 C125.866931,168.235018 124.48379,168.402832 123.557508,167.703064 C122.708269,167.061495 122.415275,165.815479 121.487528,165.297275 C120.644994,164.826672 119.588621,165.125973 118.651564,164.904639 C117.00168,164.514937 115.963402,162.589435 114.278403,162.411148 C113.327696,162.310555 112.251707,162.781189 111.472504,162.220534 C110.785909,161.726513 110.758394,160.733559 110.627699,159.890998 C110.158596,157.209053 108.089271,155.106903 105.442225,154.623269 C104.461991,154.464091 103.395018,154.524543 102.561116,153.979071 C101.716721,153.426728 101.329556,152.392625 100.666279,151.627714 C99.5972818,150.394919 97.9136498,149.956924 96.3364793,149.581478 L89.9212295,148.054336 C88.7824,147.783237 87.3144565,147.639486 86.7033288,148.649624 C86.522422,149.034239 86.3943501,149.442116 86.3226783,149.8619 C85.852897,151.419819 84.4445586,152.493215 82.8361103,152.519265 C82.2984813,151.590628 81.4274178,150.908144 80.4047457,150.614276 C79.7542296,150.430701 79.0579303,150.410283 78.437514,150.140204 C77.7546296,149.802687 77.239139,149.195312 77.0122879,148.460935 C76.7854367,147.726558 76.8672466,146.929995 77.2384755,146.258601 C77.9988355,144.887773 77.7579934,143.171084 76.6506868,142.068925 C75.5597023,141.077133 73.9815619,140.837498 72.5186992,140.936735 C72.1355645,140.090207 72.7761788,139.135107 73.466512,138.519924 C74.1568451,137.904741 74.9951211,137.299937 75.1454448,136.381275 C75.3819256,134.936215 73.5610567,133.838658 72.1785226,134.269531 C70.7959886,134.700404 69.913575,136.0602 69.3302695,137.400596 C68.9955898,138.169663 68.7110608,138.979515 68.1831431,139.628 C67.6552254,140.276484 66.8050766,140.740802 66.0009581,140.532688 C64.8625541,140.238066 64.4228865,138.868509 64.1709351,137.706379 C63.8328953,136.147174 63.4928877,134.566338 63.5637181,132.971614 C63.6345484,131.37689 64.1654664,129.739475 65.3267651,128.659905 C67.2191557,126.900693 70.1222054,127.073148 72.6761403,127.353774 C72.0727526,126.665373 72.2218749,125.505203 72.8674699,124.857248 C73.5593709,124.234762 74.5101232,123.998246 75.4081147,124.225218 C76.1776978,124.387432 76.8709821,124.807171 77.3763507,125.416858 C78.1021084,126.31285 78.3084895,127.522611 78.8570587,128.539633 C79.4056279,129.556654 80.6391304,130.4241 81.6487508,129.878473 C82.5207964,129.407195 82.6592065,128.182735 82.4421697,127.206232 C82.2251328,126.229729 81.7641692,125.280182 81.8427865,124.282425 C81.9928005,122.378589 83.9417678,121.232615 85.6616158,120.448541 C87.3814638,119.664467 89.350798,118.609991 89.6232696,116.720141 C89.6325856,116.350119 89.7015223,115.984121 89.8273574,115.636602 C90.0180623,115.32966 90.2831509,115.077229 90.597406,114.903323 C95.6168317,111.54436 100.719736,108.144394 106.456704,106.308992 C106.755168,106.2135 106.790208,106.319627 107.094387,106.244815 C107.520101,105.99567 107.238022,105.306445 106.829862,105.028798 C106.421702,104.75115 105.876146,104.538227 105.772594,104.051493 C105.696473,103.693699 105.904659,103.342377 105.958742,102.980492 C106.091631,102.091242 105.041067,101.27021 104.225213,101.625723 C103.764378,101.007724 104.676237,100.289639 105.413558,100.084082 C107.627612,99.4670684 109.900381,99.0911178 112.193243,98.9626188 C112.45783,98.9200194 112.728908,98.9667092 112.964706,99.0954932 C113.349809,99.3656138 113.300606,99.9851716 113.027681,100.37073 C112.754756,100.756288 112.330218,100.998366 111.99011,101.324607 C111.232639,102.071811 110.949359,103.184093 111.255489,104.209049 C112.452472,104.825591 113.753798,105.460279 115.079515,105.243076 C116.405231,105.025874 117.581907,103.517559 116.958769,102.31294 C116.378485,101.19116 114.635427,100.938146 114.33568,99.7086992 C113.984729,98.2692345 115.997068,96.9889923 115.543773,95.5791545 C115.345216,94.9615989 114.737424,94.5981529 114.271044,94.1522983 C113.14366,93.0333833 112.811269,91.3279159 113.43433,89.8591911 C111.892851,90.1337887 110.315619,89.6339986 109.203705,88.5185989 C108.191782,87.4844925 107.384485,85.8532133 105.947536,85.8994847 C104.628899,85.9419356 103.493117,87.4997242 102.260121,87.0244677 C101.956784,86.9075472 101.636958,86.6695752 101.343047,86.8090073 C101.147889,86.9373245 101.021767,87.1493162 101.000965,87.3839949 C100.687628,88.900945 101.226652,90.6293227 100.410173,91.9401486 C99.5216866,93.3665834 97.4665833,93.5643443 96.3894644,94.8506342 C95.8047667,95.5488781 95.5782316,96.4897605 95.0407938,97.2259061 C94.5033559,97.9620518 93.3626618,98.4300885 92.7176926,97.7885671 C93.3704693,96.4296878 93.0096598,94.7943568 91.8478277,93.8459963 C91.2490193,93.4503974 90.6035399,93.1324749 89.9265261,92.899684 C89.1700221,92.5754306 88.4503644,92.169289 87.7801036,91.6883421 C87.4443437,91.4832566 87.1715233,91.1876605 86.9921346,90.8345917 C86.8502365,90.3924947 86.8693522,89.9135615 87.0460208,89.484502 C87.7125702,87.5494184 89.3829294,86.147506 91.3844238,85.8433324 C92.2431731,85.7250307 93.2426413,85.7667149 93.8109485,85.1041582 C94.1116522,84.7535868 94.2694312,84.2235592 94.7059076,84.0811777 C94.9850971,84.0243779 95.2749403,84.0605211 95.5321794,84.1842129 L98.7374813,85.3266419 C99.0951124,85.4901299 99.488753,85.5560555 99.8793236,85.5178736 C100.281037,85.4630702 100.57299,85.1037693 100.548724,84.6940542 C100.446311,84.1550517 99.6272564,83.8963992 99.7017847,83.3527334 C99.7435286,83.1765522 99.8370681,83.0173372 99.9700484,82.8961173 C102.312174,80.3718255 105.645451,79.03894 109.058891,79.2617398 C109.463453,79.9345545 108.823624,80.7312844 108.291242,81.3056479 C107.75886,81.8800113 107.331034,82.906258 107.974867,83.3483743 C108.238715,83.4847293 108.532207,83.5516593 108.828307,83.5429989 C109.617451,83.6511602 110.384372,83.8867103 111.099884,84.2406853 C112.207497,84.7287774 113.293854,85.2628188 114.358954,85.8428096 C114.264872,85.131691 114.175079,84.3825345 114.441263,83.7176177 C114.707446,83.0527008 115.463963,82.5311634 116.124751,82.7901105 C116.761573,83.0396678 117.088172,83.8935163 117.766635,83.9717432 C118.671665,84.0760931 119.02872,82.7222176 118.650682,81.8830494 C118.272644,81.0438813 117.524266,80.341218 117.461799,79.4210351 C117.419654,78.800245 117.652953,78.0303288 117.163244,77.65442 C116.988979,77.5415636 116.791165,77.4713268 116.585458,77.4492682 L104.357876,75.1708128 C103.631778,75.0355117 102.582691,75.1392122 102.550491,75.8860973 C102.532515,76.3030028 102.900285,76.7154479 102.737397,77.0987603 C102.563547,77.5078726 101.992427,77.4704683 101.576449,77.6151688 C100.93101,77.8396863 100.607131,78.6157548 100.66912,79.3039594 C100.782617,79.987795 101.04416,80.6377224 101.434988,81.2071239 C100.639655,80.8703142 99.4353856,80.8084025 98.6400521,80.471596 Z" id="Path" fill="#3F3D56" fill-rule="nonzero"></path>
                    <path d="M88.9934313,69.4787942 C87.6557618,68.8829611 86.1840373,69.4761979 85.3098912,70.963591 C85.1393816,71.2657662 84.9961837,71.682324 85.1389259,72.0095269 C85.3435829,72.4786184 85.8650474,72.2933362 86.2495033,72.1255355 C86.8145833,71.8538029 87.4296336,71.8340546 88.0036976,72.0692109 C88.3647022,72.236038 88.6876725,72.5308811 89.0502537,72.6914032 C89.4099211,72.893883 89.8232544,72.8125848 90.1248342,72.4800449 C90.3736752,72.1384523 90.389289,71.6073944 90.3897288,71.128988 C90.424684,70.8047913 90.3491013,70.4766719 90.1840173,70.2359531 C90.0388821,70.1228087 89.8757924,70.0578814 89.7082815,70.0465591 C89.3331284,69.953094 88.9939646,69.6863621 88.7492773,69.2923602" id="Path" fill="#3F3D56" fill-rule="nonzero"></path>
                    <path d="M94.6027092,65.700415 C94.3847717,65.6787183 94.1764055,65.8662457 94.0529058,66.195232 C93.9294061,66.5242183 93.9086313,66.9470918 93.9980885,67.3110424 C94.3272051,67.4751251 94.6710494,67.5161106 95.0090345,67.4315452 C95.3537486,67.3337096 95.6324712,66.8665442 95.7156398,66.2472081 C95.3177127,66.3795897 94.90708,66.2362203 94.5638471,65.845068" id="Path" fill="#3F3D56" fill-rule="nonzero"></path>
                    <path d="M107.173811,65.4885076 C105.664424,65.8481403 104.198224,66.4063206 102.805687,67.1514472 C104.153451,67.7320263 105.004312,69.2315656 104.90183,70.8456439 C104.842916,71.1474722 104.849738,71.460763 104.92172,71.7590114 C105.082144,72.1948731 105.547021,72.3584189 105.955713,72.470293 C106.689987,72.7207289 107.456725,72.830405 108.223589,72.7946951 C109.002913,72.7489955 109.708977,72.2654584 110.100802,71.5091136 C110.211939,71.1557694 110.342309,70.810397 110.491179,70.4749415 C111.470812,68.8029209 114.381043,70.8246421 115.432834,69.2086154 C115.803342,68.6393458 115.769453,67.7824419 116.252451,67.3313498 C116.50231,67.1348186 116.791849,67.0109873 117.095016,66.9709979 C119.210172,66.500046 121.34672,66.1590326 123.495097,65.9494842 C124.513048,65.8502097 125.839871,65.440582 125.848341,64.2955191 C122.014134,63.4516191 118.038558,64.0509885 114.539666,66.0004478 C113.279052,66.7080493 111.611759,68.1965092 110.397472,67.2584011 C109.942816,66.9071558 109.965328,65.9613427 109.339569,65.5663766 C108.699803,65.1625717 107.852937,65.3268073 107.173811,65.4885076 Z" id="Path" fill="#3F3D56" fill-rule="nonzero"></path>
                    <path d="M121.143309,67.8129925 L122.87758,68.1550028 C122.231768,68.1256486 121.604915,68.3831376 121.157167,68.861688 C120.709418,69.3402385 120.484141,69.9934995 120.538888,70.6545797 C122.162961,71.2114082 123.933571,70.669551 125.644351,70.7435693 C127.355132,70.8175875 129.345636,72.0717987 129.053597,73.8034294 C128.965293,74.327016 128.670585,74.8502529 128.823837,75.3578094 C128.931251,75.7135574 129.236944,75.9659822 129.409491,76.2936233 C129.769048,76.9763648 129.481677,77.8399315 129.027665,78.4605665 C128.573653,79.0812015 127.963402,79.5763994 127.564885,80.2359619 C126.573719,81.8763916 127.136852,83.9971418 127.727285,85.8297968 C127.898006,86.5222565 128.213255,87.1683896 128.651224,87.7235029 C129.525975,88.6780634 130.951498,88.7610826 132.228167,88.7802048 C133.157371,88.7941271 134.221813,88.7470081 134.80943,88.0081175 C135.576589,87.0434584 135.040149,85.5383862 135.545232,84.4062285 C136.003947,83.3779994 137.172656,82.9368784 138.231524,82.6240209 C140.171383,82.0508611 142.148291,81.5635827 143.982224,80.6978337 C146.259507,79.6227964 148.38778,77.947467 150.890778,77.8090855 C151.592989,77.7702648 152.312601,77.8553206 152.989006,77.6578598 C153.665411,77.460399 154.307948,76.8602008 154.256741,76.140374 C154.212985,75.5253339 153.705978,75.0736999 153.30981,74.6100538 C152.913643,74.1464077 152.602527,73.4334547 152.96663,72.9429094 L159.527315,71.6852306 C159.062265,70.3844799 158.699979,68.6713659 159.768615,67.8246905 C160.154185,67.5192054 160.670433,67.3971065 160.99872,67.0277924 C161.558247,66.398341 161.276886,65.3140503 160.630999,64.7787365 C159.985112,64.2434228 159.111797,64.1191547 158.284455,64.0486235 C155.407742,63.803422 152.514511,63.9654489 149.63223,64.1275987 C143.997982,64.444566 138.363733,64.7615322 132.729483,65.0784973 C131.595262,65.1423037 130.28573,65.0448247 129.245468,65.4419641 C128.364812,65.778182 127.738652,66.3953461 126.731435,66.6121816 C124.872069,67.0124843 122.825861,66.7416042 121.143309,67.8129925 Z" id="Path" fill="#3F3D56" fill-rule="nonzero"></path>
                    <path d="M151.46582,82.6998939 C151.265493,82.6773619 151.060644,82.7103859 150.893591,82.7921435 C150.783132,82.8785951 150.717428,82.9892273 150.707315,83.1057911 C150.580399,83.6202312 150.731578,84.1497625 151.130576,84.5883379 C151.544502,85.0264916 152.260348,85.2704481 153.000134,85.2254731 C153.885334,85.1452367 154.537688,84.6084269 155.351492,84.3464824 C156.605766,83.9431245 161.932443,83.3143218 158.247734,81.8992865 C156.977904,81.4116327 156.157376,81.8421156 155.156544,82.1632696 C154.017829,82.5773544 152.741819,82.7628838 151.46582,82.6998939 Z" id="Path" fill="#3F3D56" fill-rule="nonzero"></path>
                    <path d="M180.103061,64.9852132 C179.691142,65.1331613 179.346546,65.3968658 179.12308,65.7351493 C178.909243,66.0919054 179.051219,66.5334088 179.445869,66.7389287 C179.599724,66.7879716 179.762822,66.8107164 179.926387,66.8059397 L181.601258,66.8499284 C182.312778,66.8686164 183.201549,67.0018377 183.392746,67.6046471 C183.534719,68.0522515 183.216958,68.6274276 183.600359,68.9472947 C183.764902,69.059315 183.962754,69.1271569 184.170116,69.1426599 C184.721838,69.2672583 185.297986,69.2836049 185.857698,69.1905404 C187.076335,68.9031735 186.436004,68.2492872 186.819819,67.66705 C187.407077,66.7761875 187.305414,67.3154684 188.340183,66.8048953 C189.104365,66.4278324 190.091851,65.7438327 189.45402,64.7828019 C188.344842,63.1115919 181.739803,64.2672656 180.103061,64.9852132 Z" id="Path" fill="#3F3D56" fill-rule="nonzero"></path>
                    <path d="M209.762432,65.8007805 L208.762256,65.8723884 C206.506833,66.033867 204.238629,66.1968322 202.066351,66.5602137 C203.006664,66.7596787 203.993199,66.8895568 204.9988,66.9462726 C205.552361,66.9608307 206.102236,67.0027672 206.641431,67.0715486 C207.600895,67.2247912 208.567683,67.6205123 209.49464,67.4178008 C210.069379,67.2921111 210.25693,66.9710429 210.733026,66.8008845 C211.061774,66.6833892 212.308659,66.4932169 212.448049,66.374626 C213.574926,65.4158947 210.628636,65.7387649 209.762432,65.8007805 Z" id="Path" fill="#3F3D56" fill-rule="nonzero"></path>
                    <path d="M215.037665,68.466057 C213.844576,69.2646723 212.73763,70.2351029 211.741518,71.3557021 C211.321856,71.8279556 210.893208,72.4153102 210.931272,73.1032975 C210.981849,74.0177006 211.795527,74.5480994 212.50047,74.9053872 L215.355809,76.3525641 C215.702199,75.7681152 215.385164,74.9613419 215.027169,74.3869991 C214.669175,73.8126564 214.243755,73.1481561 214.401922,72.4570147 C214.582419,71.6683007 215.385749,71.3995331 216.059385,71.2636588 C217.156961,71.0422754 220.117751,71.0600298 219.761995,68.9425562 C219.34281,66.4475296 216.139431,67.7288412 215.037665,68.466057 Z" id="Path" fill="#3F3D56" fill-rule="nonzero"></path>
                    <path d="M214.677562,188.676082 C214.393301,189.408535 214.366332,190.271374 214.858046,190.910875 C215.409802,191.628465 216.514035,191.895954 217.469375,191.713978 C218.420727,191.488697 219.268698,191.003453 219.893839,190.326599 C220.46556,189.759531 220.935894,189.117579 221.28835,188.423254 C221.780261,187.341254 222.127194,186.211429 222.321972,185.057153 L223.249068,180.72483 C223.456237,179.756583 223.448218,176.788102 221.44873,177.755266 C220.902501,178.019478 219.637796,180.105569 219.065361,180.697125 C218.033646,181.763299 217.897143,182.797804 217.354011,184.089438 C216.673709,185.707291 215.306446,187.055646 214.677562,188.676082 Z" id="Path" fill="#3F3D56" fill-rule="nonzero"></path>
                    <path d="M316.314932,213.688829 C315.72527,213.516093 315.153011,213.311592 314.602625,213.076923 C314.050718,214.215906 313.757302,215.416332 313.734597,216.628205 L317.769336,214.914329 C318.376288,214.656517 319.064212,214.298277 319.051162,213.774859 C319.062314,213.64319 318.976754,213.517466 318.828096,213.447082 C318.738435,213.420069 318.640807,213.411469 318.54525,213.422168 C317.946968,213.459597 317.401468,213.680585 316.837082,213.834258 C316.272697,213.987931 315.612755,214.069158 315.094926,213.841102" id="Path" fill="#3F3D56" fill-rule="nonzero"></path>
                    <path d="M340.797121,214.26979 C340.284558,214.37173 339.783791,214.503031 339.299472,214.662473 C338.227763,215.060873 337.498704,215.817587 336.534288,216.342322 C335.611402,216.844461 334.500444,217.120156 333.409822,217.388214 C333.088999,217.595409 333.23642,218.012698 333.584671,218.194713 C333.959102,218.35034 334.388541,218.420864 334.818107,218.397272 C335.95115,218.415546 337.144851,218.423517 338.137289,218.023682 C338.696488,217.758659 339.219762,217.455218 339.699982,217.117492 C340.86034,216.410126 342.253812,215.943409 343.633194,215.492379 C344.135247,215.35388 344.599479,215.151089 345.004097,214.893525 C345.870877,214.269609 345.931826,213.307081 344.681988,213.094731 C343.67213,212.923136 341.758686,214.042512 340.797121,214.26979 Z" id="Path" fill="#3F3D56" fill-rule="nonzero"></path>
                    <path d="M348.767628,207.716378 C348.853763,206.404359 348.520886,205.107485 347.864729,204.198718 C347.855053,205.494277 347.82801,206.874477 347.327151,207.9458 C346.970283,208.709124 346.410749,209.22477 346.019769,209.951869 C345.628788,210.678969 345.455236,211.831488 345.913848,212.469503 C346.206985,212.794018 346.564036,212.972926 346.932362,212.97985 C347.845269,213.136187 348.901933,213.223321 349.542218,212.263821 C349.891694,211.740113 350.061687,210.964456 350.487921,210.579422 C350.646704,210.482424 350.788494,210.334809 350.902835,210.147463 C351.078829,209.740446 350.79919,209.204042 350.484414,209.057388 C350.169637,208.910735 349.822759,208.979677 349.506406,208.840394 C349.190053,208.701111 348.899818,208.183594 349.062134,207.764724" id="Path" fill="#3F3D56" fill-rule="nonzero"></path>
                    <path d="M331.385065,166.925371 C330.794536,167.060609 330.182961,167.094563 329.579645,167.025605 C328.577573,166.852134 327.797652,166.141022 326.988637,165.557845 C325.065469,164.179039 322.72755,163.409886 320.310925,163.360942 C318.112577,163.321853 315.893693,163.882771 313.734597,163.49142 C313.875659,164.230208 314.547049,164.784315 315.263399,165.113665 C315.979749,165.443016 316.770361,165.608755 317.490148,165.9314 C318.642905,166.453243 319.557229,167.348905 320.065438,168.454128 C320.297265,168.96366 320.44312,169.518154 320.79429,169.96306 C321.512047,170.872438 322.872532,171.072124 324.073215,170.997755 C325.638633,170.900795 327.273615,170.476861 328.729972,171.026031 C329.844084,171.446143 330.64147,172.364334 331.571718,173.078288 C332.501966,173.792242 333.812213,174.322128 334.88039,173.806986 C332.603105,173.112758 331.06976,171.104888 331.095765,168.851131 C332.143425,168.941845 335.160958,168.906738 334.99842,167.230548 C334.860699,165.810001 332.284653,166.772047 331.385065,166.925371 Z" id="Path" fill="#3F3D56" fill-rule="nonzero"></path>
                    <path d="M318.187505,180.824508 C318.372047,179.82928 319.38142,178.950418 319.067005,177.987182 C318.849565,177.32105 318.064067,176.992173 317.352758,176.975748 C316.641448,176.959324 315.942667,177.167663 315.231443,177.187281 C314.768507,177.163116 314.304442,177.169597 313.842391,177.20668 C312.430564,177.434874 311.560347,178.889924 310.229837,179.40729 C309.420816,179.721875 308.511951,179.661736 307.670552,179.879212 C305.760586,180.372876 304.552086,182.14751 303.216949,183.578315 C301.059699,185.879823 298.249313,187.491377 295.149827,188.204227 C294.063863,188.451476 292.896462,188.609661 292.033271,189.303164 C290.890195,190.22153 290.608819,191.795919 290.354503,193.225655 C289.651872,197.17422 288.578073,201.050147 287.146919,204.803575 L291.682102,205.372927 C292.544346,205.481176 293.437791,205.587103 294.268668,205.335979 C294.872338,205.11206 295.444141,204.812573 295.969945,204.444918 C297.989775,203.211869 300.250382,202.409519 302.605493,202.089782 C303.793122,201.929461 305.038274,201.900084 306.152783,202.334147 C307.267292,202.768211 308.223434,203.752565 308.316839,204.927686 C309.2989,204.62727 310.369407,204.883269 311.101469,205.593596 C311.811642,206.305087 312.276668,207.21789 312.430927,208.203197 C312.550389,208.813278 312.669914,209.544277 313.245662,209.800213 C313.715374,210.009017 314.254196,209.784126 314.768036,209.743697 C316.511658,209.606515 317.958528,211.605606 319.672331,211.26136 C321.510353,210.892163 321.961601,208.185513 323.754721,207.643338 C324.784577,207.331948 326.229133,207.710598 326.722281,206.768661 C327.156952,205.938429 326.289729,204.980353 326.379162,204.050715 C326.48928,202.906024 327.862484,202.420156 328.921098,201.931739 C332.570746,200.247885 334.302628,195.417941 332.534097,191.85572 C331.486247,189.745111 329.424479,188.083685 329.04371,185.765051 C328.750753,183.981136 329.465939,181.900902 328.309213,180.496731 C327.720779,179.782422 326.72448,179.388138 326.374331,178.53581 C326.153925,177.999301 326.242513,177.390582 326.123903,176.823833 C326.005292,176.257084 325.502426,175.664255 324.933245,175.811155 C323.281023,176.237575 322.753804,181.256187 321.869213,182.475572 C320.524544,184.329119 317.764052,183.108178 318.187505,180.824508 Z" id="Path" fill="#3F3D56" fill-rule="nonzero"></path>
                    <path d="M287.833785,170.681265 C287.242522,170.508625 286.596897,170.338556 286.030374,170.585269 C285.463852,170.831983 285.133006,171.698136 285.587694,172.127917 C289.144818,171.983622 292.72372,171.840332 296.250609,172.343368 C300.314155,172.922944 304.335684,174.358589 308.417062,173.936228 C306.085667,173.219994 303.715794,172.647341 301.319747,172.221241 L297.324182,171.42643 C296.252322,171.19265 295.169282,171.018383 294.079651,170.904368 C291.800203,170.708331 290.074951,171.335656 287.833785,170.681265 Z" id="Path" fill="#3F3D56" fill-rule="nonzero"></path>
                    <path d="M290.29935,156.794854 C290.026115,156.771334 289.68771,156.751071 289.546355,156.99326 C289.411304,157.224658 289.565887,157.530385 289.493265,157.789868 C289.394051,158.144355 288.943723,158.234913 288.588914,158.186652 C288.234106,158.13839 287.850377,158.022806 287.53603,158.199172 C287.208563,158.429777 287.068,158.855502 287.190996,159.244178 C287.319518,159.619879 287.527374,159.961464 287.79955,160.244262 C288.264437,160.848187 288.794138,161.395924 289.378537,161.877014 C290.509727,162.73782 292.042242,163.152644 292.754707,164.402224 C292.855214,164.644413 293.009697,164.858759 293.205617,165.027864 C293.547643,165.251212 293.993703,165.081297 294.36195,164.907833 L295.652789,164.299787 C295.885309,164.213439 296.092884,164.067901 296.256229,163.876696 C296.551139,163.464177 296.369999,162.87765 296.12247,162.433252 C295.874941,161.988854 295.558091,161.528943 295.611212,161.01943 C295.705922,160.110981 296.838941,159.763491 297.304823,158.986225 C297.774415,158.202759 297.468709,157.193291 297.522837,156.273935 C297.586175,155.198815 298.241476,153.800335 297.187154,152.997054 C296.291114,152.314366 295.434676,152.945167 294.791354,153.698868 C293.434716,155.288266 292.793238,157.009551 290.29935,156.794854 Z" id="Path" fill="#3F3D56" fill-rule="nonzero"></path>
                    <path d="M298.050496,141.488356 C298.547108,142.318817 299.582395,142.814405 300.12393,143.623164 C300.710907,144.499784 300.64403,145.632414 301.280819,146.482101 C301.934142,147.35386 303.248911,147.816687 303.615309,148.808222 C304.01532,149.890732 303.107728,151.20645 303.831193,152.152301 C304.103982,152.464887 304.51432,152.663276 304.962443,152.699235 C305.410565,152.735195 305.855425,152.605429 306.188863,152.341489 C306.82316,151.738302 306.791496,150.80351 306.117482,150.234126 C305.689134,149.893029 305.074061,149.745629 304.716418,149.347211 C304.53016,149.117285 304.406083,148.853435 304.353538,148.575544 C304.158582,147.773977 304.189811,146.943021 304.444532,146.154344 C304.540233,145.954184 304.564533,145.733456 304.514254,145.521036 C304.353247,145.11229 303.71954,145.08329 303.274779,144.893668 C302.264611,144.463001 302.289127,143.217887 302.465616,142.248286 C302.348113,142.893804 299.715358,141.795895 299.439668,141.430247 C298.891999,140.703869 299.19007,139.302685 299.08165,138.5 C297.899285,138.997607 297.443313,140.472971 298.050496,141.488356 Z" id="Path" fill="#3F3D56" fill-rule="nonzero"></path>
                    <path d="M275.095091,153.550094 C274.662992,153.028713 274.012154,152.483276 273.432852,152.797716 C272.990879,153.037609 272.869302,153.696735 273.042529,154.196362 C273.253557,154.681669 273.578476,155.099187 273.985143,155.407616 C275.192384,156.480786 276.492375,157.449367 277.545573,158.696865 C279.430336,160.929367 280.428768,163.941761 282.478534,165.998415 C282.890551,166.475233 283.436116,166.79348 284.031806,166.904494 C284.628989,166.964375 285.299595,166.552356 285.36824,165.910149 C285.424783,165.381135 285.082631,164.907635 284.748261,164.515614 C283.952026,163.582093 283.080333,162.722821 282.328585,161.747393 C281.981399,161.372714 281.763216,160.881564 281.710097,160.355119 C281.706283,159.82991 282.150629,159.280196 282.622732,159.410261 C282.048561,159.252077 281.622741,158.221038 280.780034,158.027224 C280.075773,157.865257 279.905401,158.335192 279.067261,157.947737 C277.468714,157.208749 276.214551,154.900868 275.095091,153.550094 Z" id="Path" fill="#3F3D56" fill-rule="nonzero"></path>
                    <path d="M311.833364,107.10085 C311.36036,106.964661 310.895325,106.803732 310.440305,106.618771 C309.215996,106.26275 307.596106,107.134536 307.759299,108.362738 C307.867728,109.178779 308.651687,109.728958 309.084628,110.4368 C309.72668,111.486507 309.555514,112.817906 309.218118,113.993462 C309.135285,114.357449 308.977753,114.701587 308.754887,115.005416 C308.4433,115.326185 308.070812,115.585765 307.657805,115.769952 C306.004436,116.66813 304.546367,117.86814 303.364205,119.303643 C303.235679,119.436218 303.146147,119.599718 303.104912,119.777153 C303.046524,120.191835 303.476797,120.493912 303.72006,120.839776 C304.260431,121.608068 303.86986,122.641895 303.923281,123.570138 C303.906587,123.836995 304.033608,124.093222 304.25904,124.24743 C304.584736,124.407705 304.970675,124.13546 305.147208,123.825622 C305.733045,122.797409 305.29173,121.146956 306.390738,120.651199 C306.598627,120.557421 306.850656,120.517885 306.989345,120.34097 C307.209377,120.060316 306.997092,119.644761 307.108599,119.309304 C307.276015,118.805638 307.9871,118.783027 308.532812,118.805366 C309.472855,118.843448 310.412544,118.722255 311.30956,118.447243 C311.66144,118.366187 311.981039,118.186897 312.22876,117.931589 C312.557291,117.534386 312.528175,116.969613 312.462529,116.464622 C312.133721,113.94701 311.310524,111.513637 310.037372,109.295843 C311.002767,109.415312 312.053077,109.518772 312.886141,109.031374 C313.352622,108.758448 313.912013,107.942274 313.680654,107.386752 C313.314778,106.508259 312.653829,107.247706 311.833364,107.10085 Z" id="Path" fill="#3F3D56" fill-rule="nonzero"></path>
                    <path d="M189.043361,120.437491 C189.160299,121.057576 189.275246,121.710498 189.069716,122.307637 C188.864185,122.904777 188.217631,123.403719 187.607101,123.220752 C187.13328,123.078756 186.859581,122.607703 186.523128,122.248572 C184.652075,120.251403 180.430686,121.407696 179.27483,118.936865 C178.803099,117.928451 179.123684,116.720328 178.801924,115.655821 C178.384442,114.39039 177.154367,113.564169 175.810736,113.646691 C175.214908,113.731774 174.634954,113.902945 174.089451,114.15472 C170.434983,115.601818 166.598379,116.550591 162.685192,116.974935 C161.941513,117.019735 161.205892,117.152075 160.493915,117.36915 C158.887129,117.945106 157.789261,119.417957 157.007954,120.920915 C156.226648,122.423873 155.649847,124.050984 154.60235,125.386266 C153.50147,126.789606 151.958813,127.7723 150.519808,128.835225 C149.965468,129.188461 149.503881,129.666792 149.173027,130.230859 C148.86106,130.864109 148.878659,131.600675 148.902875,132.304647 L149.196975,140.854729 C149.234805,141.95448 149.282305,143.093543 149.780126,144.077712 C150.401772,145.306674 151.629814,146.11159 152.481751,147.197234 C153.351167,148.312922 153.804056,149.691327 153.763785,151.099205 C153.745651,151.665223 153.688767,152.334697 154.134614,152.690181 C154.405832,152.864047 154.723195,152.954291 155.046395,152.949451 L166.743949,153.896048 C168.801633,154.06256 171.082024,154.336342 172.425448,155.886366 C173.059481,156.617906 173.568809,157.669903 174.539955,157.748397 C174.956515,157.782061 175.361839,157.612991 175.778483,157.580365 C176.829653,157.498052 177.753093,158.286886 178.335876,159.155759 C179.217924,160.480073 179.618305,162.061579 179.471273,163.640581 C179.375716,164.631729 179.064912,165.5953 178.997906,166.588744 C178.742942,170.368791 181.9839,173.652921 182.046721,177.440858 C182.083675,179.668959 181.013904,181.750762 179.970936,183.726202 C181.654238,186.247528 180.275864,189.604977 180.946026,192.552534 C181.581824,195.34896 183.940025,197.538171 184.52765,200.344879 C184.796659,201.629785 184.812222,203.210995 185.958166,203.872787 C186.460998,204.115111 187.018424,204.225465 187.576855,204.19324 C190.945225,204.23269 194.27519,203.483127 197.29433,202.005873 C198.711316,201.310634 200.179835,200.272751 200.427302,198.727969 C200.62687,197.482202 199.987918,196.088749 200.638177,195.003621 C201.404556,193.72469 203.367852,193.826076 204.495456,192.84278 C206.324783,191.247587 204.898303,188.205323 205.63949,185.907709 C206.305728,183.842434 208.599133,182.745231 209.735958,180.891622 C210.183338,180.094451 210.504383,179.234138 210.687891,178.340703 C211.208683,176.205361 211.532854,174.027781 211.656434,171.834632 C211.686729,170.502119 211.786096,169.172017 211.954143,167.849564 C213.179818,160.320618 220.70782,155.279104 223.15193,148.046296 C223.385346,147.355558 223.494961,146.435502 222.87346,146.044651 C222.50482,145.870758 222.086908,145.827511 221.689841,145.922167 L216.297533,146.594336 C215.627765,146.677824 214.917822,146.755857 214.302738,146.480802 C213.687654,146.205746 213.246827,145.436395 213.573084,144.852072 C214.488937,143.211819 212.604998,141.139073 211.768034,139.458123 C209.513968,134.931888 206.829756,130.627804 203.751634,126.603969 C203.554592,126.396973 203.4312,126.132087 203.400176,125.849487 L204.930575,125.89987 C204.41397,124.067018 203.561425,122.061337 201.760479,121.390872 C200.745654,121.013067 199.621812,121.143706 198.539047,121.202204 C195.437722,121.36972 192.112858,120.906754 189.043361,120.437491 Z" id="Path" fill="#3F3D56" fill-rule="nonzero"></path>
                    <path d="M198.748546,81.5805425 C199.550011,82.4268936 200.448121,83.3242326 201.607747,83.4717485 C203.655948,83.7323256 205.128592,81.6261491 206.066196,79.7967094 C206.138366,80.7664914 206.973721,81.5029411 207.950586,81.4579874 C208.456164,81.3733996 208.938701,81.1858041 209.367911,80.9069751 C213.426033,78.7016874 217.971448,77.5332403 222.595933,77.5065721 C222.503939,76.7850705 222.974804,76.1110103 223.686843,75.944894 C224.627088,75.7595318 225.47405,76.5678911 225.92762,77.4076017 C226.381189,78.2473124 226.664008,79.2206065 227.38463,79.8491399 C228.105251,80.4776733 229.500427,80.4502922 229.785066,79.540109 C230.058331,78.6662914 229.142879,77.9211094 228.382318,77.4059377 C227.621757,76.890766 226.820098,75.9372602 227.332276,75.1769973 C231.217849,74.3217122 235.127525,73.4631875 239.103482,73.2931878 C239.780398,73.3166203 240.454908,73.2010758 241.084921,72.9537641 C241.691266,72.6578811 242.173204,71.9862372 242.010153,71.3344672 C240.235459,71.7493126 238.384765,71.0551576 237.327671,69.5781701 C242.84458,69.1254575 248.712401,68.7395825 253.60165,71.3209807 C254.188362,72.5734539 251.198083,73.6155027 251.998148,74.7451677 C252.253314,75.1054586 252.76462,75.1477118 253.207694,75.1558897 C256.60529,75.2186178 260.022497,75.2801278 263.381742,74.7700463 C264.609352,74.5836433 265.849312,74.3204974 267.081816,74.4716578 C269.134703,74.7234211 270.890532,76.0854975 272.910186,76.5295861 C273.732206,76.7103389 274.653906,76.7164605 275.34684,76.2410237 C276.039773,75.7655869 276.337628,74.6830123 275.769788,74.0649536 C277.67137,72.2116729 280.827411,72.6709975 283.336063,73.5582572 C285.844715,74.4455169 288.221297,75.8763702 290.876464,76.0741433 C292.780458,76.2159648 294.710908,75.7066869 296.592285,76.0303906 C297.774547,76.2338107 298.874859,76.7568219 300.030353,77.0781466 C302.215775,77.685876 304.527583,77.5575885 306.796658,77.5868361 C312.586176,77.6643968 318.312437,78.7958707 323.69195,80.9252418 C324.39175,81.1518051 325.032938,81.5285098 325.570159,82.028709 C326.070705,82.5617298 326.325983,83.3900103 325.989563,84.0380505 L320.430748,83.2303809 C320.954496,84.2556468 322.309465,84.4303635 323.409834,84.7840582 C324.510203,85.137753 325.651117,86.3461191 324.989826,87.2895108 C323.797567,86.9120162 322.71714,88.0973607 322.114873,89.1879741 C321.512607,90.2785875 320.778675,91.584725 319.529227,91.6511608 C318.410381,91.7106557 317.057238,90.7633064 316.327953,91.6091576 C317.33549,92.8730764 318.19826,94.2446986 318.900295,95.698636 C319.620795,97.1912651 320.133972,99.0720281 319.160141,100.414974 C319.006932,100.654713 318.774545,100.833912 318.502906,100.921784 C317.707582,101.121997 317.190829,100.154486 316.620457,99.5680758 C315.901735,98.8291103 314.814807,98.6198059 313.841498,98.2732419 C312.868189,97.9266779 311.842892,97.2449263 311.766738,96.2196825 C311.719357,95.5818007 312.058039,94.9888326 312.307504,94.3992813 C312.7268,93.4055596 312.910176,92.3291222 312.843399,91.2535204 C312.78879,90.388194 312.544784,89.4880647 311.919831,88.8834608 C311.294879,88.278857 310.215895,88.0870568 309.544987,88.640812 C309.231934,88.8991935 308.98105,89.3124938 308.574515,89.327948 C307.856203,89.3552753 307.304687,88.1099582 306.726778,88.5350556 C306.794585,88.9880027 306.700139,89.4502394 306.459952,89.840959 C304.735419,91.332405 302.086129,90.7014388 299.862876,91.2282969 C298.805685,91.5291586 297.793507,91.9687143 296.853044,92.5353677 C296.501232,92.6849601 296.201866,92.9348339 295.99273,93.2534534 C295.715211,93.7897359 296.021184,94.4765714 296.510348,94.8331482 C297.029098,95.1495226 297.612034,95.3473795 298.217052,95.4124273 C300.927467,95.9228821 303.677417,96.7130855 305.817292,98.4442571 C307.957166,100.175429 309.360445,103.037154 308.683291,105.696377 L303.338227,100.617638 C303.54124,102.750091 303.656448,104.888417 303.68385,107.032617 C303.718413,107.451279 303.660589,107.872396 303.51442,108.266519 C303.133372,109.103437 302.100614,109.385068 301.19562,109.569819 C300.686491,109.666006 300.242925,109.973872 299.976567,110.415929 C299.710208,110.857986 299.646425,111.392132 299.801271,111.883924 C300.122811,112.926115 300.924534,113.738657 301.658628,114.548294 C302.392723,115.357932 303.115132,116.278118 303.211234,117.364056 C303.307335,118.449993 302.483432,119.674016 301.389795,119.598513 C300.560734,119.541271 299.94565,118.803251 299.592029,118.055396 C299.238407,117.307541 299.027994,116.474449 298.496664,115.839006 C296.888473,113.91567 293.276264,114.739708 291.835574,112.689281 C291.088908,113.531515 290.833978,114.698121 291.161815,115.772535 C291.832049,115.355306 292.749588,115.742965 293.253154,116.349208 C293.756719,116.95545 293.994279,117.732695 294.38974,118.413602 C294.923373,119.33241 295.772632,120.146944 295.847119,121.205399 C295.827371,121.605637 295.834156,122.006734 295.867429,122.406084 C295.999742,123.047411 296.544863,123.507906 296.922816,124.043964 C297.802261,125.291287 297.758806,127.004809 297.191965,128.420047 C296.625124,129.835285 295.606753,131.017851 294.598072,132.164378 C292.836282,134.166944 291.038532,136.157769 288.949869,137.820793 C288.353883,138.295334 287.71783,138.761942 287.346641,139.425376 C286.975451,140.08881 286.956417,141.020038 287.526818,141.524703 C287.118682,141.545029 286.386738,141.744644 285.978603,141.76497 C285.835112,140.136876 285.803925,138.500922 285.885263,136.868591 C284.274628,136.099555 282.540436,138.159068 282.748276,139.923689 C282.956115,141.688309 284.23962,143.104382 285.153433,144.63109 C285.821688,145.747528 286.318321,147.049325 286.095221,148.329483 C285.87212,149.609641 284.722961,150.790597 283.421348,150.677691 C281.350981,150.498106 280.484975,147.542535 278.434782,147.204281 C278.25396,147.162066 278.064157,147.180805 277.895212,147.25755 C277.590874,147.42364 277.537973,147.828582 277.520886,148.173374 C277.437007,149.865637 277.364385,151.625167 278.028705,153.185396 C279.00056,155.467919 281.511233,157.384968 280.984567,159.807692 C278.147423,158.496262 276.672311,155.332405 276.00256,152.293359 C275.33281,149.254313 275.221186,146.063895 274.020612,143.190913 C273.108974,144.352838 271.192812,143.392309 270.35987,142.173363 C269.570199,141.017738 269.084007,139.680929 268.317866,138.509745 C267.551725,137.338561 266.378062,136.28984 264.974506,136.225441 C263.502951,136.157911 262.22671,137.162094 261.104357,138.110909 C260.181448,138.891118 259.233898,139.70203 258.694427,140.780543 C257.909388,142.349972 258.114743,144.200159 258.076913,145.952612 C258.036006,147.847174 257.632232,149.846095 256.333705,151.23306 C255.035178,152.620024 252.638381,153.103117 251.206107,151.853111 C250.45836,151.200519 250.096314,150.225507 249.773829,149.289607 C248.21935,144.7782 246.924736,140.18235 245.896286,135.52442 C245.655621,136.587548 244.71683,137.957815 243.819996,137.331572 C243.618757,137.163223 243.455722,136.954339 243.341656,136.718711 C241.668764,133.899248 238.570746,132.2081 235.440586,131.194099 C232.310427,130.180099 229.017101,129.707111 225.921654,128.592701 C224.186988,127.967946 222.530165,127.147271 220.98371,126.146787 C220.180586,127.32014 220.089452,128.837019 220.746376,130.097111 C221.433017,131.306104 222.986818,132.005613 224.31689,131.583024 C225.00422,131.364643 225.584668,130.890165 226.266664,130.655821 C226.94866,130.421476 227.864035,130.536552 228.162256,131.189939 C228.447709,131.815337 228.016247,132.571896 228.230278,133.224887 C228.556259,134.219428 230.064688,134.296051 230.592152,135.201077 C230.984606,135.874442 230.661691,136.768617 230.101341,137.311974 C229.54099,137.85533 228.793361,138.153342 228.109342,138.53158 C225.889913,139.758833 224.311634,141.853848 222.371986,143.483813 C220.432338,145.113778 217.695717,146.303814 215.384103,145.258282 C215.935126,142.483748 212.611491,140.446763 212.000056,137.684773 C211.798803,136.775688 211.903131,135.809993 211.61581,134.924075 C211.19982,133.641405 210.055429,132.759491 209.116619,131.78746 C206.816171,129.379747 205.591659,126.149871 205.721126,122.831217 C205.771857,121.689726 205.982753,120.529643 205.721237,119.417023 C205.459721,118.304404 204.533357,117.227511 203.385435,117.277936 C200.7636,117.393091 197.460651,117.587021 196.085089,115.364534 C195.594147,114.571319 195.380502,113.409565 196.090313,112.801849 C196.59104,112.373145 197.330171,112.413528 197.987746,112.477854 L203.895118,113.055719 C205.276767,113.190875 206.770296,113.302414 207.955918,112.584151 C209.14154,111.865888 209.655279,109.959304 208.557439,109.114269 C207.755288,108.496824 206.318123,108.530304 206.084947,107.548598 C205.89075,106.730992 206.800822,105.803317 206.309298,105.120034 C205.956863,104.630105 205.164513,104.766026 204.684376,105.133302 C204.204238,105.500578 203.855875,106.03769 203.318523,106.315771 C202.375896,106.8036 201.249591,106.339327 200.235436,106.023795 C199.22128,105.708263 197.861695,105.681467 197.36979,106.61812 C196.819657,107.665652 197.857753,109.038282 197.311783,110.087952 C196.589949,111.475749 194.145444,110.685713 193.131689,111.879438 C191.968417,113.249227 193.923263,115.291777 193.530958,117.0417 C192.512123,117.543458 191.303085,117.475912 190.347182,116.863829 C189.40551,116.226924 188.892077,115.126893 189.01078,114.000591 C189.107886,113.21339 189.520606,112.409827 189.24407,111.665923 C189.020486,111.064464 188.413197,110.7064 187.84879,110.396246 L182.108153,107.241785 C181.575175,108.224953 182.248979,109.443816 183.091671,110.182269 C183.934364,110.920722 184.989872,111.476897 185.543453,112.448742 C186.270368,113.846446 185.777008,115.565319 184.417693,116.37091 C184.251624,116.484897 184.04373,116.520958 183.84866,116.469615 C183.663619,116.36149 183.530488,116.183468 183.479614,115.976129 C182.466731,113.398616 180.946001,110.857295 178.514717,109.510843 C176.083434,108.164392 172.58993,108.441227 170.995601,110.709393 C170.616912,111.248127 170.362755,111.862212 170.032866,112.431792 C168.280219,115.457889 164.522838,116.890859 161.012349,116.797257 C160.668932,116.816144 160.327307,116.736317 160.02829,116.567313 C159.460943,116.177667 159.486493,115.350851 159.573346,114.670663 L159.941838,111.784096 C160.015834,111.204453 160.123058,110.563759 160.584416,110.201924 C161.234753,109.691874 162.172901,110.013753 163.001099,110.001892 C164.28642,109.942058 165.397071,109.089704 165.781028,107.868474 C166.121998,106.641541 165.752123,105.327724 164.820092,104.455173 C164.4405,104.10064 163.931004,103.655295 164.131498,103.177356 C164.293445,102.909737 164.566188,102.727102 164.87646,102.678515 C166.36412,102.248922 167.936037,102.136323 169.398894,101.629437 C170.861752,101.12255 172.280406,100.085478 172.626841,98.5840507 C172.733009,98.1239321 172.781344,97.5665578 173.196969,97.3384363 C173.405515,97.2508787 173.629471,97.205378 173.855842,97.2045744 C175.499738,96.9720113 176.693056,95.5298359 176.605945,93.8809586 C177.307017,93.3938291 178.289237,93.7521617 178.967472,94.2702787 C179.645708,94.7883958 180.244496,95.4729187 181.069758,95.6962633 C182.607703,96.1124994 184.093957,94.7584301 185.687832,94.7521535 C186.358104,94.749515 187.05197,94.9851818 187.682551,94.7592115 C188.321804,94.5301313 188.703553,93.8973492 189.194176,93.4298626 C189.6848,92.9623759 190.545665,92.6772398 190.998699,93.1808422 L190.612917,90.3392877 C192.184753,90.73415 193.851502,90.4345004 195.184799,89.5173502 L190.19887,87.8421207 C190.025264,87.7990203 189.865086,87.7138561 189.732629,87.5942265 C189.370141,87.2060832 189.730186,86.6012326 190.024948,86.1600134 C190.730095,85.1045003 190.848466,83.365815 189.688872,82.8403236 C188.897368,82.4816398 187.988852,82.9121882 187.229147,83.3334133 L183.590045,85.351148 C183.4744,86.0390022 184.3203,86.428838 184.844481,86.8921677 C185.493623,87.4659542 185.721331,88.3775028 185.41765,89.1866495 C185.11397,89.9957962 184.341364,90.5361103 183.472905,90.5466877 C183.958326,91.174244 184.130538,91.9872023 183.940946,92.7561529 L181.492468,92.9312618 C181.217672,92.9862386 180.932165,92.9308257 180.698327,92.7771308 C180.436454,92.545855 180.471968,92.1405776 180.411273,91.7975664 C180.264781,90.969675 179.44956,90.3894246 178.617567,90.2406432 C177.785573,90.0918618 176.934424,90.2825674 176.110565,90.4708717 C175.760738,90.5960535 175.376572,90.5872376 175.032924,90.4461418 C174.83587,90.3188473 174.686134,90.1309111 174.606588,89.9110393 C174.245398,89.0401766 174.583007,88.0165526 175.163108,87.2718104 C175.743209,86.5270681 176.537331,85.9826393 177.250537,85.3626382 C178.956097,83.8745325 180.209197,81.9418058 180.868282,79.7827863 C182.216175,79.2212044 183.611624,78.4581828 184.959502,77.8965883 C187.037577,76.850355 189.367967,76.4013665 191.688617,76.6001124 L196.253351,76.6868143 C197.60482,76.7124839 198.992848,76.7453759 200.242521,77.2577194 C201.492194,77.7700629 202.59025,78.87819 202.676527,80.2195986 C202.729429,80.5283061 202.618844,80.8423577 202.383836,81.0508181 C202.207354,81.1465912 202.007461,81.1913952 201.806726,81.1801718 C200.546318,81.2242188 200.008925,81.5365114 198.748546,81.5805425 Z" id="Path" fill="#3F3D56" fill-rule="nonzero"></path>
                    <path d="M162.490487,95.5804464 C162.773423,95.2452891 162.882838,94.7402846 162.773939,94.2721831 C162.085082,93.93953 161.305098,94.1238388 160.760609,94.7479293 C160.55016,95.014307 160.368794,95.3143501 160.221228,95.6402516 C159.754436,96.5932683 159.341562,97.7316245 159.612085,98.7969243 C159.656625,99.0316163 159.774844,99.233957 159.940044,99.358253 C160.061286,99.4191491 160.192,99.4447711 160.322314,99.4331838 C160.836546,99.4323474 161.350271,99.3927796 161.860703,99.3146949 C162.174167,99.2667343 162.538249,99.15596 162.659392,98.7910098 C162.818635,98.3112792 162.433204,97.7683633 162.545565,97.2682805 C162.619487,97.0446512 162.731509,96.8438976 162.873817,96.6800251 C163.016955,96.5127265 163.088694,96.2707771 163.067402,96.0271312 C163.022057,95.7924864 162.734944,95.6593708 162.63159,95.8632346" id="Path" fill="#3F3D56" fill-rule="nonzero"></path>
                    <path d="M165.505399,88.920132 C164.930412,88.7874537 164.337721,88.7500495 163.750735,88.8093966 C163.620915,88.805511 163.492248,88.8348969 163.37685,88.8947868 C163.265037,88.977655 163.18395,89.0956628 163.146446,89.2300997 C162.889364,90.0593742 163.309442,90.9479853 164.11152,91.2715691 C164.322326,91.3202758 164.524253,91.4018248 164.709976,91.5132584 C165.206247,91.9002138 164.889878,92.6911519 164.983824,93.3152964 C165.089316,94.0161561 165.764372,94.6044515 165.640607,95.3022859 C165.543102,95.8520608 164.958816,96.2873891 165.05288,96.837781 C165.151407,97.4142321 165.879278,97.5874489 166.459463,97.6336109 C166.795709,97.6927832 167.14181,97.6529198 167.456015,97.5188292 C167.770951,97.3024104 167.994942,96.9764125 168.084749,96.6037675 C168.322277,95.8932419 168.422087,95.1435475 168.378777,94.3952602 C168.376221,94.0549252 168.291165,93.7203445 168.130972,93.4204823 C167.956259,93.1829263 167.762591,92.9600595 167.551887,92.7540906 C166.440305,91.4546635 167.610731,89.5164071 165.505399,88.920132 Z" id="Path" fill="#3F3D56" fill-rule="nonzero"></path>
                    <path d="M315.507109,191.769231 C315.507109,191.769231 228.265259,141.163461 190.706456,150.751923 C190.706456,150.751923 111.108154,159.408173 101.883183,178.451921 C101.883183,178.451921 76.5804111,98.5480773 67.3554502,95.8846154" id="Path" stroke="#FFCF06" stroke-width="2" opacity="0.8"></path>
                    <path d="M101.88319,178.525497 C116.511357,139.324055 248.296628,95.8846154 248.296628,95.8846154 C229.583124,100.652357 190.706464,150.978538 190.706464,150.978538 C190.706464,150.978538 108.472448,90.8519961 67.3554502,96.4143634 C67.3554502,96.4143634 248.428413,102.374042 315.507109,191.769231" id="Path" stroke="#FFD15C" stroke-width="2" opacity="0.8"></path>
                    <ellipse id="Oval" fill="#FFD15C" fill-rule="nonzero" cx="68.2417062" cy="98.5480769" rx="4.43127962" ry="4.43910256"></ellipse>
                    <ellipse id="Oval" fill="#FFD15C" fill-rule="nonzero" cx="103.691943" cy="180.227564" rx="4.43127962" ry="4.43910256"></ellipse>
                    <ellipse id="Oval" fill="#FFD15C" fill-rule="nonzero" cx="247.265403" cy="96.7724359" rx="4.43127962" ry="4.43910256"></ellipse>
                    <ellipse id="Oval" fill="#FFD15C" fill-rule="nonzero" cx="314.620853" cy="192.657051" rx="4.43127962" ry="4.43910256"></ellipse>
                    <ellipse id="Oval" fill="#FFD15C" fill-rule="nonzero" cx="190.545024" cy="153.592949" rx="4.43127962" ry="4.43910256"></ellipse>
                </g>
            </g>
        </g>
    </g>
</svg>